<svg width="2" height="2" viewBox="0 0 8 8" fill="none" xmlns="http://www.w3.org/2000/svg">
<path d="M1.59961 5.01329L2.86952 3.6926C2.92095 3.63912 2.98201 3.59668 3.0492 3.56773C3.1164 3.53878 3.18842 3.52388 3.26115 3.52388C3.33389 3.52388 3.4059 3.53878 3.4731 3.56773C3.5403 3.59668 3.60136 3.63912 3.65279 3.6926L4.92268 5.01329M4.55345 4.62929L4.9003 4.26859C4.95173 4.21511 5.01279 4.17269 5.07997 4.14374C5.14718 4.11479 5.2192 4.0999 5.29191 4.0999C5.36465 4.0999 5.43668 4.11479 5.50388 4.14374C5.57107 4.17269 5.63213 4.21511 5.68355 4.26859L6.39961 5.01329M1.96884 5.9733H6.03038C6.12833 5.9733 6.22224 5.93285 6.29147 5.86084C6.36071 5.78881 6.39961 5.69114 6.39961 5.5893V2.5173C6.39961 2.41546 6.36071 2.31779 6.29147 2.24577C6.22224 2.17376 6.12833 2.1333 6.03038 2.1333H1.96884C1.87091 2.1333 1.777 2.17376 1.70776 2.24577C1.63851 2.31779 1.59961 2.41546 1.59961 2.5173V5.5893C1.59961 5.69114 1.63851 5.78881 1.70776 5.86084C1.777 5.93285 1.87091 5.9733 1.96884 5.9733ZM4.55345 3.0933H4.55544V3.09535H4.55345V3.0933ZM4.64578 3.0933C4.64578 3.11876 4.63604 3.14318 4.61874 3.16118C4.60142 3.17919 4.57793 3.1893 4.55345 3.1893C4.52897 3.1893 4.5055 3.17919 4.48818 3.16118C4.47088 3.14318 4.46115 3.11876 4.46115 3.0933C4.46115 3.06784 4.47088 3.04342 4.48818 3.02542C4.5055 3.00742 4.52897 2.9973 4.55345 2.9973C4.57793 2.9973 4.60142 3.00742 4.61874 3.02542C4.63604 3.04342 4.64578 3.06784 4.64578 3.0933Z" stroke="#C2C2C2" stroke-width="0.5" stroke-linecap="round" stroke-linejoin="round"/>
</svg>
