<svg width="24" height="24" viewBox="0 0 24 24" fill="none" xmlns="http://www.w3.org/2000/svg">
<path d="M20.5422 6.98614C20.5774 6.94257 20.6024 6.89166 20.6154 6.83715C20.6284 6.78264 20.629 6.72592 20.6171 6.67114C20.6051 6.6165 20.581 6.56524 20.5466 6.52112C20.5122 6.477 20.4685 6.44112 20.4184 6.41614L14.4184 3.41614C14.3407 3.37701 14.2519 3.36609 14.167 3.38524C14.0822 3.4044 14.0067 3.45244 13.9534 3.52114L11.7446 6.37489L10.4771 2.88739C10.4588 2.83712 10.4298 2.79138 10.3923 2.75321C10.3548 2.71505 10.3096 2.68536 10.2597 2.66614C10.2108 2.64385 10.1577 2.63232 10.104 2.63232C10.0503 2.63232 9.99729 2.64385 9.94841 2.66614L3.5734 6.04114C3.48983 6.08596 3.42634 6.16079 3.39572 6.25055C3.36511 6.34031 3.36964 6.43833 3.4084 6.52489L5.21215 10.4999L3.4084 14.4711C3.37096 14.5538 3.36477 14.6473 3.39097 14.7341C3.41718 14.821 3.474 14.8954 3.55091 14.9437L5.24966 16.0049V17.6249C5.24977 17.6913 5.26754 17.7565 5.30115 17.8139C5.33475 17.8712 5.38298 17.9185 5.44091 17.9511L11.4409 21.3261C11.4973 21.3572 11.5603 21.3739 11.6246 21.3749C11.689 21.3747 11.7523 21.3579 11.8084 21.3261L17.8084 17.9511C17.8663 17.9185 17.9146 17.8712 17.9482 17.8139C17.9818 17.7565 17.9995 17.6913 17.9997 17.6249V15.6299L19.6984 14.5686C19.7777 14.5189 19.8355 14.4413 19.8605 14.3511C19.8854 14.2609 19.8758 14.1646 19.8334 14.0811L17.9584 10.3311C17.9469 10.3073 17.933 10.2847 17.9171 10.2637L20.5422 6.98614ZM14.3584 4.22239L19.6684 6.87739L17.2722 9.87742L12.1871 7.01239L14.3584 4.22239ZM11.6246 13.4437L6.37466 10.4999L11.6246 7.55614L16.8746 10.4999L11.6246 13.4437ZM4.23715 6.53989L9.91841 3.53989L11.1634 6.95989L5.79715 9.9711L4.23715 6.53989ZM5.79715 11.0399L11.1522 14.0399L9.57337 17.8237L4.22591 14.4824L5.79715 11.0399ZM5.99966 16.4737L9.55089 18.6937C9.59697 18.722 9.64873 18.74 9.70241 18.7465C9.75617 18.7529 9.81065 18.7477 9.86217 18.7311C9.91409 18.7145 9.96185 18.6869 10.002 18.6499C10.0422 18.613 10.0738 18.5678 10.0946 18.5174L11.2497 15.7499V20.3586L5.99966 17.4074V16.4737ZM17.2497 17.4074L11.9997 20.3586V15.6074L13.1584 18.1537C13.1802 18.2026 13.2122 18.2464 13.2522 18.282C13.2924 18.3176 13.3397 18.3441 13.3909 18.3599C13.4262 18.3702 13.4629 18.3753 13.4997 18.3749C13.5698 18.3751 13.6387 18.3557 13.6984 18.3186L17.2497 16.0986V17.4074ZM13.6647 17.4561L12.1084 14.0324L17.4634 11.0324L19.0122 14.1224L13.6647 17.4561Z" fill="#7D716A"/>
</svg>
