<svg width="16" height="10" viewBox="0 0 16 10" fill="none" xmlns="http://www.w3.org/2000/svg">
<g clip-path="url(#clip0_1622_4706)">
<path d="M5 9.45455C7.76142 9.45455 10 7.33807 10 4.72727C10 2.11647 7.76142 0 5 0C2.23858 0 0 2.11647 0 4.72727C0 7.33807 2.23858 9.45455 5 9.45455Z" fill="#F93232"/>
<path d="M11 0C9.877 0 8.844 0.354545 8.01 0.945454H8V0.952073C7.802 1.09295 7.62 1.25178 7.4465 1.41818H8.5535C8.7075 1.56615 8.8495 1.72451 8.981 1.89091H7.015C6.894 2.04171 6.783 2.19913 6.6815 2.36364H9.3135C9.4075 2.5168 9.496 2.6728 9.5725 2.83636H6.427C6.3555 2.99 6.2925 3.14742 6.2385 3.30909H9.7605C9.8125 3.4632 9.8535 3.62156 9.8895 3.78182H6.108C6.0745 3.93687 6.0465 4.09382 6.0295 4.25455H9.97C9.9895 4.4096 10 4.56702 10 4.72727H6C6 4.88753 6.0135 5.044 6.03 5.2H9.971C9.952 5.36025 9.9245 5.51767 9.89 5.67273H6.1085C6.143 5.83393 6.1875 5.99087 6.239 6.14545H9.761C9.707 6.30713 9.644 6.46454 9.5725 6.61818H6.427C6.5025 6.7808 6.5875 6.93869 6.6815 7.09091H9.3135C9.2125 7.25542 9.1 7.41284 8.979 7.56364H7.015C7.148 7.73004 7.2915 7.8884 7.446 8.03636H8.5535C8.3795 8.20324 8.198 8.3616 8 8.50247C8.836 9.09764 9.8725 9.45455 11 9.45455C13.7615 9.45455 16 7.33767 16 4.72727C16 2.11687 13.7615 0 11 0Z" fill="#FED049"/>
</g>
<defs>
<clipPath id="clip0_1622_4706">
<rect width="16" height="9.45455" fill="white"/>
</clipPath>
</defs>
</svg>
