<svg width="14" height="14" viewBox="0 0 14 14" fill="none" xmlns="http://www.w3.org/2000/svg">
<g clip-path="url(#clip0_2080_76)">
<path d="M6.69067 7.30935L4.81249 5.43116L1.6218 8.62185C1.45074 8.79292 1.17424 8.79292 1.00317 8.62185C0.832112 8.45079 0.832112 8.17429 1.00317 8.00323L4.50317 4.50323C4.67424 4.33217 4.95074 4.33217 5.1218 4.50323L6.99999 6.38142L10.5376 2.84379L9.75317 2.05935C9.63724 1.94342 9.59611 1.77279 9.64599 1.6166C9.69586 1.46042 9.82886 1.34535 9.99074 1.31867L12.6157 0.881165C12.754 0.856665 12.8966 0.903478 12.9968 1.00323C13.097 1.10342 13.142 1.24517 13.1189 1.38473L12.6814 4.00973C12.6542 4.17117 12.5396 4.30417 12.3834 4.35448C12.225 4.40523 12.0544 4.36148 11.9402 4.24729L11.1562 3.46242L7.3093 7.30935C7.13824 7.48042 6.86174 7.48042 6.69067 7.30935ZM9.62499 12.6875V11.8125C9.62499 11.571 9.82099 11.375 10.0625 11.375H12.6875C12.929 11.375 13.125 11.571 13.125 11.8125V12.6875C13.125 12.929 12.929 13.125 12.6875 13.125H10.0625C9.82099 13.125 9.62499 12.929 9.62499 12.6875ZM9.62499 10.0625V9.18754C9.62499 8.94604 9.82099 8.75004 10.0625 8.75004H12.6875C12.929 8.75004 13.125 8.94604 13.125 9.18754V10.0625C13.125 10.304 12.929 10.5 12.6875 10.5H10.0625C9.82099 10.5 9.62499 10.304 9.62499 10.0625ZM5.24999 12.6875V11.8125C5.24999 11.571 5.44599 11.375 5.68749 11.375H8.31249C8.55399 11.375 8.74999 11.571 8.74999 11.8125V12.6875C8.74999 12.929 8.55399 13.125 8.31249 13.125H5.68749C5.44599 13.125 5.24999 12.929 5.24999 12.6875ZM0.874987 12.6875V11.8125C0.874987 11.571 1.07099 11.375 1.31249 11.375H3.93749C4.17899 11.375 4.37499 11.571 4.37499 11.8125V12.6875C4.37499 12.929 4.17899 13.125 3.93749 13.125H1.31249C1.07099 13.125 0.874987 12.929 0.874987 12.6875ZM5.24999 10.0625V9.18754C5.24999 8.94604 5.44599 8.75004 5.68749 8.75004H8.31249C8.55399 8.75004 8.74999 8.94604 8.74999 9.18754V10.0625C8.74999 10.304 8.55399 10.5 8.31249 10.5H5.68749C5.44599 10.5 5.24999 10.304 5.24999 10.0625ZM9.62499 7.43754V6.56254C9.62499 6.32104 9.82099 6.12504 10.0625 6.12504H12.6875C12.929 6.12504 13.125 6.32104 13.125 6.56254V7.43754C13.125 7.67904 12.929 7.87504 12.6875 7.87504H10.0625C9.82099 7.87504 9.62499 7.67904 9.62499 7.43754Z" fill="#B69B78"/>
</g>
<defs>
<clipPath id="clip0_2080_76">
<rect width="14" height="14" fill="white"/>
</clipPath>
</defs>
</svg>
