<?xml version="1.0" encoding="UTF-8"?>
<svg id="Layer_1" data-name="Layer 1" xmlns="http://www.w3.org/2000/svg" viewBox="0 0 48.55 48.55">
  <defs>
    <style>
      .cls-1 {
        fill: #7b90a8;
      }
    </style>
  </defs>
  <path class="cls-1" d="m12.96,31.91c-.64.39-.92,1.55-.93,2.26.01.71.3,1.87.93,2.27,0,0,0,.5,0,.5-.33.1-.78-.14-.97-.33-1.45-1.19-1.44-3.67,0-4.85.19-.19.64-.44.97-.33v.5h0Z"/>
  <path class="cls-1" d="m40.55,28.81c-.05,1.39-1.11,2.48-2.42,2.48-1.33,0-2.42-1.1-2.42-2.46,0-.85.29-1.83.87-2.9.48-.9,1.07-1.69,1.48-2.19l.06-.08.06.08c.42.52,1.02,1.33,1.51,2.24.59,1.09.88,2.04.85,2.84Z"/>
  <path class="cls-1" d="m28.89,25.47c2.14-2.32,4.32-4.59,6.51-6.85,1.56.97,3.4-.74,2.36-2.3-.7-.8-2.28-2.26-3.04-3.04-.59-.58-2.09-2.11-2.65-2.68-1.3-1.45-3.57.17-2.68,1.88,0,0,.17.32.17.32l-.26.25c-2.2,2.13-4.4,4.24-6.65,6.31l-.35-.35c2.07-2.25,4.19-4.46,6.31-6.65l-.09.57c-1.51-2.76,2.17-5.37,4.32-3.1.57.55,2.09,2.08,2.68,2.65.83.9,2.36,2.29,3.13,3.23,1.56,2.21-.91,5.14-3.33,3.94,0,0,.53-.1.53-.1-2.18,2.11-4.38,4.22-6.61,6.28l-.35-.35h0Z"/>
  <path class="cls-1" d="m33.05,21.38c-1.14-.33-2.17-1.16-2.75-2.22-.49-1.02-.73-1.97-1.44-2.85-.43-.54-.94-1.06-1.45-1.53,0,0,.25-.43.25-.43.37.13.7.34,1.02.56,1.02.63,1.78,1.63,2.22,2.75.24.74.44,1.24.88,1.83.4.53.9,1.02,1.48,1.44l-.22.45h0Z"/>
  <path class="cls-1" d="m17.85,24.14c-2.01,2.19-4.06,4.34-6.13,6.47-1,1.03-2.04,1.92-2.21,3.37-.48,2.7,2.16,5.23,4.84,4.64,1.4-.21,2.35-1.39,3.34-2.32,2.14-2.06,4.28-4.12,6.47-6.12l.35.35c-2,2.19-4.06,4.34-6.12,6.47-1.03,1.11-2.21,2.41-3.83,2.68-4.57,1.02-8.01-4.44-5.14-8.13,2.6-2.74,5.34-5.18,8.08-7.77,0,0,.35.35.35.35h0Z"/>
  <path class="cls-1" d="m9.67,11.7c6.89,6.28,15.16,14.42,21.78,21.06,2.36,2.4,4.72,4.8,7.03,7.26l-.35.35c-2.49-2.26-4.94-4.58-7.38-6.9-3.64-3.48-10.86-10.58-14.4-14.16-2.37-2.4-4.72-4.8-7.03-7.25l.35-.35h0Z"/>
</svg>