<svg width="14" height="14" viewBox="0 0 14 14" fill="none" xmlns="http://www.w3.org/2000/svg">
<path d="M5.90631 8.54434C5.92972 8.71065 5.90981 8.88018 5.84849 9.03654C5.78718 9.1929 5.68653 9.33078 5.55631 9.43684L4.29193 10.5306H13.2935C13.4339 10.5306 13.5685 10.5864 13.6678 10.6856C13.7671 10.7849 13.8229 10.9196 13.8229 11.06C13.8229 11.2004 13.7671 11.335 13.6678 11.4343C13.5685 11.5336 13.4339 11.5893 13.2935 11.5893H12.1822C12.2135 11.7567 12.2075 11.9289 12.1647 12.0937C12.1218 12.2585 12.0432 12.4119 11.9344 12.5429C11.8256 12.6738 11.6893 12.7793 11.5352 12.8516C11.381 12.924 11.2128 12.9615 11.0426 12.9615C10.8723 12.9615 10.7041 12.924 10.55 12.8516C10.3958 12.7793 10.2595 12.6738 10.1507 12.5429C10.0419 12.4119 9.9633 12.2585 9.92047 12.0937C9.87763 11.9289 9.87162 11.7567 9.90287 11.5893H7.01756C7.04881 11.7567 7.0428 11.9289 6.99996 12.0937C6.95713 12.2585 6.87852 12.4119 6.76973 12.5429C6.66093 12.6738 6.52462 12.7793 6.37047 12.8516C6.21633 12.924 6.04815 12.9615 5.87787 12.9615C5.7076 12.9615 5.53941 12.924 5.38527 12.8516C5.23113 12.7793 5.09481 12.6738 4.98602 12.5429C4.87722 12.4119 4.79861 12.2585 4.75578 12.0937C4.71294 11.9289 4.70694 11.7567 4.73818 11.5893H4.06006C3.85943 11.5901 3.66353 11.5285 3.49951 11.4129C3.33549 11.2974 3.21148 11.1337 3.14465 10.9445C3.07783 10.7553 3.07151 10.5501 3.12657 10.3571C3.18162 10.1642 3.29533 9.99319 3.45193 9.86777L4.8585 8.64496C4.806 8.42621 4.56318 7.38277 3.38631 2.32965H2.69943V2.5484H0.936309C0.734993 2.5484 0.541922 2.46843 0.39957 2.32607C0.257219 2.18372 0.177246 1.99065 0.177246 1.78934C0.177246 1.58802 0.257219 1.39495 0.39957 1.2526C0.541922 1.11025 0.734993 1.03027 0.936309 1.03027H2.69943V1.27746C2.69943 1.27746 3.62256 1.27746 3.65975 1.29059C3.82348 1.32585 3.97534 1.40277 4.10065 1.5139C4.22596 1.62503 4.32048 1.76662 4.37506 1.92496L5.90631 8.54434Z" fill="#B69B78"/>
<path d="M12.8297 2.36682H5.13403L6.56247 8.54432L11.9962 8.22276C12.3631 8.20963 12.7103 8.05313 12.963 7.78685C13.2158 7.52058 13.3541 7.16579 13.3481 6.7987V2.8962C13.3481 2.75767 13.2939 2.62465 13.1969 2.52569C13.1 2.42672 12.9682 2.36968 12.8297 2.36682ZM11.0972 4.65713L8.8856 6.87088C8.80393 6.95304 8.693 6.99946 8.57716 6.99995C8.46163 7.00004 8.35075 6.95443 8.26872 6.87307L7.39372 5.99807C7.34792 5.95885 7.31073 5.91059 7.28447 5.85631C7.25821 5.80203 7.24345 5.74291 7.24112 5.68266C7.23879 5.62241 7.24895 5.56232 7.27094 5.50618C7.29294 5.45004 7.3263 5.39905 7.36894 5.35641C7.41157 5.31378 7.46256 5.28041 7.5187 5.25842C7.57485 5.23642 7.63493 5.22627 7.69518 5.2286C7.75543 5.23092 7.81455 5.24568 7.86883 5.27194C7.92311 5.2982 7.97137 5.3354 8.0106 5.3812L8.57497 5.94557L10.4803 4.04026C10.5623 3.95877 10.6731 3.91304 10.7887 3.91304C10.9043 3.91304 11.0152 3.95877 11.0972 4.04026C11.1786 4.12223 11.2244 4.23312 11.2244 4.3487C11.2244 4.46428 11.1786 4.57516 11.0972 4.65713Z" fill="#B69B78"/>
</svg>
