<svg width="24" height="24" viewBox="0 0 24 24" fill="none" xmlns="http://www.w3.org/2000/svg">
<g clip-path="url(#clip0_2543_1357)">
<path fill-rule="evenodd" clip-rule="evenodd" d="M13.6058 0H3.13982C1.4056 0 0 1.15325 0 2.57614V20.0432C0 21.0342 0.692856 21.9376 1.78237 22.3661C2.87189 22.7946 4.16341 22.6726 5.10535 22.0518L5.62446 21.71C6.00751 21.4584 6.55176 21.4584 6.93482 21.71L9.54923 23.4326C10.6963 24.1883 12.328 24.1891 13.4772 23.4352L16.0937 21.7178C16.4756 21.467 17.0178 21.4661 17.3999 21.7169L17.9419 22.0715C18.885 22.6889 20.1755 22.8083 21.2628 22.379C22.3493 21.9496 23.04 21.0471 23.04 20.0578V7.72585H16.7458C15.9126 7.72585 15.114 7.4545 14.5259 6.97104C13.9366 6.48844 13.6058 5.83324 13.6058 5.14971V0ZM14.3814 18.6083L17.4857 16.0614C17.785 15.8158 17.875 15.4466 17.7127 15.1254C17.5505 14.8051 17.1685 14.5956 16.7458 14.5956H6.27964C5.70191 14.5956 5.23303 14.9803 5.23303 15.4543C5.23303 15.9283 5.70191 16.313 6.27964 16.313H14.2192L12.9016 17.3941C12.4922 17.729 12.4922 18.2734 12.9016 18.6083C13.3097 18.9441 13.9733 18.9441 14.3814 18.6083ZM8.64392 8.86536L5.53969 11.4123C5.24035 11.6579 5.15035 12.0271 5.31258 12.3483C5.47481 12.6686 5.8568 12.8781 6.27964 12.8781H16.7458C17.3234 12.8781 17.7923 12.4934 17.7923 12.0194C17.7923 11.5454 17.3234 11.1607 16.7458 11.1607H8.80615L10.1238 10.0796C10.533 9.74469 10.533 9.20026 10.1238 8.86536C9.71566 8.5296 9.0521 8.5296 8.64392 8.86536ZM15.6991 0.103042V5.14971C15.6991 5.37727 15.809 5.59624 16.0057 5.75682C16.2014 5.91826 16.4683 6.00842 16.7458 6.00842H22.9176C22.771 5.59109 22.4968 5.20724 22.1148 4.89639L17.0346 0.749659C16.6589 0.443098 16.1983 0.222403 15.6991 0.103042Z" fill="#B69B78" fill-opacity="0.45"/>
</g>
<defs>
<clipPath id="clip0_2543_1357">
<rect width="24" height="24" fill="white"/>
</clipPath>
</defs>
</svg>
