<svg width="10" height="10" viewBox="0 0 10 10" fill="none" xmlns="http://www.w3.org/2000/svg">
<mask id="mask0_209_391" style="mask-type:luminance" maskUnits="userSpaceOnUse" x="0" y="0" width="10" height="10">
<path d="M4.26343 5.01309C4.13561 8.37418 0.843054 8.61609 0.843054 8.61609C1.31853 5.1778 4.26343 5.01309 4.26343 5.01309ZM5.95572 5.01309C5.95572 5.01309 8.90061 5.1778 9.37609 8.61609C9.3812 8.62124 6.08353 8.37418 5.95572 5.01309ZM0.843054 0.5917C0.843054 0.5917 4.13561 0.833616 4.26343 4.1947C4.26343 4.1947 1.31853 4.02999 0.843054 0.5917ZM9.38119 0.5917C8.90571 4.02999 5.96082 4.1947 5.96082 4.1947C6.08352 0.833616 9.38119 0.5917 9.38119 0.5917ZM5.28084 4.22558H4.9434C4.83604 -0.339933 0.229528 0.0255141 0.229528 0.0255141C0.229528 0.0255141 -0.0107653 3.46895 2.86766 4.60647C-0.0107653 5.73884 0.229528 9.18743 0.229528 9.18743C0.229528 9.18743 4.83604 9.55287 4.9434 4.98736H5.28084C5.38821 9.55287 9.99472 9.18743 9.99472 9.18743C9.99472 9.18743 10.235 5.74399 7.35658 4.60647C10.2401 3.4741 9.99472 0.0255141 9.99472 0.0255141C9.99472 0.0255141 9.9078 0.0203668 9.75442 0.0203668C8.80858 0.0203668 5.37287 0.288018 5.28084 4.22558Z" fill="white"/>
</mask>
<g mask="url(#mask0_209_391)">
<path d="M6.07863 -5.40967L15.0616 5.5383L4.14604 14.6179L-4.83691 3.66989L6.07863 -5.40967Z" fill="url(#paint0_linear_209_391)"/>
</g>
<defs>
<linearGradient id="paint0_linear_209_391" x1="-0.448369" y1="-2.16317" x2="15.4053" y2="16.8995" gradientUnits="userSpaceOnUse">
<stop stop-color="#B69B7C"/>
<stop offset="0.9977" stop-color="#7D716A"/>
<stop offset="1" stop-color="#7D716A"/>
</linearGradient>
</defs>
</svg>
