<svg width="18" height="18" viewBox="0 0 18 18" fill="none" xmlns="http://www.w3.org/2000/svg">
<path d="M6.83973 2.16016C3.50832 2.16016 0.719727 4.44953 0.719727 7.38016C0.719727 8.96219 1.5452 10.3248 2.82066 11.2769L1.86441 14.1498L4.84988 12.3006C5.46723 12.4947 6.14926 12.6002 6.83973 12.6002C7.10832 12.6002 7.36988 12.5805 7.63004 12.5509C8.41613 14.0781 10.1979 15.1202 12.2397 15.1202C12.8599 15.1202 13.4336 15.0034 13.9666 14.8445L16.4318 16.2241L15.7441 13.8658C16.6722 13.0952 17.2797 12.0222 17.2797 10.8002C17.2797 8.56422 15.3349 6.78109 12.8697 6.51812C12.3832 4.00516 9.83644 2.16016 6.83973 2.16016ZM6.83973 2.88016C9.47082 2.88016 11.6379 4.44672 12.1329 6.48438C9.42582 6.53359 7.19973 8.40812 7.19973 10.8002C7.19973 11.1672 7.25738 11.5216 7.35723 11.8591C7.18707 11.8731 7.0141 11.8802 6.83973 11.8802C6.15629 11.8802 5.47145 11.7761 4.90754 11.5764L4.74582 11.5202L3.17504 12.4919L3.66723 11.0139L3.44223 10.862C2.18926 10.0155 1.43973 8.80047 1.43973 7.38016C1.43973 4.91078 3.83598 2.88016 6.83973 2.88016ZM4.67973 5.04016C4.28316 5.04016 3.95973 5.36359 3.95973 5.76016C3.95973 6.15672 4.28316 6.48016 4.67973 6.48016C5.07629 6.48016 5.39973 6.15672 5.39973 5.76016C5.39973 5.36359 5.07629 5.04016 4.67973 5.04016ZM8.99973 5.04016C8.60316 5.04016 8.27973 5.36359 8.27973 5.76016C8.27973 6.15672 8.60316 6.48016 8.99973 6.48016C9.39629 6.48016 9.71973 6.15672 9.71973 5.76016C9.71973 5.36359 9.39629 5.04016 8.99973 5.04016ZM12.2397 7.20016C14.6683 7.20016 16.5597 8.83281 16.5597 10.8002C16.5597 11.8647 16.0169 12.7984 15.1211 13.4622L14.92 13.6127L15.2477 14.7362L14.0777 14.0795L13.9258 14.1302C13.4224 14.2989 12.8472 14.4002 12.2397 14.4002C9.81113 14.4002 7.91973 12.7675 7.91973 10.8002C7.91973 8.83281 9.81113 7.20016 12.2397 7.20016ZM10.6197 9.36016C10.3314 9.36016 10.0797 9.61187 10.0797 9.90016C10.0797 10.1884 10.3314 10.4402 10.6197 10.4402C10.908 10.4402 11.1597 10.1884 11.1597 9.90016C11.1597 9.61187 10.908 9.36016 10.6197 9.36016ZM13.8597 9.36016C13.5714 9.36016 13.3197 9.61187 13.3197 9.90016C13.3197 10.1884 13.5714 10.4402 13.8597 10.4402C14.148 10.4402 14.3997 10.1884 14.3997 9.90016C14.3997 9.61187 14.148 9.36016 13.8597 9.36016Z" fill="#7D716A"/>
</svg>
