<?xml version="1.0" encoding="UTF-8"?>
<svg id="Layer_1" data-name="Layer 1" xmlns="http://www.w3.org/2000/svg" viewBox="0 0 48.55 48.55">
  <defs>
    <style>
      .cls-1 {
        fill: #7b90a8;
      }

      .cls-2 {
        fill: none;
        stroke: #7b90a8;
        stroke-linejoin: round;
        stroke-width: .56px;
      }
    </style>
  </defs>
  <g>
    <path class="cls-1" d="m20.79,18.06c2.46-.04,4.93.26,7.35-.24,0,0,.14.33.14.33-1.15.66-2.49.75-3.77.78-1.28-.03-2.54-.15-3.77-.51l.05-.36h0Z"/>
    <path class="cls-1" d="m23.66,15.24c.8.36,1.65.03,2.51.01,0,0,.15.33.15.33-.4.38-.91.58-1.46.64-.54.02-1.27-.13-1.51-.8l.31-.18h0Z"/>
    <g>
      <path class="cls-1" d="m24.38,27.31c-.07,2.09-2.75,2.52-4.29,1.76,0,0,.07-.36.07-.36,1.38-.02,3.19.02,3.85-1.45,0,0,.36.05.36.05h0Z"/>
      <path class="cls-1" d="m24.08,6.21c-.98-.6-2.22-.73-3.33-.52,0,0,.11-.74.11-.74.26.13.52.26.78.51.12.13.28.31.3.62,0,.33-.18.56-.41.7-1.2.62-2.52,1.35-3.45,2.31,0,0-.21-.65-.21-.65.46.07,1.75.69,1.04,1.24-1.43.96-2.29,2.68-2.48,4.38,0,0-.62-.34-.62-.34.57-.4,1.41-1.07,2.07-.32.11.14.07.33-.05.44-1.63,1.91-1.45,4.8,0,6.78,0,0-.59.14-.59.14.12-.6.24-1.26.9-1.54.15-.05.31.02.36.17.48,1.68,1.37,3.46,2.89,4.41,0,0-.37.36-.37.36-.26-.48-.35-1.12-.12-1.65.1-.22.42-.83.69-.44.59.99,1.49,2.17,2.71,2.25,0,0,0,.36,0,.36-1.45-.07-2.41-1.27-3.13-2.39,0,0,.38.05.38.05-.37.43-.35,1.07-.06,1.55.1,1.38-2.29-1.29-2.41-1.68-.51-.82-.9-1.68-1.17-2.62l.38.23s-.07.05-.11.12c-.18.26-.25.58-.3.91-.47,1.07-1.35-1.25-1.53-1.66-.76-1.95-.4-4.24.93-5.87,0,0-.05.44-.05.44.08.11.03.03-.03.05-.07,0-.18.04-.28.08-2.24,1.72-.87-1.82-.39-2.72.5-.88,1.11-1.62,1.98-2.2,0,0-.16.5-.16.5.04.07-.02-.02-.06-.04-.17-.12-.38-.19-.6-.24-.22-.05-.35-.26-.3-.48.91-1.25,2.55-2,3.74-2.68,0,0,0-.02-.02.03,0,.04,0-.01-.06-.07-.2-.27-.97-.42-.71-.91.06-.11.17-.18.28-.2,1.31-.22,2.73.1,3.71,1.03,0,0-.24.27-.24.27h0Z"/>
      <path class="cls-1" d="m24.45,7.79c-1.13.75-2.28,1.54-3.19,2.5-.43.45-.84,1.07-.65,1.4.15.37.84.61,1.44.77.23.05.37.28.31.5-.03.11-.1.2-.19.25-.95.55-1.77,1.31-2.27,2.25-.5.94-.6,2.08-.34,3.16l-.35.12c-1.06-2.34.4-5.07,2.53-6.23,0,0,.12.75.12.75-.36-.09-.72-.18-1.07-.36-3.16-1.87,1.8-4.65,3.48-5.42,0,0,.17.32.17.32h0Z"/>
      <path class="cls-1" d="m24.35,41.11c-2.93-.24-5.28-2.37-7.15-4.46,0,0,.67-.07.67-.07.03-.08,0,.06,0,.11,0,.07,0,.16.01.24.06.54.23,1.08.41,1.6.15.39-.4.72-.67.4-2.12-2.4-3.41-5.29-4.56-8.24,0,0,.67.11.67.11-.04.05-.12.19-.16.31-.17.38-.29.78-.4,1.18-.08.36-.61.38-.72.04-.87-2.08-1.29-5.81-.88-7.3,0-.01-.04-.06-.05-.06-.01,0,.02,0,.02,0,0-.01-.12.08-.2.19-.17.23-.31.54-.44.84-.12.31-.6.2-.59-.12-.07-2.57.11-5.28.99-7.71.9-2.5,2.41-4.83,4.83-6.15,0,0,.32.72.32.72-4.48,2.53-5.68,8.33-5.52,13.12,0,0-.6-.1-.6-.1.23-.73,1.07-2.19,1.84-1.02,0,1.24-.11,2.55.1,3.81.16,1.2.45,2.38.88,3.5,0,0-.73.05-.73.05.14-.47.64-2.67,1.35-1.69,1.09,2.81,2.41,5.71,4.42,7.97,0,0-.67.41-.67.41-.19-.53-1.04-2.98.1-2.81,1.03.98,1.96,2.15,3.13,3,1.08.82,2.28,1.54,3.61,1.76,0,0-.03.36-.03.36h0Z"/>
      <path class="cls-1" d="m24.36,43.13c-2.91-.27-5.91-.42-8.55-1.83,0,0,.47-.42.47-.42.57.89,1.32,1.7,2.04,2.48.13.14.13.37-.02.51-.1.09-.23.12-.35.08-3.06-.91-5.92-2.47-8.19-4.73,0,0,.65-.27.65-.27l.05,2.74c.01.19-.14.36-.33.37-.1,0-.2-.04-.26-.11-.9-1.01-1.57-2.13-2.07-3.34-.97-2.37-1.47-5.62.78-7.43,1.03-.89,2.24-1.45,3.56-1.81l.16.88c-6.67,1.11-5.36,7.29-1.92,11.22,0,0-.59.25-.59.25l-.12-2.74c-.02-.33.41-.52.63-.29,1.08,1.04,2.39,1.92,3.69,2.71,1.31.78,2.72,1.41,4.18,1.87,0,0-.37.59-.37.59-.53-.6-1.1-1.29-1.58-1.94-.17-.23-.33-.44-.49-.72-.19-.29.21-.63.47-.42,2.44,1.31,5.46,1.43,8.19,1.37,0,0-.01.98-.01.98h0Z"/>
      <path class="cls-1" d="m24.37,27.13c1.01,1.43,2.8,1.57,4.42,1.55,0,0,.07.36.07.36-.88.36-1.86.45-2.79.2-.94-.29-1.82-.98-2.04-1.99,0,0,.34-.12.34-.12h0Z"/>
      <path class="cls-1" d="m24.4,7.47c2.31.93,7.36,4.53,2.41,5.78,0,0,.12-.75.12-.75,2.13,1.16,3.59,3.89,2.53,6.23,0,0-.35-.12-.35-.12.6-2.23-.66-4.34-2.61-5.41-.19-.11-.26-.36-.15-.56.06-.1.16-.17.26-.19.6-.16,1.29-.4,1.44-.77.18-.33-.22-.95-.65-1.4-.9-.95-2.05-1.74-3.19-2.5l.17-.32h0Z"/>
      <path class="cls-2" d="m19.21,22.01s-5.92,9.56,9.25,17.02"/>
      <path class="cls-2" d="m29.38,22.01s5.06,6.85-4.44,14.74"/>
    </g>
  </g>
  <path class="cls-1" d="m24.23,5.93c.99-.92,2.4-1.24,3.71-1.03.21.04.36.24.32.45-.07.34-.59.43-.75.66-.06.06-.07.11-.06.07-.02-.06,0-.04-.02-.03,1.18.62,2.62,1.4,3.65,2.5.15.16.14.41-.03.56-.17.14-.44.13-.62.24-.06.03-.12.06-.17.1-.04.02-.1.11-.06.04l-.16-.5c1.67,1.12,2.62,3.03,2.84,4.98.02.21-.13.4-.34.43-.44-.03-.75-.55-1.19-.57-.06-.02-.11.06-.03-.05l-.05-.44c1.33,1.63,1.69,3.92.93,5.87-.18.43-1.06,2.72-1.53,1.66-.05-.33-.12-.65-.3-.91-.03-.07-.15-.14-.11-.12l.38-.23c-.27.94-.66,1.8-1.17,2.62-.52.8-1.19,1.54-2.04,2.04-.13.08-.29.03-.37-.09-.05-.08-.05-.19,0-.27.29-.48.31-1.12-.06-1.55,0,0,.38-.05.38-.05-.72,1.11-1.68,2.32-3.13,2.39,0,0,0-.36,0-.36,1.23-.08,2.13-1.27,2.72-2.26.06-.11.21-.15.32-.09.61.55.62,1.51.25,2.19,0,0-.37-.36-.37-.36.74-.45,1.34-1.13,1.81-1.89.47-.77.84-1.63,1.07-2.49.04-.15.2-.24.35-.2.67.26.8.94.92,1.54,0,0-.59-.14-.59-.14,1.44-1.98,1.63-4.87,0-6.78-.12-.12-.15-.31-.05-.44.66-.75,1.49-.08,2.07.32,0,0-.62.34-.62.34-.19-1.7-1.05-3.42-2.48-4.38-.71-.56.58-1.17,1.04-1.24,0,0-.21.65-.21.65-.93-.97-2.25-1.69-3.45-2.31-.96-.63-.05-1.57.66-1.83,0,0,.11.74.11.74-.56-.1-1.14-.13-1.71-.05-.56.1-1.15.26-1.63.57,0,0-.24-.27-.24-.27h0Z"/>
  <path class="cls-1" d="m24.17,40.75c2.7-.51,4.77-2.65,6.56-4.61.13-.19.4-.23.57-.08.49.79-.06,1.93-.28,2.74,0,0-.67-.41-.67-.41,2.01-2.26,3.33-5.16,4.42-7.97.71-.97,1.21,1.21,1.35,1.69,0,0-.73-.05-.73-.05.44-1.12.73-2.3.88-3.5.22-1.26.11-2.58.1-3.81.76-1.16,1.61.29,1.84,1.02,0,0-.6.1-.6.1.16-4.79-1.04-10.59-5.52-13.12,0,0,.32-.72.32-.72,2.42,1.32,3.92,3.66,4.83,6.15.89,2.43,1.07,5.14.99,7.71,0,.33-.48.42-.59.12-.13-.3-.27-.61-.44-.84-.07-.11-.19-.2-.2-.19,0,0,.03,0,.02,0,0,0-.04.05-.05.06.41,1.5,0,5.21-.88,7.3-.12.34-.65.31-.72-.04-.13-.5-.29-1.07-.56-1.49,0,0,.67-.11.67-.11-1.14,2.95-2.44,5.83-4.56,8.24-.28.32-.83,0-.67-.4.22-.59.45-1.44.42-1.95,0,0,.67.07.67.07-.46.57-.96,1.07-1.49,1.55-1.6,1.4-3.43,2.79-5.66,2.92,0,0-.03-.36-.03-.36h0Z"/>
  <path class="cls-1" d="m24.18,42.15c2.73.06,5.75-.06,8.19-1.37.15-.11.37-.07.47.09.17.4-.33.74-.49,1.05,0,0-.51.66-.51.66-.35.44-.7.86-1.07,1.27l-.37-.59c2.89-.93,5.63-2.52,7.86-4.57.15-.15.4-.16.54,0,.07.08.11.18.1.28l-.12,2.74-.59-.25c.82-.88,1.51-1.96,2-3.1,1.83-4.07.7-7.32-3.92-8.13,0,0,.16-.88.16-.88,2.53.65,5.33,2.5,5.16,5.42-.09,2.65-1.15,5.17-2.9,7.17-.2.24-.61.07-.59-.23.02-.02.04-2.74.06-2.76,0,0,.65.27.65.27-2.28,2.26-5.14,3.82-8.19,4.73-.34.12-.62-.33-.37-.59.72-.78,1.47-1.59,2.04-2.48,0,0,.47.42.47.42-2.64,1.41-5.64,1.56-8.55,1.83,0,0-.01-.98-.01-.98h0Z"/>
</svg>