<svg width="16" height="16" viewBox="0 0 16 16" fill="none" xmlns="http://www.w3.org/2000/svg">
<g clip-path="url(#clip0_1366_2909)">
<path d="M13.8 0.640625C13.4012 0.640625 13.0037 0.796875 12.7 1.10062L12.44 1.36062L14.64 3.56062C14.6387 3.56187 14.9 3.30062 14.9 3.30062C15.5087 2.69187 15.5075 1.70813 14.9 1.10062C14.595 0.796875 14.1987 0.640625 13.8 0.640625ZM11.95 1.93062C11.8775 1.94062 11.81 1.97687 11.76 2.03062L1.37999 12.4206C1.33874 12.4581 1.30749 12.5069 1.28999 12.5606L0.649985 14.9606C0.621235 15.0706 0.653735 15.1869 0.733735 15.2669C0.813735 15.3469 0.929985 15.3794 1.03999 15.3506L3.43999 14.7106C3.49374 14.6931 3.54249 14.6619 3.57999 14.6206L13.97 4.24062C14.0975 4.11687 14.0987 3.91313 13.975 3.78562C13.8512 3.65813 13.6475 3.65687 13.52 3.78062L3.18999 14.1106L1.88999 12.8106L12.22 2.48062C12.3162 2.38813 12.345 2.24437 12.2912 2.12187C12.2375 1.99937 12.1137 1.92313 11.98 1.93062C11.97 1.93062 11.96 1.93062 11.95 1.93062Z" fill="#FFC107"/>
</g>
<defs>
<clipPath id="clip0_1366_2909">
<rect width="16" height="16" fill="white"/>
</clipPath>
</defs>
</svg>
