<?xml version="1.0" encoding="UTF-8"?>
<svg id="Layer_1" data-name="Layer 1" xmlns="http://www.w3.org/2000/svg" viewBox="0 0 48.55 48.55">
  <defs>
    <style>
      .cls-1 {
        fill: #7b90a8;
      }
    </style>
  </defs>
  <path class="cls-1" d="m10.56,41.88c6.45-8.54,13.58-17.24,20.69-25.25,0,0,.38.31.38.31-1.62,2.19-3.3,4.33-4.98,6.47-3.01,3.76-7.26,9.02-10.35,12.62-1.76,2.07-3.54,4.14-5.36,6.16,0,0-.38-.31-.38-.31h0Z"/>
  <path class="cls-1" d="m14.77,36.87c-.98-5.58-1.55-11.23-1.68-16.89,0,0,.49-.05.49-.05.54,2.79.85,5.6,1.16,8.41.25,2.82.5,5.64.52,8.48,0,0-.49.05-.49.05h0Z"/>
  <path class="cls-1" d="m12.18,31.01c-2.55-2.84-3.53-6.88-3.04-10.63.66-3.72,2.73-6.6,2.94-10.57,0,0,.5,0,.5,0,.11,2.8-.59,5.59-1.71,8.15-1.42,4.2-.79,9.05,1.7,12.73,0,0-.39.31-.39.31h0Z"/>
  <path class="cls-1" d="m14.46,32.6c3.14-3.32,3.38-8.58,2-12.74-.51-1.5-1.26-2.64-2.15-4.02-1.09-1.87-1.73-3.91-2.22-5.95,0,0,.47-.14.47-.14.73,1.94,1.48,3.88,2.58,5.57,1.28,1.72,2.34,3.63,2.82,5.73.88,4.13.24,9.13-3.2,11.95,0,0-.31-.38-.31-.38h0Z"/>
  <path class="cls-1" d="m14.99,36.6c5.58-.98,11.23-1.55,16.89-1.68,0,0,.05.49.05.49-2.79.54-5.6.85-8.41,1.16-2.82.25-5.64.5-8.48.52,0,0-.05-.49-.05-.49h0Z"/>
  <path class="cls-1" d="m20.85,34.01c2.84-2.55,6.88-3.53,10.63-3.04,3.72.66,6.6,2.73,10.57,2.94,0,0,0,.5,0,.5-2.8.11-5.59-.59-8.15-1.71-4.2-1.42-9.05-.79-12.73,1.7,0,0-.31-.39-.31-.39h0Z"/>
  <path class="cls-1" d="m19.26,36.28c3.32,3.14,8.58,3.38,12.74,2,1.5-.51,2.64-1.26,4.02-2.15,1.87-1.09,3.91-1.73,5.95-2.21,0,0,.14.47.14.47-1.94.73-3.88,1.48-5.57,2.58-1.72,1.28-3.63,2.34-5.73,2.82-4.13.88-9.13.24-11.94-3.2,0,0,.38-.31.38-.31h0Z"/>
  <path class="cls-1" d="m38.97,8c-1.93,3.47-2.14,7.47-3.3,11.19-2.31,6.1-8.33,11.72-15.2,11.21,0,0,.05-.49.05-.49,6.42-.13,11.84-5.39,14.14-11.09,1.17-3.73,1.61-7.76,3.88-11.07,0,0,.42.26.42.26h0Z"/>
  <path class="cls-1" d="m19.89,27.56c-.11-4.95,2.5-9.68,6.19-12.87,1.85-1.62,4.19-2.72,6.41-3.5,2.18-.85,4.19-2.1,6.11-3.51l.31.38c-.89.82-1.84,1.57-2.84,2.27-2.44,1.75-5.48,2.43-7.89,4.15-4.25,3.01-7.35,7.82-7.79,13.08,0,0-.5,0-.5,0h0Z"/>
  <path class="cls-1" d="m25.21,20.14c.38,1.33.58,2.67.72,4.02l-.62-.51c1.35-.13,2.71-.2,4.09-.08l.05.49c-1.51.44-3.05.63-4.59.78-.15-1.54-.27-3.09-.14-4.65,0,0,.49-.05.49-.05h0Z"/>
  <path class="cls-1" d="m28.32,17.1c.36,1.1.53,2.22.65,3.35l-.62-.51c1.13-.11,2.26-.16,3.41-.02l.05.49c-1.28.43-2.6.58-3.92.71-.12-1.32-.23-2.64-.07-3.98,0,0,.49-.05.49-.05h0Z"/>
</svg>