<svg width="25" height="25" viewBox="0 0 25 25" fill="none" xmlns="http://www.w3.org/2000/svg">
<path d="M3.49219 3.1582H5.49219L5.89219 5.1582M5.89219 5.1582H21.4922L17.4922 13.1582H7.49219M5.89219 5.1582L7.49219 13.1582M7.49219 13.1582L5.19919 15.4512C4.56919 16.0812 5.01519 17.1582 5.90619 17.1582H17.4922M17.4922 17.1582C16.9618 17.1582 16.453 17.3689 16.078 17.744C15.7029 18.1191 15.4922 18.6278 15.4922 19.1582C15.4922 19.6886 15.7029 20.1973 16.078 20.5724C16.453 20.9475 16.9618 21.1582 17.4922 21.1582C18.0226 21.1582 18.5313 20.9475 18.9064 20.5724C19.2815 20.1973 19.4922 19.6886 19.4922 19.1582C19.4922 18.6278 19.2815 18.1191 18.9064 17.744C18.5313 17.3689 18.0226 17.1582 17.4922 17.1582ZM9.49219 19.1582C9.49219 19.6886 9.28147 20.1973 8.9064 20.5724C8.53133 20.9475 8.02262 21.1582 7.49219 21.1582C6.96175 21.1582 6.45305 20.9475 6.07797 20.5724C5.7029 20.1973 5.49219 19.6886 5.49219 19.1582C5.49219 18.6278 5.7029 18.1191 6.07797 17.744C6.45305 17.3689 6.96175 17.1582 7.49219 17.1582C8.02262 17.1582 8.53133 17.3689 8.9064 17.744C9.28147 18.1191 9.49219 18.6278 9.49219 19.1582Z" stroke="black" stroke-width="2" stroke-linecap="round" stroke-linejoin="round"/>
</svg>
