<svg width="15" height="16" viewBox="0 0 15 16" fill="none" xmlns="http://www.w3.org/2000/svg">
<path fill-rule="evenodd" clip-rule="evenodd" d="M10.5505 3.05826H14.1496V11.4295C14.1464 12.6407 13.6639 13.8014 12.8074 14.6578C11.951 15.5142 10.7903 15.9968 9.57916 16H0V3.05826H3.59909C3.70768 2.21301 4.12051 1.43628 4.76035 0.873386C5.40018 0.310492 6.22319 0 7.07538 0C7.92758 0 8.75058 0.310492 9.39042 0.873386C10.0303 1.43628 10.4431 2.21301 10.5517 3.05826H10.5505ZM4.48798 3.08664C4.88499 3.12039 5.27858 3.18645 5.66485 3.28418C6.15361 3.4079 6.62647 3.58757 7.07406 3.81963C7.52185 3.58789 7.99482 3.40848 8.48365 3.28493C8.86992 3.18721 9.26351 3.12115 9.66051 3.0874C9.56131 2.47293 9.24657 1.91386 8.77267 1.51033C8.29877 1.10681 7.69667 0.885194 7.07425 0.885194C6.45182 0.885194 5.84973 1.10681 5.37583 1.51033C4.90193 1.91386 4.58719 2.47293 4.48798 3.0874V3.08664Z" fill="#414141"/>
<path fill-rule="evenodd" clip-rule="evenodd" d="M10.3335 3.55469H13.6049C13.6173 3.55479 13.6292 3.55976 13.6379 3.56854C13.6467 3.57732 13.6517 3.5892 13.6518 3.60161V11.4295C13.6518 13.6697 11.8191 15.5023 9.57932 15.5023H7.07422V4.3872C7.95517 3.87407 9.06354 3.55469 10.3335 3.55469Z" fill="#4F9D4E"/>
<path fill-rule="evenodd" clip-rule="evenodd" d="M3.8144 3.55469H0.543017C0.530602 3.55479 0.518725 3.55976 0.509946 3.56854C0.501168 3.57732 0.496193 3.5892 0.496094 3.60161V15.5023H7.0733V4.3872C6.19273 3.87407 5.08436 3.55469 3.8144 3.55469Z" fill="#60BB55"/>
<path fill-rule="evenodd" clip-rule="evenodd" d="M12.1798 14.5578C11.4508 15.1684 10.5303 15.5033 9.57932 15.5039H7.07422V11.1934C9.33675 11.204 11.2848 12.5787 12.1798 14.5578Z" fill="#60BB55"/>
<path fill-rule="evenodd" clip-rule="evenodd" d="M1.58203 15.5024H7.07243V11.1934H7.0467C4.42808 11.193 2.22533 13.0211 1.58203 15.5024Z" fill="#84C567"/>
<path fill-rule="evenodd" clip-rule="evenodd" d="M4.00294 5.14407C4.65855 5.14421 5.29953 5.33787 5.84554 5.70077C6.39154 6.06368 6.81828 6.57968 7.07225 7.18409C7.32808 6.57489 7.75946 6.05564 8.31145 5.69248C8.86344 5.32933 9.51104 5.13871 10.1717 5.14492C10.8325 5.15113 11.4764 5.35389 12.0214 5.72735C12.5665 6.10082 12.988 6.62809 13.2324 7.242C13.4767 7.8559 13.5327 8.52864 13.3934 9.17451C13.254 9.82038 12.9255 10.4101 12.4497 10.8686C11.974 11.3272 11.3725 11.6337 10.7219 11.7491C10.0714 11.8646 9.40115 11.7837 8.79668 11.5169L8.63434 11.6793L7.32011 12.9935L7.04652 13.2675L6.77179 12.9916L5.45756 11.6774L5.31112 11.5309C4.85667 11.7273 4.36415 11.8199 3.86941 11.8019C3.37467 11.784 2.89017 11.6559 2.45115 11.4271C2.01213 11.1983 1.62965 10.8745 1.33155 10.4793C1.03345 10.084 0.827222 9.62727 0.727884 9.14228C0.628546 8.65728 0.638595 8.15624 0.757299 7.67562C0.876003 7.195 1.10038 6.74689 1.41409 6.36391C1.7278 5.98093 2.12295 5.67272 2.57079 5.4617C3.01863 5.25068 3.50788 5.14217 4.00294 5.14407ZM7.4624 10.4464C7.30576 10.2339 7.1748 10.0036 7.07225 9.76033C6.97195 9.99927 6.84392 10.2256 6.69081 10.4347C6.94643 10.3897 7.20827 10.3936 7.4624 10.4464Z" fill="#414141"/>
<path d="M10.1427 11.3004C11.7057 11.3004 12.9728 10.0333 12.9728 8.47029C12.9728 6.90724 11.7057 5.64014 10.1427 5.64014C8.5796 5.64014 7.3125 6.90724 7.3125 8.47029C7.3125 10.0333 8.5796 11.3004 10.1427 11.3004Z" fill="white"/>
<path d="M4.00593 11.3004C5.56899 11.3004 6.83609 10.0333 6.83609 8.47029C6.83609 6.90724 5.56899 5.64014 4.00593 5.64014C2.44288 5.64014 1.17578 6.90724 1.17578 8.47029C1.17578 10.0333 2.44288 11.3004 4.00593 11.3004Z" fill="white"/>
<path fill-rule="evenodd" clip-rule="evenodd" d="M4.31648 6.68164C4.70996 6.68181 5.09241 6.81174 5.40456 7.0513C5.71671 7.29087 5.94113 7.6267 6.04306 8.00675C6.14499 8.3868 6.11874 8.78986 5.96836 9.15348C5.81799 9.51709 5.55189 9.82097 5.2113 10.018C4.8707 10.2151 4.47463 10.2943 4.08445 10.2434C3.69427 10.1925 3.33177 10.0144 3.0531 9.73655C2.77444 9.45874 2.59518 9.09679 2.54309 8.70677C2.491 8.31675 2.56899 7.92044 2.76498 7.57924C2.80714 7.70402 2.8769 7.81769 2.96906 7.91179C3.06122 8.00589 3.17341 8.078 3.29729 8.12275C3.42117 8.1675 3.55354 8.18374 3.68456 8.17027C3.81559 8.15679 3.94188 8.11394 4.05406 8.04491C4.16623 7.97587 4.26139 7.88243 4.33247 7.77154C4.40354 7.66065 4.44869 7.53516 4.46456 7.4044C4.48044 7.27365 4.46662 7.141 4.42414 7.01633C4.38167 6.89165 4.31162 6.77816 4.21923 6.68429C4.25177 6.68278 4.28393 6.68164 4.31648 6.68164Z" fill="#414141"/>
<path fill-rule="evenodd" clip-rule="evenodd" d="M9.76928 6.68164C10.1626 6.6819 10.5448 6.81185 10.8567 7.05135C11.1687 7.29085 11.3929 7.62653 11.4948 8.0064C11.5966 8.38627 11.5703 8.78911 11.42 9.15253C11.2697 9.51595 11.0037 9.81966 10.6633 10.0166C10.3229 10.2135 9.92701 10.2927 9.53703 10.2419C9.14705 10.1911 8.78472 10.013 8.50616 9.73541C8.22761 9.45778 8.04838 9.09605 7.99625 8.70624C7.94411 8.31643 8.02198 7.92031 8.21779 7.57924C8.25978 7.70429 8.32945 7.81824 8.42161 7.91261C8.51378 8.00698 8.62606 8.07933 8.75008 8.12426C8.8741 8.1692 9.00666 8.18555 9.13788 8.17212C9.26911 8.15868 9.3956 8.1158 9.50794 8.04666C9.62028 7.97753 9.71557 7.88392 9.78669 7.77283C9.85782 7.66174 9.90295 7.53603 9.91873 7.40507C9.9345 7.27411 9.92051 7.14127 9.87779 7.01647C9.83508 6.89167 9.76474 6.77812 9.67203 6.68429C9.7042 6.68278 9.73674 6.68164 9.76928 6.68164Z" fill="#414141"/>
<path fill-rule="evenodd" clip-rule="evenodd" d="M7.04688 10.7888C7.56379 10.7888 8.03075 11.0249 8.3611 11.4037L7.04688 12.718V10.7888Z" fill="#FFC868"/>
<path fill-rule="evenodd" clip-rule="evenodd" d="M7.04898 12.718L5.73438 11.4037C6.06511 11.0253 6.53169 10.7888 7.04898 10.7888V12.718Z" fill="#FCF5AE"/>
</svg>
