<svg width="512" height="512" viewBox="0 0 512 512" fill="none" xmlns="http://www.w3.org/2000/svg">
<g clip-path="url(#clip0_334_411)">
<path d="M362.667 512H149.333C90.5173 512 42.6667 464.149 42.6667 405.333V106.667C42.6667 47.8507 90.5173 0 149.333 0H362.667C421.483 0 469.333 47.8507 469.333 106.667V405.333C469.333 464.149 421.483 512 362.667 512ZM149.333 42.6667C114.048 42.6667 85.3333 71.3813 85.3333 106.667V405.333C85.3333 440.619 114.048 469.333 149.333 469.333H362.667C397.952 469.333 426.667 440.619 426.667 405.333V106.667C426.667 71.3813 397.952 42.6667 362.667 42.6667H149.333ZM384 128C384 116.224 374.443 106.667 362.667 106.667H277.333C265.557 106.667 256 116.224 256 128C256 139.776 265.557 149.333 277.333 149.333H362.667C374.443 149.333 384 139.776 384 128ZM384 256C384 244.224 374.443 234.667 362.667 234.667H277.333C265.557 234.667 256 244.224 256 256C256 267.776 265.557 277.333 277.333 277.333H362.667C374.443 277.333 384 267.776 384 256ZM384 384C384 372.224 374.443 362.667 362.667 362.667H277.333C265.557 362.667 256 372.224 256 384C256 395.776 265.557 405.333 277.333 405.333H362.667C374.443 405.333 384 395.776 384 384ZM213.333 149.333V106.667C213.333 94.8907 203.776 85.3333 192 85.3333H149.333C137.557 85.3333 128 94.8907 128 106.667V149.333C128 161.109 137.557 170.667 149.333 170.667H192C203.776 170.667 213.333 161.109 213.333 149.333ZM213.333 277.333V234.667C213.333 222.891 203.776 213.333 192 213.333H149.333C137.557 213.333 128 222.891 128 234.667V277.333C128 289.109 137.557 298.667 149.333 298.667H192C203.776 298.667 213.333 289.109 213.333 277.333ZM213.333 405.333V362.667C213.333 350.891 203.776 341.333 192 341.333H149.333C137.557 341.333 128 350.891 128 362.667V405.333C128 417.109 137.557 426.667 149.333 426.667H192C203.776 426.667 213.333 417.109 213.333 405.333Z" fill="#C1AE94"/>
</g>
<defs>
<clipPath id="clip0_334_411">
<rect width="512" height="512" fill="white"/>
</clipPath>
</defs>
</svg>
