<svg width="28" height="24" viewBox="0 0 28 24" fill="none" xmlns="http://www.w3.org/2000/svg">
<g clip-path="url(#clip0_2543_1353)">
<path d="M18.9316 21.6C18.9316 22.92 20.2036 24 21.7583 24C23.313 24 24.5849 22.92 24.5849 21.6C24.5849 20.28 23.313 19.2 21.7583 19.2C20.2036 19.2 18.9316 20.28 18.9316 21.6ZM27.4115 15.6C27.4115 14.16 26.2808 12.84 24.7262 12.24L27.4115 3.84C27.5528 3.24 27.1288 2.52 26.4222 2.4C26.2809 2.4 26.1395 2.4 25.9982 2.4H6.63584L6.21184 0.84C5.92917 0.36 5.50519 0 4.79853 0H1.97191C1.12391 0 0.558594 0.48 0.558594 1.2C0.558594 1.92 1.12391 2.4 1.97191 2.4H3.66788L7.20116 13.56C7.34249 14.04 7.90781 14.4 8.61447 14.4H23.1716C24.0196 14.4 24.5849 14.88 24.5849 15.6C24.5849 16.32 24.0196 16.8 23.1716 16.8H4.79853C3.95054 16.8 3.38522 17.28 3.38522 18C3.38522 18.72 3.95054 19.2 4.79853 19.2H10.4518H21.7583H23.1716C25.5742 19.2 27.4115 17.64 27.4115 15.6ZM7.62516 21.6C7.62516 22.92 8.89713 24 10.4518 24C12.0065 24 13.2784 22.92 13.2784 21.6C13.2784 20.28 12.0065 19.2 10.4518 19.2C8.89713 19.2 7.62516 20.28 7.62516 21.6Z" fill="#B69B78" fill-opacity="0.45"/>
</g>
<defs>
<clipPath id="clip0_2543_1353">
<rect width="28" height="24" fill="white"/>
</clipPath>
</defs>
</svg>
