<svg width="17" height="17" viewBox="0 0 17 17" fill="none" xmlns="http://www.w3.org/2000/svg">
<path d="M13.6826 9.12947H2.31741C2.25796 9.12915 2.19962 9.14557 2.14912 9.17684C2.09862 9.20812 2.058 9.25297 2.03194 9.30625C2.00588 9.35952 1.99544 9.41905 2.00182 9.47797C2.0082 9.5369 2.03114 9.59284 2.068 9.63934L7.7506 16.8782C7.78011 16.9161 7.81792 16.9468 7.86115 16.9679C7.90437 16.989 7.95187 17 8 17C8.04813 17 8.09563 16.989 8.13885 16.9679C8.18208 16.9468 8.21989 16.9161 8.2494 16.8782L13.932 9.63934C13.9689 9.59284 13.9918 9.5369 13.9982 9.47797C14.0046 9.41905 13.9941 9.35952 13.9681 9.30625C13.942 9.25297 13.9014 9.20812 13.8509 9.17684C13.8004 9.14557 13.742 9.12915 13.6826 9.12947ZM8 16.1732L2.96459 9.75894H13.0512L8 16.1732ZM2.31741 7.87053H13.6826C13.742 7.87085 13.8004 7.85443 13.8509 7.82316C13.9014 7.79188 13.942 7.74703 13.9681 7.69375C13.9941 7.64048 14.0046 7.58095 13.9982 7.52203C13.9918 7.4631 13.9689 7.40716 13.932 7.36066L8.2494 0.121769C8.21989 0.0838608 8.18208 0.0531816 8.13885 0.0320767C8.09563 0.0109718 8.04813 0 8 0C7.95187 0 7.90437 0.0109718 7.86115 0.0320767C7.81792 0.0531816 7.78011 0.0838608 7.7506 0.121769L2.068 7.36066C2.03114 7.40716 2.0082 7.4631 2.00182 7.52203C1.99544 7.58095 2.00588 7.64048 2.03194 7.69375C2.058 7.74703 2.09862 7.79188 2.14912 7.82316C2.19962 7.85443 2.25796 7.87085 2.31741 7.87053ZM8 0.826774L13.0512 7.24106H8.00789H2.96459L8 0.826774Z" fill="#7D716A"/>
</svg>
