<svg width="24" height="24" viewBox="0 0 24 24" fill="none" xmlns="http://www.w3.org/2000/svg">
<path d="M1.5 22.875H5.0865C5.18595 22.875 5.28134 22.8355 5.35167 22.7652C5.42199 22.6949 5.4615 22.5995 5.4615 22.5V21.8288H8.139C8.23845 21.8288 8.33384 21.7893 8.40417 21.7189C8.47449 21.6486 8.514 21.5532 8.514 21.4538V21.2176L14.043 22.053H17.5178C17.5671 22.053 17.6159 22.0433 17.6615 22.0244C17.707 22.0055 17.7484 21.9777 17.7832 21.9428L22.3088 17.418C22.5076 17.2191 22.6606 16.9792 22.7573 16.715C22.854 16.4509 22.8919 16.1688 22.8684 15.8885C22.8449 15.6083 22.7606 15.3365 22.6213 15.0921C22.4821 14.8477 22.2912 14.6366 22.062 14.4736C21.6736 14.2117 21.2055 14.0951 20.7396 14.1443C20.2738 14.1933 19.8402 14.405 19.515 14.742L17.3625 16.8946H15.8168C15.7236 16.0927 15.3393 15.3529 14.7368 14.8157C14.1343 14.2784 13.3555 13.9811 12.5482 13.98C12.523 13.9799 12.4979 13.9824 12.4732 13.9876L8.51475 14.793V14.5786C8.51475 14.4791 8.47524 14.3837 8.40491 14.3134C8.33459 14.2431 8.23921 14.2036 8.13975 14.2036H5.46225V13.533C5.46225 13.4336 5.42274 13.3382 5.35241 13.2679C5.28209 13.1975 5.18671 13.158 5.08725 13.158H1.5C1.40055 13.158 1.30516 13.1975 1.23483 13.2679C1.16451 13.3382 1.125 13.4336 1.125 13.533V22.5C1.125 22.5995 1.16451 22.6949 1.23483 22.7652C1.30516 22.8355 1.40055 22.875 1.5 22.875ZM12.585 14.73C13.1856 14.7404 13.763 14.9636 14.2144 15.3598C14.6659 15.756 14.962 16.2996 15.0502 16.8938H12.4732C12.3738 16.8938 12.2784 16.9333 12.2081 17.0036C12.1377 17.074 12.0982 17.1694 12.0982 17.2688C12.0982 17.3682 12.1377 17.4636 12.2081 17.5339C12.2784 17.6043 12.3738 17.6438 12.4732 17.6438H17.517C17.5663 17.6439 17.6151 17.6343 17.6607 17.6154C17.7062 17.5967 17.7476 17.5691 17.7825 17.5343L20.0452 15.2723C20.2445 15.0607 20.5117 14.9259 20.8002 14.8912C21.0887 14.8565 21.3803 14.9243 21.624 15.0826C21.7649 15.1821 21.8824 15.3113 21.9682 15.461C22.054 15.6107 22.1061 15.7773 22.1208 15.9492C22.1355 16.1212 22.1126 16.2942 22.0534 16.4564C21.9943 16.6185 21.9004 16.7657 21.7785 16.8878L17.3618 21.303L14.0992 21.3076L8.51475 20.4593V15.558L12.585 14.73ZM7.76475 14.9536V21.0788H5.46225V14.9543L7.76475 14.9536ZM1.875 13.908H4.7115V22.125H1.875V13.908ZM6.9375 10.842H19.5C19.5994 10.842 19.6948 10.8025 19.7652 10.7322C19.8355 10.6619 19.875 10.5665 19.875 10.467V4.53979C19.875 4.44033 19.8355 4.34495 19.7652 4.27463C19.6948 4.2043 19.5994 4.16479 19.5 4.16479H6.9375C6.83805 4.16479 6.74266 4.2043 6.67233 4.27463C6.60201 4.34495 6.5625 4.44033 6.5625 4.53979V10.467C6.5625 10.5665 6.60201 10.6619 6.67233 10.7322C6.74266 10.8025 6.83805 10.842 6.9375 10.842ZM7.3125 4.91479H19.125V10.092H7.3125V4.91479Z" fill="#7D716A"/>
<path d="M13.2188 5.90991C12.9035 5.90991 12.5954 6.0034 12.3333 6.17856C12.0711 6.35372 11.8669 6.60267 11.7463 6.89393C11.6256 7.1852 11.5941 7.50568 11.6557 7.81486C11.7172 8.12404 11.8691 8.40802 12.0921 8.63089C12.315 8.85375 12.5991 9.00547 12.9083 9.06684C13.2175 9.1283 13.538 9.09658 13.8291 8.9759C14.1204 8.85512 14.3692 8.65078 14.5443 8.38855C14.7193 8.12636 14.8126 7.81815 14.8125 7.50291C14.8121 7.08034 14.644 6.67519 14.3452 6.37639C14.0464 6.07759 13.6413 5.91031 13.2188 5.90991ZM13.2188 8.34741C13.0519 8.34741 12.8888 8.29795 12.7501 8.20526C12.6113 8.11259 12.5031 7.98085 12.4393 7.82672C12.3754 7.67259 12.3586 7.50298 12.3912 7.33933C12.4237 7.17568 12.5039 7.02534 12.6219 6.9073C12.7398 6.78927 12.8901 6.70886 13.0537 6.67622C13.2173 6.64358 13.3869 6.66018 13.5411 6.72392C13.6953 6.78767 13.8272 6.8957 13.9199 7.03436C14.0127 7.17301 14.0624 7.33606 14.0625 7.50291C14.0621 7.72657 13.9731 7.94095 13.8149 8.0991C13.6568 8.25724 13.4424 8.34702 13.2188 8.34741Z" fill="#7D716A"/>
</svg>
