<?xml version="1.0" encoding="UTF-8"?>
<svg id="Layer_1" data-name="Layer 1" xmlns="http://www.w3.org/2000/svg" viewBox="0 0 48.55 48.55">
  <defs>
    <style>
      .cls-1 {
        fill: #7b90a8;
      }
    </style>
  </defs>
  <g id="g5266">
    <g id="g5229">
      <g id="path5225">
        <path class="cls-1" d="m21.67,31.93c1.57-.03,7.39-.18,8.86-.18.07,0,.06-.01.09-.03.03-.06.04.01-.06-.36-1.6-5.92-4.47-16.95-5.93-22.87,0,0-.36-1.43-.36-1.43,0,0,.01,0,0,0,0,0-.03.1-.03.1-.6,2.31-2.09,7.83-2.73,10.19,0,0-1.82,6.5-1.82,6.5l-.48-.12c.74-3.28,2.3-9.88,3.1-13.14.08-.31.87-3.56.94-3.8.32-1.15,1.95-.97,2.09.21,1.3,4.86,4.04,15.86,5.28,20.86,0,0,.79,3.28.79,3.28.03.16.08.21.1.53.01.52-.5.99-.99.95-1.43,0-7.33-.15-8.86-.18,0,0,0-.49,0-.49h0Z"/>
      </g>
      <g id="path5227">
        <path class="cls-1" d="m24.04,38.98c-.43-3.49-.44-6.98,0-10.47,0,0,.49,0,.49,0,.25,1.74.31,3.49.32,5.23-.01,1.74-.07,3.49-.32,5.23,0,0-.49,0-.49,0h0Z"/>
      </g>
    </g>
    <g id="g5255">
      <g id="path5231">
        <path class="cls-1" d="m14.86,15.15c-.14.01-.16.06-.24.41l-.2.82-.41,1.65c-.53,2.07-1.86,7.74-2.37,9.9-.09.38-1.72,7.35-1.76,7.43-.05.19.03-.05-.11-.05,2.43-.02,6.03-.05,8.47-.01,0,0,1.7.01,1.7.01-.02,0-.07.02-.08.05,0,.01-.01.03-.02.05,0,0,.01.08-.01-.03l-.2-.82c-.78-3.29-2.34-9.92-3.11-13.21-.26-1.06-.96-3.91-1.22-4.94,0,0-.2-.82-.2-.82-.07-.34-.1-.41-.23-.42h0Zm0-.49c.74.02.7.95.93,1.61.27,1.02,1.01,3.86,1.28,4.92.89,3.26,2.67,9.83,3.55,13.1.08.46.46,1.19.1,1.65-.17.27-.5.44-.8.43,0,0-1.7.01-1.7.01l-3.39.02-3.39-.02h-1.71c-.32-.02-.63-.2-.79-.47-.32-.47.04-1.17.13-1.63.89-3.26,2.67-9.83,3.55-13.1.28-1.06,1.01-3.89,1.28-4.92.22-.66.18-1.6.95-1.6h0Z"/>
      </g>
      <g id="path5233">
        <path class="cls-1" d="m14.61,38.98c-.43-2.26-.44-4.54,0-6.8,0,0,.49,0,.49,0,.44,2.26.43,4.54,0,6.8,0,0-.49,0-.49,0h0Z"/>
      </g>
    </g>
    <g id="g5251">
      <g id="path5245">
        <path class="cls-1" d="m28.7,34.33s-.14.66-.14.66l-.07.33c-.03.14,0,.15.08.2.13,0,.76-.01.91-.02,2.11-.06,6.68-.14,8.83-.17.05,0,.45,0,.47,0-.04,0-.07.02-.08.06-.01,0,.01.11-.03-.06l-.17-.66c-1.3-5.05-3.73-14.37-4.81-19.3.03,0,.05-.03.05-.03-.09.39-.77,2.83-.89,3.28,0,0-1.49,5.23-1.49,5.23,0,0-.48-.12-.48-.12.46-2.1,1.46-6.56,1.96-8.61.14-.75,1.28-.94,1.65-.23.16.38.22.74.33,1.09,1.36,5.18,3.63,13.96,4.86,19.09.21.48-.16,1.25-.81,1.27-.34,0-.89-.01-1.23-.02-1.8-.03-6.41-.1-8.15-.16-.28-.03-.85.02-1.12-.07-.57-.24-.5-.78-.32-1.24,0,0,.19-.65.19-.65,0,0,.48.12.48.12h0Z"/>
      </g>
      <g id="path5247">
        <path class="cls-1" d="m33.46,38.98c-.43-2.26-.44-4.54,0-6.8,0,0,.49,0,.49,0,.44,2.26.43,4.54,0,6.8,0,0-.49,0-.49,0h0Z"/>
      </g>
    </g>
  </g>
</svg>