<svg width="16" height="16" viewBox="0 0 16 16" fill="none" xmlns="http://www.w3.org/2000/svg">
<path d="M7.99996 10.6656C9.47216 10.6656 10.6656 9.4721 10.6656 7.9999C10.6656 6.52769 9.47216 5.33423 7.99996 5.33423C6.52775 5.33423 5.33429 6.52769 5.33429 7.9999C5.33429 9.4721 6.52775 10.6656 7.99996 10.6656Z" fill="#B69B78"/>
<path d="M15.5112 6.27989C14.4776 4.59651 12.1265 1.77222 7.99998 1.77222C3.87352 1.77222 1.52239 4.59651 0.488772 6.27989C-0.162924 7.33397 -0.162924 8.66585 0.488772 9.71995C1.52239 11.4033 3.87352 14.2276 7.99998 14.2276C12.1265 14.2276 14.4776 11.4033 15.5112 9.71995C16.1629 8.66585 16.1629 7.33397 15.5112 6.27989ZM7.99998 11.9984C5.79168 11.9984 4.00147 10.2082 4.00147 7.99991C4.00147 5.7916 5.79168 4.00139 7.99998 4.00139C10.2083 4.00139 11.9985 5.7916 11.9985 7.99991C11.9963 10.2073 10.2074 11.9962 7.99998 11.9984Z" fill="#B69B78"/>
</svg>
