<svg width="32" height="32" viewBox="0 0 32 32" fill="none" xmlns="http://www.w3.org/2000/svg">
<path fill-rule="evenodd" clip-rule="evenodd" d="M5.5 4C4.11867 4 3 5.12 3 6.5V24C3 25.0609 3.42143 26.0783 4.17157 26.8284C4.92172 27.5786 5.93913 28 7 28H27C25.9391 28 24.9217 27.5786 24.1716 26.8284C23.4214 26.0783 23 25.0609 23 24V6.5C23 5.11867 21.88 4 20.5 4H5.5ZM16 13C15.7348 13 15.4804 13.1054 15.2929 13.2929C15.1054 13.4804 15 13.7348 15 14C15 14.2652 15.1054 14.5196 15.2929 14.7071C15.4804 14.8946 15.7348 15 16 15H18C18.2652 15 18.5196 14.8946 18.7071 14.7071C18.8946 14.5196 19 14.2652 19 14C19 13.7348 18.8946 13.4804 18.7071 13.2929C18.5196 13.1054 18.2652 13 18 13H16ZM15 10C15 9.73478 15.1054 9.48043 15.2929 9.29289C15.4804 9.10536 15.7348 9 16 9H18C18.2652 9 18.5196 9.10536 18.7071 9.29289C18.8946 9.48043 19 9.73478 19 10C19 10.2652 18.8946 10.5196 18.7071 10.7071C18.5196 10.8946 18.2652 11 18 11H16C15.7348 11 15.4804 10.8946 15.2929 10.7071C15.1054 10.5196 15 10.2652 15 10ZM8 17C7.73478 17 7.48043 17.1054 7.29289 17.2929C7.10536 17.4804 7 17.7348 7 18C7 18.2652 7.10536 18.5196 7.29289 18.7071C7.48043 18.8946 7.73478 19 8 19H18C18.2652 19 18.5196 18.8946 18.7071 18.7071C18.8946 18.5196 19 18.2652 19 18C19 17.7348 18.8946 17.4804 18.7071 17.2929C18.5196 17.1054 18.2652 17 18 17H8ZM7 22C7 21.7348 7.10536 21.4804 7.29289 21.2929C7.48043 21.1054 7.73478 21 8 21H18C18.2652 21 18.5196 21.1054 18.7071 21.2929C18.8946 21.4804 19 21.7348 19 22C19 22.2652 18.8946 22.5196 18.7071 22.7071C18.5196 22.8946 18.2652 23 18 23H8C7.73478 23 7.48043 22.8946 7.29289 22.7071C7.10536 22.5196 7 22.2652 7 22ZM8 9C7.73478 9 7.48043 9.10536 7.29289 9.29289C7.10536 9.48043 7 9.73478 7 10V14C7 14.552 7.448 15 8 15H12C12.2652 15 12.5196 14.8946 12.7071 14.7071C12.8946 14.5196 13 14.2652 13 14V10C13 9.73478 12.8946 9.48043 12.7071 9.29289C12.5196 9.10536 12.2652 9 12 9H8Z" fill="#B69B78" fill-opacity="0.45"/>
<path d="M25 9H27.5C28.328 9 29 9.672 29 10.5V24C29 24.5304 28.7893 25.0391 28.4142 25.4142C28.0391 25.7893 27.5304 26 27 26C26.4696 26 25.9609 25.7893 25.5858 25.4142C25.2107 25.0391 25 24.5304 25 24V9Z" fill="#B69B78" fill-opacity="0.45"/>
</svg>
