<?xml version="1.0" encoding="UTF-8"?>
<svg id="Layer_1" data-name="Layer 1" xmlns="http://www.w3.org/2000/svg" viewBox="0 0 48.55 48.55">
  <defs>
    <style>
      .cls-1, .cls-2 {
        fill: #7b90a8;
      }

      .cls-2 {
        fill-rule: evenodd;
      }
    </style>
  </defs>
  <path class="cls-2" d="m22.3,24.31c-1.15.33-2.33.61-3.53.84,3.6,1.61,7.78,1.81,11.56.67.28-.08.56-.17.83-.27-3.02-.17-5.98-.58-8.86-1.24m9.26-4.23c-.94.61-1.88,1.16-2.85,1.66,2.83-.17,5.63-.9,8.27-1.88l.37-.14.28.74-.37.14c-3.57,1.33-7,2.03-10.24,1.96-1.04.47-2.11.89-3.19,1.26,2.93.59,5.95.91,9.03,1,2.96-1.44,5.36-3.7,7.1-6.49-2.76.8-5.55,1.4-8.41,1.74Zm-11.69-.02c.51.26,1.04.49,1.59.69,1.74.65,3.55.97,5.39,1.03.98-.45,1.95-.95,2.9-1.51-.48.04-.96.07-1.44.1-2.84.15-5.65.04-8.44-.3Zm14.42-6.5c2.39-3.03,1.4-5.79-1.14-8.44-.11,2.8-3.85,4.8-.33,8.41.76-1.17.93-2.6.51-4.3.74,1.17,1.08,2.6.96,4.33Zm2.15,3.35c3.86-.15,5.31-2.7,5.68-6.34-2.2,1.73-6.14.18-6.61,5.2,1.38-.18,2.58-.98,3.6-2.4-.42,1.32-1.28,2.51-2.67,3.54Zm-6.74,9.91c-4.1,1.01-8.54.56-12.27-1.43-1.59.25-3.23.42-4.92.52l-.4.02-.05-.79.4-.02c1.32-.08,2.61-.2,3.87-.37-.68-.44-1.33-.93-1.93-1.47l-.29-.27.53-.59.29.27c.6.54,1.25,1.03,1.94,1.47.23.14.46.28.69.41,1.06-.17,2.11-.39,3.13-.64-3.47-.93-6.82-2.24-10.02-3.99-1.39.17-2.54.65-3.46,1.39,1.63-.61,3.08-.61,4.33,0-3.18,3.91-5.59.43-8.39.65,1.72-2.08,3.61-3.34,5.8-3.04-1.12-.68-2.21-1.41-3.29-2.21l-.32-.24.47-.64.32.24c4.96,3.66,10.38,6.05,16.13,7.41,1.02-.3,2.02-.64,3-1.04-2.67-.3-5.18-1.17-7.51-2.69-2.36-.38-4.7-.93-7.02-1.61l-.38-.11.22-.76.38.11c1.76.52,3.54.96,5.33,1.3-1.4-1.13-2.73-2.52-3.97-4.2l-.24-.32.64-.47.24.32c1.44,1.95,3.12,3.66,5.09,4.98,3.36.54,6.77.74,10.21.56,1.01-.05,2.02-.14,3.01-.25,1.23-.81,2.44-1.71,3.63-2.72l.3-.26.51.61-.3.26c-.79.67-1.6,1.3-2.41,1.88,2.55-.39,5.06-.98,7.53-1.74.35-.65.67-1.32.96-2.01l.15-.37.73.3-.15.37c-.19.47-.4.92-.62,1.37.54-.18,1.08-.36,1.62-.56l.37-.13.27.75-.37.13c-.8.29-1.61.56-2.42.81-1.62,2.87-4.68,5.66-6.69,6.91-2.01,1.24-4.69,1.91-4.69,1.91Z"/>
  <g>
    <path class="cls-1" d="m34,33.22c1.08-1.06,2.49-1.5,3.83-2.11.23-.13.82-.21,1.15-.15,1.21.05,1.87,1.43,2.27,2.28,0,0,.19.35.19.35,0,0-.36.22-.36.22-4.18,2.53-8.6,5.32-12.87,7.71-.78.33-1.72.32-2.46.09-2.49-.92-4.97-1.84-7.44-2.8-.38-.15-1.24-.19-1.79.05-1.94.71-3.94,1.46-5.73,2.5,0,0-.25-.39-.25-.39,1.19-.8,2.47-1.43,3.75-2.03,1.32-.58,2.83-1.45,4.31-.95,2.51.86,5,1.76,7.49,2.66.74.25,1.81.02,2.58-.57,3.87-2.31,8.07-4.8,11.96-7.04,0,0-.17.57-.17.57-.44-.85-.64-1.74-1.59-1.89-.29-.04-.57-.02-.8.09-1.24.45-2.69.84-3.73,1.68,0,0-.36-.28-.36-.28h0Z"/>
    <path class="cls-1" d="m9.37,35.48c2.79-2.02,5.8-3.68,8.99-5,.71-.23,1.46-.28,2.2-.23,1.47.11,4.44,1.42,5.86,1.84,0,0-.17-.03-.17-.03l4.42.02c.91-.09,1.94.52,2.19,1.44.41,1.2-.51,2.55-1.76,2.62-.42.02-1.27-.02-1.69,0-2.09.05-4.52-.04-6.53.36,0,0-.13-.44-.13-.44,2.13-.59,4.47-.65,6.65-.78.48-.05,1.62.04,1.99-.17.47-.22.71-.81.55-1.28-.19-.55-.67-.79-1.26-.74,0,0-4.42.02-4.42.02h-.09s-.08-.03-.08-.03l-3.78-1.37c-1.16-.52-2.54-.64-3.6-.34-3.14,1.19-6.2,2.72-9.07,4.5,0,0-.26-.38-.26-.38h0Z"/>
  </g>
</svg>