<?xml version="1.0" encoding="UTF-8" standalone="no"?><!DOCTYPE svg PUBLIC "-//W3C//DTD SVG 1.1//EN" "http://www.w3.org/Graphics/SVG/1.1/DTD/svg11.dtd"><svg width="100%" height="100%" viewBox="0 0 6 6" version="1.1" xmlns="http://www.w3.org/2000/svg" xmlns:xlink="http://www.w3.org/1999/xlink" xml:space="preserve" xmlns:serif="http://www.serif.com/" style="fill-rule:evenodd;clip-rule:evenodd;stroke-linejoin:round;stroke-miterlimit:2;"><path d="M2.869,2.37l-0.191,0c-0.061,-2.572 -2.675,-2.366 -2.675,-2.366c-0,0 -0.136,1.942 1.498,2.581l-0,0c-1.634,0.639 -1.498,2.581 -1.498,2.581c-0,-0 2.614,0.206 2.675,-2.366l0.191,-0c0.061,2.572 2.675,2.366 2.675,2.366c-0,-0 0.136,-1.942 -1.498,-2.581l0,-0c1.634,-0.639 1.498,-2.581 1.498,-2.581c-0,0 -0.05,-0.004 -0.136,-0.004c-0.537,0 -2.487,0.153 -2.539,2.37Zm2.325,-2.046c-0.27,1.937 -1.941,2.03 -1.941,2.03c0.073,-1.893 1.941,-2.03 1.941,-2.03Zm-4.842,-0c-0,-0 1.869,0.137 1.941,2.03c0,0 -1.67,-0.093 -1.941,-2.03Zm2.901,2.492c0,-0 1.671,0.093 1.941,2.03c0,0 -1.868,-0.137 -1.941,-2.03Zm-0.96,-0c-0.072,1.893 -1.941,2.03 -1.941,2.03c0.271,-1.937 1.941,-2.03 1.941,-2.03Z" style="fill:url(#_Radial1);fill-rule:nonzero;"/><defs><radialGradient id="_Radial1" cx="0" cy="0" r="1" gradientUnits="userSpaceOnUse" gradientTransform="matrix(5.43579,4.95045,-4.95045,5.43579,3.75594,1.22859)"><stop offset="0" style="stop-color:#d6bea0;stop-opacity:1"/><stop offset="1" style="stop-color:#857056;stop-opacity:1"/><stop offset="1" style="stop-color:#857056;stop-opacity:1"/></radialGradient></defs></svg>