<svg width="14" height="14" viewBox="0 0 14 14" fill="none" xmlns="http://www.w3.org/2000/svg">
<g clip-path="url(#clip0_2082_2110)">
<path d="M3.03408 5.06626L3.03406 5.32002L5.06187 6.33939V6.12502C5.06218 6.08072 5.07565 6.03752 5.10058 6.0009C5.12551 5.96428 5.16077 5.93591 5.20187 5.91939C5.20187 5.91939 10.3783 3.08559 10.8434 2.83283L9.02562 1.9097C9.02562 1.9097 3.16571 4.9963 3.03408 5.06626ZM7.21437 7.54252C7.15378 7.83539 7.2467 12.8926 7.22528 13.0572L12.9806 10.1675C13.0169 10.1496 13.0474 10.1218 13.0687 10.0874C13.0899 10.053 13.1011 10.0133 13.1009 9.97284V4.61564L7.21437 7.54252ZM12.9806 4.3072C13.0173 4.28803 13.0478 4.2589 13.0687 4.22314C13.0895 4.18739 13.0999 4.14648 13.0985 4.10511C13.0971 4.06374 13.0841 4.0236 13.0609 3.98931C13.0378 3.95502 13.0054 3.92797 12.9675 3.91127L11.3181 3.07345C11.1175 3.1848 5.59971 6.19867 5.49939 6.25408L5.49937 6.55814L6.75281 7.19033C6.81885 7.23314 6.89355 7.26078 6.97155 7.27127C7.03025 7.28167 7.1378 7.21095 7.1903 7.18814L12.9806 4.3072ZM1.01937 4.3072C1.21756 4.40577 2.37138 4.98725 2.59656 5.09908C2.59708 4.97367 2.57415 4.80661 2.71469 4.74033C3.56115 4.29207 8.54656 1.6647 8.54656 1.6647L7.07 0.91658C7.03931 0.900415 7.00515 0.891968 6.97047 0.891968C6.93578 0.891968 6.90162 0.900415 6.87094 0.91658L1.0325 3.91127C0.994481 3.92783 0.961938 3.95483 0.938642 3.98913C0.915345 4.02344 0.902251 4.06365 0.900877 4.10509C0.899503 4.14654 0.909906 4.18752 0.930879 4.22329C0.951852 4.25907 0.982536 4.28816 1.01937 4.3072ZM6.72445 7.54255L5.49937 6.92783V9.12845C5.49829 9.17381 5.48329 9.21773 5.45642 9.25427C5.42955 9.29082 5.3921 9.31823 5.34913 9.33279C5.30617 9.34735 5.25977 9.34836 5.21622 9.33568C5.17266 9.323 5.13406 9.29724 5.10562 9.26189L3.8325 7.61689L2.94219 8.25345C2.90921 8.27605 2.87073 8.28928 2.83083 8.29172C2.79093 8.29416 2.75112 8.28572 2.71564 8.26731C2.68016 8.2489 2.65034 8.2212 2.62937 8.18717C2.6084 8.15314 2.59706 8.11405 2.59656 8.07408V5.46877L0.901248 4.61564L0.912186 9.83283C0.912365 9.87239 0.923234 9.91116 0.943643 9.94505C0.964052 9.97893 0.993242 10.0067 1.02812 10.0253L6.78781 13.0572C6.79122 12.979 6.81247 7.51482 6.72445 7.54255Z" fill="#B69B78"/>
<path d="M3.03406 7.64969L3.74937 7.13781C3.79578 7.10524 3.85288 7.09162 3.90899 7.09975C3.96511 7.10789 4.01599 7.13715 4.05125 7.18156L5.06187 8.4875V6.70687L3.03406 5.6875V7.64969Z" fill="#B69B78"/>
</g>
<defs>
<clipPath id="clip0_2082_2110">
<rect width="14" height="14" fill="white"/>
</clipPath>
</defs>
</svg>
