<svg width="26" height="8" viewBox="0 0 26 8" fill="none" xmlns="http://www.w3.org/2000/svg">
<path d="M11.0577 7.86666H9.04556L10.3031 0.138098H12.3155L11.0577 7.86666ZM7.35282 0.138098L5.43453 5.45386L5.20753 4.30917L5.20774 4.30958L4.53069 0.833966C4.53069 0.833966 4.44882 0.138098 3.57619 0.138098H0.404888L0.367676 0.268961C0.367676 0.268961 1.33747 0.470734 2.47244 1.15234L4.22058 7.86686H6.31708L9.51836 0.138098H7.35282ZM23.1794 7.86666H25.027L23.4161 0.137892H21.7986C21.0517 0.137892 20.8697 0.713854 20.8697 0.713854L17.8688 7.86666H19.9663L20.3858 6.71866H22.9437L23.1794 7.86666ZM20.9652 5.1328L22.0225 2.24059L22.6173 5.1328H20.9652ZM18.0261 1.99664L18.3133 0.336976C18.3133 0.336976 17.4272 0 16.5035 0C15.505 0 13.1337 0.436416 13.1337 2.55854C13.1337 4.55518 15.9168 4.57999 15.9168 5.62876C15.9168 6.67752 13.4205 6.4896 12.5966 5.82825L12.2975 7.56358C12.2975 7.56358 13.196 8 14.5687 8C15.9418 8 18.0133 7.28904 18.0133 5.35401C18.0133 3.34455 15.2052 3.15745 15.2052 2.28379C15.2054 1.40993 17.1651 1.52218 18.0261 1.99664Z" fill="#2566AF"/>
<path d="M4.88348 3.99956L4.20035 0.744484C4.20035 0.744484 4.11775 0.0927734 3.2373 0.0927734H0.037546L0 0.215332C0 0.215332 1.53792 0.511177 3.01306 1.61963C4.42354 2.6791 4.88348 3.99956 4.88348 3.99956Z" fill="#E6A540"/>
</svg>
