<svg width="18" height="18" viewBox="0 0 18 18" fill="none" xmlns="http://www.w3.org/2000/svg">
<g clip-path="url(#clip0_2013_1941)">
<path d="M8.99973 0.720703C4.43116 0.720703 0.719727 4.43214 0.719727 9.0007C0.719727 10.4692 1.12245 11.8396 1.7941 13.0359L0.733086 16.8237C0.716135 16.8843 0.715369 16.9483 0.730865 17.0093C0.74636 17.0703 0.777575 17.1262 0.821398 17.1713C0.86522 17.2165 0.920119 17.2494 0.980621 17.2667C1.04112 17.2841 1.10511 17.2853 1.16621 17.2702L5.11566 16.2914C6.27619 16.911 7.59306 17.2807 8.99973 17.2807C13.5683 17.2807 17.2797 13.5693 17.2797 9.0007C17.2797 4.43214 13.5683 0.720703 8.99973 0.720703ZM8.99973 1.4407C13.1792 1.4407 16.5597 4.82127 16.5597 9.0007C16.5597 13.1801 13.1792 16.5607 8.99973 16.5607C7.65982 16.5607 6.40489 16.2114 5.31395 15.6009C5.23416 15.5564 5.14039 15.5438 5.05168 15.5658L1.59301 16.4229L2.52043 13.114C2.5337 13.0672 2.53736 13.0183 2.5312 12.97C2.52504 12.9218 2.50918 12.8754 2.48457 12.8334C1.82157 11.7092 1.43973 10.4011 1.43973 9.0007C1.43973 4.82127 4.82029 1.4407 8.99973 1.4407ZM5.99105 4.6807C5.76028 4.6807 5.4307 4.76656 5.15996 5.05828C4.99734 5.2335 4.31973 5.89373 4.31973 7.05445C4.31973 8.2646 5.15903 9.30881 5.26051 9.44297H5.26121V9.44367C5.25158 9.43102 5.39002 9.63149 5.5748 9.87187C5.75959 10.1123 6.01799 10.428 6.34262 10.7698C6.99187 11.4534 7.90471 12.2434 9.03769 12.7266C9.55945 12.9487 9.97107 13.0829 10.2829 13.1808C10.8609 13.3623 11.3873 13.3347 11.7827 13.2764C12.0787 13.2328 12.4042 13.0907 12.7263 12.8869C13.0484 12.683 13.364 12.4296 13.5032 12.0445C13.603 11.7685 13.6537 11.5134 13.672 11.3034C13.6812 11.1985 13.6823 11.1058 13.6755 11.0201C13.6687 10.9343 13.676 10.8686 13.5961 10.7374C13.4284 10.4622 13.2386 10.455 13.0406 10.357C12.9305 10.3026 12.6172 10.1496 12.303 9.99984C11.9891 9.85027 11.7173 9.71781 11.55 9.65812C11.4442 9.62008 11.3151 9.56531 11.1288 9.58641C10.9425 9.6075 10.7585 9.74192 10.6514 9.9007C10.5498 10.0512 10.1411 10.5337 10.0164 10.6755C10.0148 10.6745 10.0256 10.6795 9.97637 10.6552C9.82224 10.5789 9.63374 10.514 9.3548 10.3669C9.07587 10.2197 8.72694 10.0025 8.34512 9.66586V9.66516C7.77682 9.16484 7.37874 8.5367 7.25316 8.3257C7.26162 8.31564 7.25216 8.32783 7.27004 8.31023L7.27074 8.30953C7.39909 8.18312 7.51283 8.03213 7.60894 7.92141C7.74522 7.76441 7.80536 7.62602 7.87051 7.49672C8.00035 7.23902 7.92805 6.95545 7.85293 6.80625V6.80555C7.85812 6.81587 7.81229 6.71476 7.76293 6.59812C7.71343 6.48116 7.65032 6.32952 7.58293 6.16781C7.44814 5.8444 7.29766 5.48167 7.20816 5.26922V5.26852C7.10274 5.01827 6.96011 4.83799 6.77363 4.75102C6.58716 4.66404 6.42241 4.68877 6.41574 4.68844H6.41504C6.28197 4.6823 6.13594 4.6807 5.99105 4.6807ZM5.99105 5.4007C6.12985 5.4007 6.26668 5.4024 6.38129 5.40773C6.49919 5.41361 6.49185 5.41409 6.46918 5.40351C6.44614 5.39277 6.4774 5.38928 6.54441 5.54836C6.63204 5.75639 6.78327 6.12043 6.91848 6.44484C6.98608 6.60705 7.04935 6.75928 7.09988 6.87867C7.15041 6.99807 7.17779 7.06473 7.20957 7.12828V7.12898L7.21027 7.12969C7.24143 7.19116 7.23867 7.1518 7.22785 7.17328C7.15188 7.32406 7.14157 7.36108 7.06473 7.44961C6.94772 7.5844 6.82837 7.73473 6.76519 7.79695C6.70992 7.85125 6.6102 7.93583 6.54793 8.10141C6.48557 8.26723 6.51467 8.49475 6.61473 8.66461C6.74794 8.89076 7.18691 9.60525 7.8691 10.2059C8.29872 10.5846 8.69897 10.8352 9.01871 11.0039C9.33845 11.1726 9.59887 11.2711 9.65715 11.2999C9.79552 11.3684 9.94676 11.4216 10.1226 11.4005C10.2985 11.3794 10.4501 11.2727 10.5466 11.1635L10.5473 11.1628C10.6758 11.0172 11.0574 10.5814 11.2406 10.3127C11.2483 10.3155 11.2458 10.3133 11.3067 10.3352V10.3359H11.3074C11.3352 10.3458 11.6833 10.5016 11.9936 10.6495C12.304 10.7974 12.619 10.9511 12.7214 11.0018C12.8691 11.0749 12.9389 11.1225 12.9569 11.1227C12.9581 11.1544 12.9594 11.1887 12.9548 11.2409C12.9422 11.3854 12.9035 11.5856 12.8261 11.7998C12.7882 11.9047 12.5907 12.1211 12.3417 12.2787C12.0926 12.4363 11.7895 12.5476 11.6772 12.5641C11.3397 12.6139 10.9389 12.632 10.4988 12.4938C10.1936 12.398 9.81308 12.274 9.32035 12.0642C8.32106 11.638 7.47174 10.9128 6.86504 10.2741C6.56169 9.95467 6.31865 9.65735 6.14574 9.43242C5.97316 9.20791 5.8978 9.09108 5.83496 9.00844L5.83426 9.00773C5.72272 8.86023 5.03973 7.91021 5.03973 7.05445C5.03973 6.14878 5.46039 5.79362 5.68801 5.54836C5.80751 5.4196 5.93815 5.4007 5.99105 5.4007Z" fill="#7D716A"/>
</g>
<defs>
<clipPath id="clip0_2013_1941">
<rect width="18" height="18" fill="white"/>
</clipPath>
</defs>
</svg>
