<svg width="14" height="8" viewBox="0 0 14 8" fill="none" xmlns="http://www.w3.org/2000/svg">
<path d="M2.52099 0C1.57045 0.00976245 0.804751 0.783274 0.805076 1.73381C0.805076 2.69118 1.58119 3.46762 2.53889 3.46762C3.49626 3.4673 4.27205 2.69118 4.27205 1.73381C4.27205 0.77644 3.49626 0.000325415 2.53889 0C2.53303 0 2.52685 0 2.52099 0ZM11.4439 0C10.493 0.00976245 9.72795 0.783274 9.72795 1.73381C9.72795 2.69118 10.5041 3.4673 11.4611 3.46762C12.4185 3.46762 13.1949 2.69151 13.1949 1.73381C13.1949 0.77644 12.4188 0 11.4611 0C11.4553 0 11.4497 0 11.4439 0ZM6.98275 0.377481C6.03189 0.386918 5.26586 1.16043 5.26619 2.11129C5.26651 3.06866 6.04263 3.84445 7 3.84445C7.95705 3.84445 8.73348 3.06866 8.73381 2.11129C8.73381 1.15392 7.9577 0.377481 7 0.377481C6.99414 0.377481 6.98861 0.377481 6.98275 0.377481ZM1.05369 3.54084C0.415555 4.00098 0 4.74911 0 5.59941V6.20013V6.42694V6.74487C0 7.19069 0.359258 7.55028 0.805402 7.55028H3.90953C3.86593 7.4149 3.84217 7.2714 3.84217 7.12268V6.80377V6.57761V5.9769C3.84217 5.23951 4.0999 4.56264 4.52685 4.02636C4.38171 3.84315 4.2151 3.67849 4.02538 3.54149C3.60983 3.88057 3.0755 4.07419 2.53889 4.07419C2.00195 4.07354 1.4686 3.87992 1.05369 3.54084ZM9.97624 3.54084C9.7862 3.67784 9.61829 3.84315 9.47283 4.02636C9.89977 4.56264 10.1578 5.23951 10.1578 5.9769V6.57761V6.80377V7.12236C10.1578 7.27107 10.1341 7.41458 10.0905 7.54995H13.1946C13.6404 7.54995 14 7.19069 14 6.74455V6.42662V6.19981V5.59909C14 4.74911 13.5844 4.0013 12.947 3.54116C12.5314 3.88025 11.9977 4.07387 11.4611 4.07387C10.9248 4.07354 10.3915 3.87992 9.97624 3.54084ZM5.51546 3.91767C4.87732 4.37781 4.46176 5.12659 4.46176 5.9769V6.57761V6.80377V7.12236C4.46176 7.56817 4.82037 7.92776 5.26651 7.92776H8.73414C9.17995 7.92776 9.53889 7.5685 9.53889 7.12236V6.80377V6.57761V5.9769C9.53889 5.12691 9.12398 4.37911 8.4865 3.91897C8.07094 4.25805 7.53661 4.45103 7 4.45103C6.46307 4.4507 5.93036 4.25675 5.51546 3.91767Z" fill="#B69B78"/>
</svg>
