<svg width="24" height="23" viewBox="0 0 24 23" fill="none" xmlns="http://www.w3.org/2000/svg">
<g clip-path="url(#clip0_2261_7488)">
<path d="M12 15.6037L12.708 14.88L10.614 12.7333H15.308V11.7111H10.614L12.708 9.56444L12 8.84071L8.692 12.2222L12 15.6037ZM5.616 20.4C5.168 20.4 4.78667 20.2392 4.472 19.9175C4.15733 19.5959 4 19.2064 4 18.7491V5.69533C4 5.23874 4.15733 4.84927 4.472 4.52693C4.78667 4.20527 5.168 4.04444 5.616 4.04444H10.316C10.2247 3.52243 10.3467 3.05119 10.682 2.63071C11.0167 2.21024 11.456 2 12 2C12.5567 2 13.0027 2.21024 13.338 2.63071C13.6733 3.05119 13.789 3.52243 13.685 4.04444H18.385C18.8317 4.04444 19.2127 4.20527 19.528 4.52693C19.8427 4.84859 20 5.2384 20 5.69636V18.7491C20 19.2057 19.8427 19.5952 19.528 19.9175C19.2133 20.2392 18.8323 20.4 18.385 20.4H5.616ZM5.616 19.3778H18.385C18.5383 19.3778 18.6793 19.3124 18.808 19.1815C18.9367 19.0507 19.0007 18.9062 19 18.7481V5.69636C19 5.53893 18.936 5.39446 18.808 5.26293C18.68 5.13141 18.5387 5.06599 18.384 5.06667H5.616C5.462 5.06667 5.32067 5.13209 5.192 5.26293C5.06333 5.39378 4.99933 5.53825 5 5.69636V18.7491C5 18.9059 5.064 19.05 5.192 19.1815C5.32 19.313 5.461 19.3785 5.615 19.3778M12 4.49627C12.2167 4.49627 12.396 4.42403 12.538 4.27956C12.68 4.13508 12.7507 3.95176 12.75 3.7296C12.7493 3.50744 12.6783 3.32446 12.537 3.18067C12.3957 3.03687 12.2167 2.9643 12 2.96293C11.7833 2.96157 11.6043 3.03415 11.463 3.18067C11.3217 3.32719 11.2507 3.51016 11.25 3.7296C11.2493 3.94904 11.3203 4.13236 11.463 4.27956C11.6057 4.42676 11.7847 4.49899 12 4.49627Z" fill="#7D716A"/>
</g>
<defs>
<clipPath id="clip0_2261_7488">
<rect width="16" height="19" fill="white" transform="translate(4 2)"/>
</clipPath>
</defs>
</svg>
