<svg width="24" height="24" viewBox="0 0 24 24" fill="none" xmlns="http://www.w3.org/2000/svg">
<g clip-path="url(#clip0_2543_1349)">
<path fill-rule="evenodd" clip-rule="evenodd" d="M22.2857 7.83673H1.71429V20.5714C1.71429 21.3512 1.98514 22.0986 2.46772 22.6491C2.94943 23.2007 3.60343 23.5102 4.28571 23.5102C7.872 23.5102 16.128 23.5102 19.7143 23.5102C20.3966 23.5102 21.0506 23.2007 21.5323 22.6491C22.0149 22.0986 22.2857 21.3512 22.2857 20.5714V7.83673ZM9.42857 11.7551H14.5714C15.0446 11.7551 15.4286 11.3162 15.4286 10.7755C15.4286 10.2348 15.0446 9.79592 14.5714 9.79592H9.42857C8.95543 9.79592 8.57143 10.2348 8.57143 10.7755C8.57143 11.3162 8.95543 11.7551 9.42857 11.7551ZM1.71429 5.87755H22.2857C23.2329 5.87755 24 5.00081 24 3.91837V1.95919C24 0.876735 23.2329 0 22.2857 0C18.7423 0 5.25771 0 1.71429 0C0.767143 0 0 0.876735 0 1.95919V3.91837C0 5.00081 0.767143 5.87755 1.71429 5.87755Z" fill="#B69B78" fill-opacity="0.45"/>
</g>
<defs>
<clipPath id="clip0_2543_1349">
<rect width="24" height="24" fill="white"/>
</clipPath>
</defs>
</svg>
