<svg width="24" height="24" viewBox="0 0 24 24" fill="none" xmlns="http://www.w3.org/2000/svg">
<path d="M4.3217 5C2.6922 5.01724 1.37957 6.38322 1.38013 8.06182C1.38013 9.75248 2.71061 11.1236 4.35238 11.1236C5.99358 11.1231 7.32351 9.75248 7.32351 8.06182C7.32351 6.37115 5.99358 5.00057 4.35238 5C4.34234 5 4.33174 5 4.3217 5ZM19.6181 5C17.988 5.01724 16.6765 6.38322 16.6765 8.06182C16.6765 9.75248 18.007 11.1231 19.6476 11.1236C21.2888 11.1236 22.6199 9.75306 22.6199 8.06182C22.6199 6.37115 21.2894 5 19.6476 5C19.6376 5 19.6281 5 19.6181 5ZM11.9704 5.66661C10.3404 5.68328 9.0272 7.04926 9.02775 8.72843C9.02831 10.4191 10.3588 11.7891 12 11.7891C13.6406 11.7891 14.9717 10.4191 14.9722 8.72843C14.9722 7.03776 13.6418 5.66661 12 5.66661C11.99 5.66661 11.9805 5.66661 11.9704 5.66661ZM1.80633 11.2529C0.71238 12.0655 0 13.3867 0 14.8883V15.9491V16.3496V16.9111C0 17.6984 0.615871 18.3334 1.38069 18.3334H6.70206C6.62731 18.0943 6.58658 17.8409 6.58658 17.5783V17.0151V16.6157V15.5549C6.58658 14.2527 7.0284 13.0574 7.76031 12.1103C7.51151 11.7868 7.22588 11.496 6.90066 11.2541C6.18828 11.8529 5.27228 12.1948 4.35238 12.1948C3.43192 12.1937 2.5176 11.8517 1.80633 11.2529ZM17.1021 11.2529C16.7763 11.4949 16.4885 11.7868 16.2391 12.1103C16.971 13.0574 17.4134 14.2527 17.4134 15.5549V16.6157V17.0151V17.5777C17.4134 17.8403 17.3727 18.0938 17.2979 18.3328H22.6193C23.3836 18.3328 24 17.6984 24 16.9105V16.3491V15.9485V14.8877C24 13.3867 23.2876 12.0661 22.1948 11.2535C21.4824 11.8523 20.5675 12.1942 19.6476 12.1942C18.7283 12.1937 17.814 11.8517 17.1021 11.2529ZM9.45507 11.9184C8.36112 12.731 7.64874 14.0533 7.64874 15.5549V16.6157V17.0151V17.5777C7.64874 18.365 8.26349 19 9.02831 19H14.9728C15.7371 19 16.3524 18.3656 16.3524 17.5777V17.0151V16.6157V15.5549C16.3524 14.0539 15.6411 12.7333 14.5483 11.9207C13.8359 12.5195 12.9199 12.8603 12 12.8603C11.0795 12.8597 10.1663 12.5172 9.45507 11.9184Z" fill="#B69B78" fill-opacity="0.45"/>
</svg>
