<svg width="24" height="24" viewBox="0 0 24 24" fill="none" xmlns="http://www.w3.org/2000/svg">
<g clip-path="url(#clip0_2543_1343)">
<mask id="mask0_2543_1343" style="mask-type:luminance" maskUnits="userSpaceOnUse" x="0" y="0" width="24" height="24">
<path d="M24 0H0V24H24V0Z" fill="white"/>
</mask>
<g mask="url(#mask0_2543_1343)">
<path d="M2.99717 0C2.20384 0.00297996 1.4438 0.319191 0.882475 0.879807C0.321151 1.44042 0.003981 2.20006 0 2.99339V7.9937C0 9.63779 1.35307 10.9984 2.99717 10.9984H8.00126C9.64913 10.9984 10.9984 9.63779 10.9984 7.9937V2.99339C10.9944 2.20006 10.6773 1.44042 10.116 0.879807C9.55463 0.319191 8.79459 0.00297996 8.00126 0H2.99717ZM15.9987 0C15.2054 0.00297996 14.4454 0.319191 13.8841 0.879807C13.3227 1.44042 13.0056 2.20006 13.0016 2.99339V7.9937C13.0016 9.63779 14.3509 10.9984 15.9987 10.9984H21.0028C22.6469 10.9984 24 9.63779 24 7.9937V2.99339C23.996 2.20006 23.6789 1.44042 23.1175 0.879807C22.5562 0.319191 21.7962 0.00297996 21.0028 0H15.9987ZM2.99717 13.0016C2.20384 13.0046 1.4438 13.3208 0.882475 13.8814C0.321151 14.442 0.003981 15.2016 0 15.995V21.0028C0 22.6469 1.35307 24 2.99717 24H8.00126C8.79524 23.997 9.55585 23.6803 10.1173 23.1189C10.6787 22.5574 10.9954 21.7968 10.9984 21.0028V15.995C10.9944 15.2016 10.6773 14.442 10.116 13.8814C9.55463 13.3208 8.79459 13.0046 8.00126 13.0016H2.99717ZM15.9987 13.0016C15.2054 13.0046 14.4454 13.3208 13.8841 13.8814C13.3227 14.442 13.0056 15.2016 13.0016 15.995V21.0028C13.0016 22.6469 14.3509 24 15.9987 24H21.0028C21.7968 23.997 22.5574 23.6803 23.1189 23.1189C23.6803 22.5574 23.997 21.7968 24 21.0028V15.995C23.996 15.2016 23.6789 14.442 23.1175 13.8814C22.5562 13.3208 21.7962 13.0046 21.0028 13.0016H15.9987Z" fill="#B69B78" fill-opacity="0.45"/>
</g>
</g>
<defs>
<clipPath id="clip0_2543_1343">
<rect width="24" height="24" fill="white"/>
</clipPath>
</defs>
</svg>
