<svg width="24" height="24" viewBox="0 0 24 24" fill="none" xmlns="http://www.w3.org/2000/svg">
<g clip-path="url(#clip0_2543_1341)">
<path d="M11.9005 3.93106H0.998585C0.934077 3.93106 0.869569 3.92299 0.805061 3.92837C0.521225 3.94183 0.263193 4.01722 0.00516067 4.14647V1.17932C0.00516067 0.530425 0.516065 0 1.1405 0H8.42992C8.80664 0 9.16531 0.185783 9.39238 0.498115L11.8927 3.9203L11.9005 3.93106ZM23.9996 5.95314C23.9996 5.92083 23.997 5.88852 23.9944 5.85621C23.9944 5.84544 23.9918 5.83467 23.9918 5.82929C23.9841 5.7889 23.9764 5.74851 23.966 5.70813C23.9557 5.66774 23.9428 5.62735 23.9299 5.58696C23.9299 5.58427 23.9273 5.58158 23.9273 5.57888C23.9248 5.57619 23.9222 5.57081 23.9222 5.56542C23.8861 5.49542 23.8448 5.43079 23.8061 5.36079C23.7957 5.34733 23.7854 5.33386 23.7751 5.3231C23.7519 5.29617 23.7287 5.27193 23.7029 5.2477C23.7003 5.24501 23.677 5.22078 23.6564 5.19923C23.6512 5.19654 23.6461 5.19116 23.6358 5.18577C23.6229 5.17501 23.6074 5.16693 23.5945 5.15616C23.5558 5.13193 23.5171 5.10769 23.4758 5.08615C23.468 5.08077 23.4603 5.07808 23.4526 5.07269C23.4448 5.07269 23.4397 5.07 23.4319 5.07C23.4293 5.07 23.4268 5.07 23.4268 5.07C23.4242 5.07 23.4216 5.07 23.4216 5.07C23.4216 5.07 23.4216 5.07 23.419 5.07C23.3597 5.05385 23.2977 5.02153 23.2436 5.00807C23.2281 5.00538 23.2074 5.00807 23.1894 5.00538C23.1532 5.00538 23.1171 5.00538 23.0784 5.00538H1.01407C0.970202 5.00538 0.926336 4.99999 0.882471 4.99999C0.859248 4.99999 0.833444 4.9973 0.810221 4.99999C0.794739 4.99999 0.779258 4.99999 0.763776 5.00269C0.696687 5.01615 0.632179 5.0323 0.565091 5.05385C0.547028 5.06192 0.451557 5.08077 0.531547 5.06462H0.534127C0.531547 5.06462 0.531547 5.06462 0.528966 5.06731C0.492842 5.08615 0.456717 5.105 0.423173 5.12655C0.389629 5.14808 0.356085 5.16962 0.32254 5.19385C0.32254 5.19385 0.31996 5.19385 0.31996 5.19654C0.258032 5.25578 0.206426 5.3231 0.144498 5.38233C0.139338 5.3931 0.134177 5.40118 0.131597 5.40387C0.113534 5.43349 0.095472 5.46311 0.0774097 5.49542C0.0722491 5.50349 0.0541868 5.5358 0.0361246 5.56542C0.0361246 5.56811 0.0335443 5.57888 0.0283836 5.59234C0.023223 5.6085 0.0154819 5.62735 0.00774095 5.64351C0.00516063 5.64889 0 5.65427 0 5.65966V22.0947C0 22.2563 0.0283835 22.4125 0.072249 22.5605C0.087731 22.5902 0.105793 22.6198 0.123855 22.6467C0.129016 22.6575 0.136757 22.6656 0.144498 22.6763C0.196105 22.7329 0.245131 22.7895 0.301898 22.8433C0.307059 22.8459 0.309639 22.8513 0.312219 22.8541C0.314799 22.8541 0.314799 22.8568 0.31738 22.8568C0.350924 22.8783 0.384468 22.9025 0.418012 22.9241C0.454137 22.9456 0.495422 22.9645 0.531547 22.9859C0.547029 22.9914 0.55993 22.9967 0.55993 22.9967C0.627019 23.0183 0.694107 23.0345 0.761195 23.0479C0.763776 23.0479 0.763776 23.0479 0.766356 23.0479C0.784418 23.0479 0.802481 23.0505 0.820543 23.0533C0.838605 23.0533 0.856667 23.056 0.87473 23.056H23.0758C23.081 23.056 23.0836 23.0533 23.0887 23.056C23.1068 23.056 23.1352 23.056 23.1636 23.056C23.1661 23.056 23.1687 23.056 23.1713 23.0533C23.1894 23.0505 23.2048 23.0479 23.2229 23.0425C23.2926 23.029 23.3803 22.9752 23.45 22.9725C23.4577 22.9698 23.4655 22.9645 23.4732 22.959C23.5093 22.9402 23.5429 22.9186 23.5764 22.8971C23.5816 22.8944 23.6048 22.881 23.6229 22.8675C23.6254 22.8648 23.6306 22.8594 23.6358 22.8541C23.6487 22.8406 23.6616 22.8298 23.6745 22.819C23.7028 22.7921 23.7312 22.7625 23.7596 22.7329C23.7699 22.7194 23.8164 22.6575 23.819 22.6575C23.8267 22.6467 23.8319 22.6387 23.8344 22.6333C23.8551 22.5983 23.8757 22.5632 23.8938 22.5256C23.9041 22.504 23.9144 22.4825 23.9248 22.461C23.9248 22.461 23.9273 22.4583 23.9273 22.4555V22.4583C23.9119 22.5336 23.9402 22.4152 23.948 22.3882C23.9583 22.3532 23.966 22.3182 23.9738 22.2833C23.9789 22.259 23.9815 22.2347 23.9867 22.2105V22.2078C23.9815 22.1755 23.9841 22.1729 23.9867 22.1809C23.9867 22.1647 23.9893 22.1459 23.9893 22.1298C23.9893 22.1163 23.9893 22.1029 23.9893 22.0921C23.9893 22.0921 23.9893 22.0894 23.9893 22.0867C23.9893 22.0786 23.9918 22.0705 23.9918 22.0625C23.9918 22.0247 23.9944 21.987 23.9944 21.9494V6.16316C24.0022 6.09315 23.9996 6.02314 23.9996 5.95314ZM0.534127 5.06192C0.585733 5.05385 0.55477 5.05385 0.534127 5.06192ZM23.9325 22.4528C23.9428 22.4286 23.9428 22.399 23.9325 22.4528Z" fill="#B69B78" fill-opacity="0.45"/>
</g>
<defs>
<clipPath id="clip0_2543_1341">
<rect width="24" height="24" fill="white"/>
</clipPath>
</defs>
</svg>
