<svg width="24" height="24" viewBox="0 0 24 24" fill="none" xmlns="http://www.w3.org/2000/svg">
<path d="M5.49001 0.960938C4.98563 0.960938 4.56188 1.32656 4.455 1.78594V1.80094C4.455 1.80094 1.635 14.7441 1.08 17.3259V17.3409C0.997507 17.7534 1.08 18.1528 1.32 18.4059C1.56 18.6591 1.86375 18.7209 2.115 18.7209H6.225C6.09563 19.3059 5.95126 19.9491 5.85 20.4159C5.75813 20.8378 5.67938 21.1809 5.625 21.4359C5.57063 21.6909 5.55 21.8072 5.535 21.8859C5.49563 22.0941 5.505 22.3322 5.67 22.5909C5.835 22.8497 6.19688 23.0409 6.6 23.0409H10.89C11.4056 23.0409 11.8181 22.6809 11.925 22.2009C11.925 22.2009 12.1819 21.0441 12.435 19.8759C12.5606 19.2909 12.6806 18.7116 12.78 18.2559C12.8794 17.8003 12.96 17.4459 12.96 17.4459C12.9844 17.3428 13.005 17.2978 13.005 17.2959C13.005 17.2941 12.9581 17.2809 13.095 17.2809H15.555C19.0988 17.2809 22.08 15.1472 22.875 11.4309C23.3231 9.32906 22.7869 7.72969 21.765 6.72094C20.8631 5.83031 19.6238 5.40656 18.435 5.31094C18.2925 3.88406 17.6138 2.77031 16.695 2.05594C15.7294 1.30594 14.5331 0.960938 13.395 0.960938H5.49001ZM5.49001 1.92094H13.395C14.3325 1.92094 15.3394 2.22094 16.11 2.82094C16.8131 3.36844 17.2856 4.18219 17.43 5.28094H10.05C9.92438 5.28094 9.78563 5.26594 9.57 5.32594C9.35438 5.38594 9.09 5.63719 9.03 5.89594L7.47 12.9159V12.9459L6.39 17.7609H2.115C2.04188 17.7609 2.00626 17.7422 2.01 17.7459C2.01375 17.7497 1.995 17.7122 2.025 17.5359C2.02688 17.5228 2.02126 17.5359 2.025 17.5209C2.58188 14.9334 5.39438 2.03531 5.4 2.01094V1.99594C5.415 1.94719 5.44313 1.92094 5.49001 1.92094ZM9.93001 6.24094C9.97126 6.23906 9.96938 6.24094 10.05 6.24094H17.475C17.4544 6.55406 17.4113 6.88594 17.325 7.29094C16.9688 8.95969 16.2469 10.0997 15.195 10.8609C14.1431 11.6222 12.7294 12.0009 11.01 12.0009H8.895C8.82188 12.0009 8.73188 12.0216 8.64 12.0309L9.93001 6.24094ZM18.39 6.31594C19.3819 6.40406 20.3963 6.72656 21.09 7.41094C21.8831 8.19469 22.3275 9.37219 21.93 11.2359C21.2194 14.5547 18.7275 16.3209 15.555 16.3209H13.095C12.7369 16.3209 12.4238 16.4803 12.255 16.6959C12.0863 16.9116 12.0488 17.1403 12.03 17.2209C12.0075 17.3128 11.9494 17.5903 11.85 18.0459C11.7506 18.5016 11.6156 19.0959 11.49 19.6809C11.2369 20.8491 10.995 21.9909 10.995 21.9909C10.9856 22.0303 10.9069 22.0809 10.89 22.0809H6.6C6.51938 22.0809 6.49126 22.0697 6.48 22.0659C6.47251 22.1034 6.51563 21.9009 6.57 21.6459C6.62438 21.3909 6.70313 21.0328 6.795 20.6109C6.97688 19.7653 7.215 18.6572 7.455 17.5509C7.935 15.3384 8.415 13.1409 8.415 13.1409C8.43751 13.0716 8.45438 13.0547 8.535 13.0209C8.625 12.9834 8.77875 12.9609 8.895 12.9609H11.01C12.8719 12.9609 14.4919 12.5503 15.75 11.6409C17.0081 10.7316 17.8744 9.33469 18.27 7.48594C18.36 7.06406 18.3656 6.69469 18.39 6.31594Z" fill="#7D716A"/>
</svg>
