<svg width="26" height="26" viewBox="0 0 26 26" fill="none" xmlns="http://www.w3.org/2000/svg">
<path d="M21.7004 22.5224C22.1987 23.0208 22.9679 22.2516 22.4695 21.7641L18.407 17.6908C19.8321 16.114 20.6198 14.0636 20.617 11.9383C20.617 7.18244 16.7495 3.31494 11.9937 3.31494C7.23786 3.31494 3.37036 7.18244 3.37036 11.9383C3.37036 16.6941 7.23786 20.5616 11.9937 20.5616C14.1387 20.5616 16.1212 19.7708 17.6379 18.4599L21.7004 22.5224ZM4.45261 11.9383C4.45261 7.77828 7.84344 4.39827 11.9926 4.39827C16.1526 4.39827 19.5326 7.77828 19.5326 11.9383C19.5326 16.0983 16.1526 19.4783 11.9926 19.4783C7.84344 19.4783 4.45261 16.0983 4.45261 11.9383Z" fill="#C1AE94"/>
</svg>
