<svg width="19" height="13" viewBox="0 0 19 13" fill="none" xmlns="http://www.w3.org/2000/svg">
<g clip-path="url(#clip0_1622_4697)">
<path d="M1.1875 0H17.8125C17.9685 -1.85623e-08 18.123 0.0292583 18.2671 0.0861033C18.4112 0.142948 18.5421 0.226266 18.6524 0.331297C18.7627 0.436327 18.8501 0.561012 18.9098 0.698228C18.9694 0.835444 19.0001 0.982502 19 1.131V11.8701C19 12.1699 18.8749 12.4575 18.6522 12.6695C18.4295 12.8815 18.1274 13.0006 17.8125 13.0006H1.1875C0.872556 13.0006 0.57051 12.8815 0.347811 12.6695C0.125111 12.4575 1.48451e-07 12.1699 1.48451e-07 11.8701V1.131C-7.78489e-05 0.982502 0.0305802 0.835444 0.0902227 0.698228C0.149865 0.561012 0.237324 0.436327 0.347601 0.331297C0.457878 0.226266 0.588814 0.142948 0.732926 0.0861033C0.877039 0.0292583 1.03151 -1.85623e-08 1.1875 0Z" fill="#26A6D1"/>
<path d="M3.06375 4.52148L1.1875 8.47405H3.43366L3.71212 7.84383H4.34862L4.62709 8.47405H7.09947V7.99305L7.31975 8.47405H8.59869L8.81897 7.98288V8.47405H13.9608L14.5861 7.86022L15.1715 8.47405L17.8125 8.47914L15.9303 6.50879L17.8125 4.52148H15.2125L14.6039 5.12401L14.0368 4.52148H8.44313L7.96278 5.5417L7.47116 4.52148H5.22975V4.98609L4.98037 4.52148H3.06375ZM3.49838 5.08275H4.59325L5.83775 7.76301V5.08275H7.03713L7.99841 7.00448L8.88428 5.08275H10.0777V7.91901H9.35156L9.34562 5.69657L8.28697 7.91901H7.63741L6.57281 5.69657V7.91901H5.07894L4.79572 7.28314H3.26562L2.983 7.91844H2.18263L3.49838 5.08275ZM10.7421 5.08275H13.6948L14.5979 6.0114L15.5301 5.08275H16.4332L15.0611 6.50822L16.4332 7.91731H15.4892L14.5861 6.97792L13.6491 7.91731H10.7421V5.08275ZM4.03097 5.56261L3.52688 6.69531H4.53447L4.03097 5.56261ZM11.4712 5.67001V6.18775H13.0821V6.76483H11.4712V7.33005H13.278L14.1176 6.49748L13.3137 5.66944L11.4712 5.67001Z" fill="white"/>
</g>
<defs>
<clipPath id="clip0_1622_4697">
<rect width="19" height="13" fill="white"/>
</clipPath>
</defs>
</svg>
