<svg width="24" height="24" viewBox="0 0 24 24" fill="none" xmlns="http://www.w3.org/2000/svg">
<path d="M12.0052 1.50001C11.9988 1.49994 11.9925 1.50019 11.9861 1.50076C11.9577 1.50278 11.9301 1.51125 11.9055 1.52551L1.59297 7.52551C1.55736 7.54627 1.52958 7.57818 1.51393 7.61631C1.49827 7.65444 1.49562 7.69666 1.50638 7.73645C1.51714 7.77624 1.54071 7.81138 1.57344 7.83642C1.60618 7.86147 1.64625 7.87503 1.68747 7.87501H3.37497V9.18751C3.37497 9.23724 3.39473 9.28493 3.42989 9.3201C3.46505 9.35526 3.51275 9.37501 3.56247 9.37501H3.74997V19.5H3.56247C3.51275 19.5 3.46505 19.5198 3.42989 19.5549C3.39473 19.5901 3.37497 19.6378 3.37497 19.6875V21H1.68747C1.63775 21 1.59005 21.0198 1.55489 21.0549C1.51973 21.0901 1.49997 21.1378 1.49997 21.1875V22.3125C1.49997 22.3622 1.51973 22.4099 1.55489 22.4451C1.59005 22.4803 1.63775 22.5 1.68747 22.5H22.3125C22.3622 22.5 22.4099 22.4803 22.4451 22.4451C22.4802 22.4099 22.5 22.3622 22.5 22.3125V21.1875C22.5 21.1378 22.4802 21.0901 22.4451 21.0549C22.4099 21.0198 22.3622 21 22.3125 21H20.625V19.6875C20.625 19.6378 20.6052 19.5901 20.5701 19.5549C20.5349 19.5198 20.4872 19.5 20.4375 19.5H20.25V9.37501H20.4375C20.4872 9.37501 20.5349 9.35526 20.5701 9.3201C20.6052 9.28493 20.625 9.23724 20.625 9.18751V7.87501H22.3125C22.3537 7.87503 22.3938 7.86147 22.4265 7.83642C22.4592 7.81138 22.4828 7.77624 22.4936 7.73645C22.5043 7.69666 22.5017 7.65444 22.486 7.61631C22.4704 7.57818 22.4426 7.54627 22.407 7.52551L12.0945 1.52551C12.0673 1.50967 12.0366 1.5009 12.0052 1.50001ZM12 1.90501L21.6161 7.50001H2.38385L12 1.90501ZM3.74997 7.87501H7.49997V9.00001H3.74997V7.87501ZM7.87497 7.87501H9.74997V9.18751C9.74997 9.23724 9.76973 9.28493 9.80489 9.3201C9.84005 9.35526 9.88774 9.37501 9.93747 9.37501H10.125V19.5H9.93747C9.88774 19.5 9.84005 19.5198 9.80489 19.5549C9.76973 19.5901 9.74997 19.6378 9.74997 19.6875V21H7.87497V19.6875C7.87497 19.6378 7.85522 19.5901 7.82006 19.5549C7.78489 19.5198 7.7372 19.5 7.68747 19.5H7.49997V9.37501H7.68747C7.7372 9.37501 7.78489 9.35526 7.82006 9.3201C7.85522 9.28493 7.87497 9.23724 7.87497 9.18751V7.87501ZM10.125 7.87501H13.875V9.00001H10.125V7.87501ZM14.25 7.87501H16.125V9.18751C16.125 9.23724 16.1447 9.28493 16.1799 9.3201C16.2151 9.35526 16.2627 9.37501 16.3125 9.37501H16.5V19.5H16.3125C16.2627 19.5 16.2151 19.5198 16.1799 19.5549C16.1447 19.5901 16.125 19.6378 16.125 19.6875V21H14.25V19.6875C14.25 19.6378 14.2302 19.5901 14.1951 19.5549C14.1599 19.5198 14.1122 19.5 14.0625 19.5H13.875V9.37501H14.0625C14.1122 9.37501 14.1599 9.35526 14.1951 9.3201C14.2302 9.28493 14.25 9.23724 14.25 9.18751V7.87501ZM16.5 7.87501H20.25V9.00001H16.5V7.87501ZM4.12497 9.37501H4.87497V19.5H4.12497V9.37501ZM5.24997 9.37501H5.99997V19.5H5.24997V9.37501ZM6.37497 9.37501H7.12497V19.5H6.37497V9.37501ZM10.5 9.37501H11.25V19.5H10.5V9.37501ZM11.625 9.37501H12.375V19.5H11.625V9.37501ZM12.75 9.37501H13.5V19.5H12.75V9.37501ZM16.875 9.37501H17.625V19.5H16.875V9.37501ZM18 9.37501H18.75V19.5H18V9.37501ZM19.125 9.37501H19.875V19.5H19.125V9.37501ZM3.74997 19.875H7.49997V21H3.74997V19.875ZM10.125 19.875H13.875V21H10.125V19.875ZM16.5 19.875H20.25V21H16.5V19.875ZM1.87497 21.375H22.125V22.125H1.87497V21.375Z" fill="#7D716A"/>
</svg>
