<svg width="24" height="24" viewBox="0 0 24 24" fill="none" xmlns="http://www.w3.org/2000/svg">
<g clip-path="url(#clip0_2543_1355)">
<path d="M19.3338 14.6666C18.5773 14.6668 17.8322 14.851 17.1628 15.2034C16.4934 15.5559 15.9198 16.0659 15.4915 16.6894L8.99258 13.7546C9.44834 12.6353 9.45192 11.3827 9.00258 10.2608L15.4955 7.31201C16.1286 8.2307 17.07 8.89198 18.149 9.1759C19.2279 9.45982 20.3728 9.34756 21.3761 8.85948C22.3793 8.37141 23.1744 7.53985 23.6171 6.51568C24.0598 5.49151 24.1207 4.34257 23.7889 3.27729C23.4571 2.21202 22.7544 1.30098 21.8085 0.709467C20.8625 0.117952 19.7359 -0.114857 18.633 0.0532744C17.5301 0.221406 16.5239 0.779341 15.7971 1.62586C15.0704 2.47238 14.671 3.5514 14.6716 4.66717C14.6716 4.93257 14.694 5.1975 14.7386 5.45912L7.84878 8.58693C7.18458 7.9674 6.35405 7.55519 5.45902 7.40086C4.56399 7.24653 3.64338 7.35678 2.81009 7.71809C1.9768 8.07941 1.26706 8.67608 0.7679 9.43493C0.268742 10.1938 0.00186901 11.0818 9.78113e-06 11.9902C-0.00184945 12.8985 0.261386 13.7876 0.757433 14.5485C1.25348 15.3094 1.96078 15.909 2.79258 16.2737C3.62438 16.6384 4.54453 16.7525 5.44018 16.6018C6.33584 16.4511 7.16806 16.0423 7.83478 15.4255L14.7336 18.5423C14.5714 19.4853 14.703 20.4554 15.1106 21.3211C15.5181 22.1868 16.1818 22.9063 17.0119 23.3821C17.8419 23.8579 18.7982 24.067 19.751 23.9812C20.7039 23.8953 21.6074 23.5186 22.339 22.902C23.0706 22.2855 23.5951 21.4589 23.8413 20.5343C24.0875 19.6097 24.0436 18.6317 23.7155 17.7329C23.3874 16.8341 22.791 16.0579 22.0071 15.5094C21.2231 14.9609 20.2905 14.6667 19.3338 14.6666Z" fill="#B69B78" fill-opacity="0.45"/>
</g>
<defs>
<clipPath id="clip0_2543_1355">
<rect width="24" height="24" fill="white"/>
</clipPath>
</defs>
</svg>
