<svg width="25" height="25" viewBox="0 0 25 25" fill="none" xmlns="http://www.w3.org/2000/svg">
<path d="M7.67969 8.07275H17.6797M7.67969 12.0728H11.6797M12.6797 20.0728L8.67969 16.0728H5.67969C5.14925 16.0728 4.64055 15.862 4.26547 15.487C3.8904 15.1119 3.67969 14.6032 3.67969 14.0728V6.07275C3.67969 5.54232 3.8904 5.03361 4.26547 4.65854C4.64055 4.28347 5.14925 4.07275 5.67969 4.07275H19.6797C20.2101 4.07275 20.7188 4.28347 21.0939 4.65854C21.469 5.03361 21.6797 5.54232 21.6797 6.07275V14.0728C21.6797 14.6032 21.469 15.1119 21.0939 15.487C20.7188 15.862 20.2101 16.0728 19.6797 16.0728H16.6797L12.6797 20.0728Z" stroke="black" stroke-width="2" stroke-linecap="round" stroke-linejoin="round"/>
</svg>
