<svg width="28" height="24" viewBox="0 0 28 24" fill="none" xmlns="http://www.w3.org/2000/svg">
<path d="M24.5714 17H7.4285C6.48172 17 5.71422 16.3284 5.71422 15.5C5.71422 14.6716 6.48172 14 7.4285 14H19.9586C21.4056 14.0042 22.67 13.1456 23.0245 11.918L25.1249 4.62207C25.2027 4.3551 25.0183 4.0835 24.7132 4.01544C24.6668 4.00513 24.6191 3.99994 24.5714 4H7.30378L7.27337 3.89356C6.95647 2.77985 5.81271 1.99866 4.50105 2H2.85707C2.5415 2 2.28564 2.22388 2.28564 2.5C2.28564 2.77612 2.5415 3 2.85707 3H4.50105C5.28788 2.99903 5.97405 3.46765 6.16399 4.13574L8.69636 13H7.4285C5.85052 13 4.57136 14.1193 4.57136 15.5C4.57136 16.8807 5.85052 18 7.4285 18H8.58559C8.2078 18.4304 8.00202 18.9573 7.99993 19.5C7.99993 20.8807 9.27909 22 10.8571 22C12.4351 22 13.7142 20.8807 13.7142 19.5C13.7121 18.9573 13.5063 18.4304 13.1286 18H17.7284C17.3507 18.4304 17.1449 18.9573 17.1428 19.5C17.1428 20.8807 18.4219 22 19.9999 22C21.5779 22 22.8571 20.8807 22.8571 19.5C22.855 18.9573 22.6492 18.4304 22.2714 18H24.5714C24.8869 18 25.1428 17.7761 25.1428 17.5C25.1428 17.2239 24.8869 17 24.5714 17ZM7.59033 5H23.8381L21.9162 11.6738C21.6892 12.4568 20.8818 13.0038 19.9586 13H9.89279L7.59033 5ZM10.8571 21C9.9103 21 9.14279 20.3284 9.14279 19.5C9.14279 18.6716 9.9103 18 10.8571 18C11.8039 18 12.5714 18.6716 12.5714 19.5C12.5703 20.3281 11.8034 20.9991 10.8571 21ZM19.9999 21C19.0532 21 18.2856 20.3284 18.2856 19.5C18.2856 18.6716 19.0532 18 19.9999 18C20.9467 18 21.7142 18.6716 21.7142 19.5C21.7132 20.3281 20.9463 20.9991 19.9999 21Z" fill="#C1AE94"/>
</svg>
