<svg width="152" height="123" viewBox="0 0 152 123" fill="none" xmlns="http://www.w3.org/2000/svg">
<path d="M37.6766 16.3722L0.13623 41.4824L37.1117 96.7616L74.6521 71.6514L37.6766 16.3722Z" fill="#CDB698" fill-opacity="0.43"/>
<path d="M55.2527 69.0301L54.8273 71.6668L36.165 68.9794L36.5904 66.3428L55.2527 69.0301Z" fill="#E8E8E9"/>
<path d="M45.8553 59.625L48.5314 60.0109L45.5623 78.3859L42.8862 78L45.8553 59.625Z" fill="#E8E8E9"/>
<path d="M28.6631 36.272C28.6912 36.3114 24.9278 38.8749 20.2601 41.9961C15.5924 45.1172 11.7867 47.6159 11.7614 47.5764C11.736 47.537 15.4966 44.9736 20.1643 41.8524C24.832 38.7284 28.6377 36.2298 28.6631 36.272Z" fill="#B69B78"/>
<path d="M42.4725 32.804C42.5007 32.8434 36.2442 37.0745 28.5004 42.2549C20.7566 47.4352 14.4579 51.6015 14.4298 51.5621C14.4044 51.5226 20.658 47.2916 28.4018 42.1112C36.1456 36.9308 42.4444 32.7646 42.4725 32.804Z" fill="#B69B78"/>
<path d="M45.2386 36.9427C45.2668 36.9821 39.0104 41.2132 31.2666 46.3935C23.5228 51.5739 17.224 55.7402 17.1959 55.7007C17.1705 55.6613 23.4242 51.4302 31.168 46.2499C38.9118 41.0695 45.2105 36.9032 45.2386 36.9427Z" fill="#B69B78"/>
<path d="M48.0048 41.0804C48.0301 41.1198 41.7765 45.3509 34.0327 50.5312C26.2889 55.7116 19.9902 59.8779 19.962 59.8384C19.9366 59.799 26.1903 55.5679 33.9341 50.3876C41.6807 45.2072 47.9794 41.0409 48.0048 41.0804Z" fill="#B69B78"/>
<path d="M50.7738 45.219C50.802 45.2585 44.5455 49.4895 36.8017 54.6699C29.0579 59.8503 22.7592 64.0166 22.731 63.9771C22.7057 63.9377 28.9593 59.7066 36.7031 54.5262C44.4469 49.3459 50.7456 45.1796 50.7738 45.219Z" fill="#B69B78"/>
<path d="M113.326 18.3991L78.9258 0L51.8339 50.6534L86.2346 69.0525L113.326 18.3991Z" fill="#CDB698" fill-opacity="0.43"/>
<path d="M79.0802 49.9993L77.5049 50.5399L73.5068 39.4888L75.0821 38.9502L79.0802 49.9993Z" fill="#B69B78"/>
<path d="M81.4934 42.0723L82.0686 43.6577L71.0927 47.4159L70.5195 45.8305L81.4934 42.0723Z" fill="#B69B78"/>
<path d="M94.5009 19.6236C94.4728 19.6743 90.9854 17.8602 86.7092 15.5728C82.4303 13.2854 78.988 11.3896 79.0133 11.3389C79.0415 11.2882 82.5289 13.1023 86.805 15.3897C91.0811 17.6799 94.5291 19.5757 94.5009 19.6236Z" fill="#CDB698"/>
<path d="M102.755 28.7367C102.727 28.7874 96.9553 25.7508 89.8594 21.9563C82.7635 18.1619 77.0338 15.0435 77.0592 14.9928C77.0873 14.9421 82.8593 17.9788 89.9552 21.7732C97.0539 25.5677 102.784 28.686 102.755 28.7367Z" fill="#CDB698"/>
<path d="M100.73 32.5277C100.701 32.5784 94.9294 29.5418 87.8335 25.7473C80.7376 21.9529 75.0079 18.8345 75.0333 18.7838C75.0615 18.7331 80.8334 21.7698 87.9293 25.5642C95.0252 29.3587 100.755 32.477 100.73 32.5277Z" fill="#CDB698"/>
<path d="M98.7012 36.3197C98.673 36.3704 92.9011 33.3338 85.8052 29.5393C78.7093 25.7449 72.9796 22.6265 73.005 22.5758C73.0331 22.5251 78.8051 25.5618 85.901 29.3562C92.9969 33.1507 98.7266 36.269 98.7012 36.3197Z" fill="#CDB698"/>
<path d="M96.6734 40.1107C96.6452 40.1615 90.8733 37.1248 83.7774 33.3303C76.6815 29.5359 70.9518 26.4175 70.9771 26.3668C71.0053 26.3161 76.7772 29.3528 83.8731 33.1472C90.969 36.9417 96.7015 40.06 96.6734 40.1107Z" fill="#CDB698"/>
<path d="M64.132 53.9363L52.3008 114.763L50.7515 122.726L129.733 122.338C133.277 122.321 136.418 119.174 137.559 114.498L151.565 57.0716C152.429 53.5222 150.531 49.8292 147.841 49.832L67.9011 49.9165C66.1377 49.9137 64.594 51.5616 64.132 53.9363Z" fill="#F41F83"/>
<path d="M64.132 53.9363L52.3008 114.763L50.7515 122.726L129.733 122.338C133.277 122.321 136.418 119.174 137.559 114.498L151.565 57.0716C152.429 53.5222 150.531 49.8292 147.841 49.832L67.9011 49.9165C66.1377 49.9137 64.594 51.5616 64.132 53.9363Z" fill="#B69B78"/>
<path d="M122.158 110.642L113.798 43.2547C113.454 40.4941 111.257 38.4349 108.66 38.4434L90.3213 38.5025C88.9635 38.5082 87.6621 39.0828 86.6987 40.1082L77.9915 49.3647L26.9934 49.6295C23.8778 49.6464 21.4834 52.5958 21.8947 55.9085L29.6582 118.191C30.0019 120.949 32.1963 123.005 34.7907 123L123.671 122.825C133.57 123.031 134.516 120.107 134.516 120.107C123.17 122.62 122.161 110.65 122.158 110.642Z" fill="#CDB698"/>
<path d="M83.8335 97.1551L80.8363 100.375L57.7485 79.6055L60.7458 76.3857L83.8335 97.1551Z" fill="#B69B78"/>
<path d="M79.5805 75.6729L82.8932 78.6532L62.0027 101.087L58.6899 98.1071L79.5805 75.6729Z" fill="#B69B78"/>
</svg>
