<svg width="115" height="50" viewBox="0 0 115 50" fill="none" xmlns="http://www.w3.org/2000/svg">
<path d="M36.7043 43.004L33.6549 39.9189L33.8054 39.9584L33.8172 42.8777H33.2866V38.8262H33.3143L36.332 41.9191L36.2093 41.8915L36.1974 38.9445H36.7202V43.004H36.7043Z" fill="#231F20"/>
<path d="M39.4251 41.4859C39.4251 41.6634 39.4686 41.8212 39.5518 41.9633C39.6389 42.1013 39.7498 42.2118 39.8924 42.2907C40.0349 42.3696 40.1934 42.4091 40.3716 42.4091C40.5577 42.4091 40.724 42.3696 40.8706 42.2907C41.0171 42.2118 41.132 42.1013 41.2151 41.9633C41.2983 41.8252 41.3419 41.6634 41.3419 41.4859V38.9453H41.8607V41.5017C41.8607 41.7857 41.7933 42.0382 41.6626 42.2513C41.528 42.4643 41.3498 42.63 41.128 42.7483C40.9023 42.8627 40.6528 42.9219 40.3755 42.9219C40.0983 42.9219 39.8488 42.8627 39.627 42.7483C39.4053 42.6339 39.227 42.4682 39.0964 42.2513C38.9657 42.0382 38.8983 41.7857 38.8983 41.5017V38.9453H39.4211V41.4859H39.4251Z" fill="#231F20"/>
<path d="M46.0705 39.6477C45.9358 39.5806 45.7893 39.5175 45.6269 39.4702C45.4685 39.4189 45.3101 39.3952 45.1557 39.3952C44.9458 39.3952 44.7755 39.4465 44.6527 39.5412C44.526 39.6398 44.4626 39.77 44.4626 39.9317C44.4626 40.054 44.5022 40.1605 44.5814 40.2434C44.6606 40.3302 44.7675 40.4012 44.8982 40.4643C45.0289 40.5274 45.1675 40.5827 45.3101 40.6379C45.4329 40.6852 45.5556 40.7365 45.6745 40.7957C45.7933 40.8549 45.9042 40.9259 45.9992 41.0127C46.0943 41.0995 46.1735 41.206 46.2289 41.3322C46.2844 41.4585 46.3121 41.6163 46.3121 41.8056C46.3121 42.0108 46.2606 42.2001 46.1576 42.3698C46.0547 42.5394 45.9042 42.6735 45.7141 42.7722C45.52 42.8708 45.2903 42.9181 45.025 42.9181C44.8507 42.9181 44.6844 42.8984 44.526 42.8589C44.3676 42.8195 44.221 42.7682 44.0864 42.7051C43.9517 42.642 43.8329 42.5749 43.726 42.5078L43.9596 42.0936C44.0468 42.1567 44.1458 42.212 44.2606 42.2711C44.3715 42.3264 44.4903 42.3737 44.6131 42.4092C44.7359 42.4447 44.8586 42.4605 44.9735 42.4605C45.0962 42.4605 45.219 42.4368 45.3418 42.3934C45.4646 42.3461 45.5636 42.279 45.6467 42.1843C45.7259 42.0897 45.7655 41.9634 45.7655 41.8096C45.7655 41.6754 45.7299 41.565 45.6586 41.4742C45.5873 41.3874 45.4923 41.3085 45.3774 41.2454C45.2626 41.1823 45.1359 41.1231 45.0052 41.0758C44.8824 41.0285 44.7557 40.9772 44.6289 40.9219C44.5022 40.8667 44.3834 40.7957 44.2765 40.7168C44.1656 40.6339 44.0784 40.5353 44.0151 40.413C43.9517 40.2947 43.9161 40.1487 43.9161 39.9791C43.9161 39.7739 43.9676 39.5925 44.0666 39.4386C44.1656 39.2847 44.3042 39.1624 44.4784 39.0757C44.6527 38.9849 44.8547 38.9376 45.0804 38.9297C45.3339 38.9297 45.5596 38.9612 45.7537 39.0204C45.9477 39.0835 46.122 39.1585 46.2685 39.2492L46.0705 39.6477Z" fill="#231F20"/>
<path d="M47.9041 42.8782L49.6308 38.7832H49.6625L51.3813 42.8782H50.7754L49.4882 39.6117L49.8645 39.3671L48.4229 42.8782H47.9041ZM48.914 41.3869H50.3833L50.5575 41.8446H48.7635L48.914 41.3869Z" fill="#231F20"/>
<path d="M56.6327 43.004L53.5832 39.9189L53.7377 39.9584L53.7456 42.8777H53.2189V38.8262H53.2426L56.2644 41.9191L56.1376 41.8915L56.1258 38.9445H56.6485V43.004H56.6327Z" fill="#231F20"/>
<path d="M58.5891 38.9453H61.2069V39.4503H60.1495V42.8785H59.6188V39.4503H58.5891V38.9453Z" fill="#231F20"/>
<path d="M62.4425 42.8782L64.1692 38.7832H64.2009L65.9197 42.8782H65.3137L64.0266 39.6117L64.4028 39.3671L62.9613 42.8782H62.4425ZM63.4524 41.3869H64.9216L65.0959 41.8446H63.3019L63.4524 41.3869Z" fill="#231F20"/>
<path d="M68.8028 38.9453C69.0008 38.9453 69.1869 38.9729 69.3572 39.0242C69.5275 39.0755 69.674 39.1544 69.8008 39.257C69.9275 39.3595 70.0226 39.4858 70.0938 39.6357C70.1651 39.7856 70.2008 39.9592 70.2008 40.1604C70.2008 40.3142 70.177 40.4681 70.1334 40.618C70.0899 40.7679 70.0146 40.9021 69.9077 41.0243C69.8008 41.1466 69.6661 41.2453 69.4958 41.3163C69.3255 41.3912 69.1196 41.4267 68.8701 41.4267H68.284V42.8746H67.7533V38.9453H68.8028ZM68.8543 40.9257C69.0087 40.9257 69.1394 40.9021 69.2424 40.8547C69.3453 40.8074 69.4285 40.7482 69.4839 40.6732C69.5434 40.5983 69.583 40.5194 69.6107 40.4326C69.6344 40.3458 69.6503 40.263 69.6503 40.188C69.6503 40.1091 69.6344 40.0263 69.6107 39.9395C69.583 39.8527 69.5394 39.7738 69.48 39.7028C69.4206 39.6317 69.3414 39.5726 69.2463 39.5252C69.1513 39.4779 69.0325 39.4542 68.8939 39.4542H68.284V40.9297H68.8543V40.9257ZM69.5038 41.2255L70.5374 42.8785H69.9275L68.878 41.2413L69.5038 41.2255Z" fill="#231F20"/>
<path d="M72.0502 42.8782L73.7769 38.7832H73.8086L75.5274 42.8782H74.9215L73.6344 39.6117L74.0106 39.3671L72.569 42.8782H72.0502ZM73.0601 41.3869H74.5294L74.7037 41.8446H72.9096L73.0601 41.3869Z" fill="#231F20"/>
<path d="M24.3639 12.5762C23.061 10.3552 21.0491 9.9725 17.2433 9.9725H11.9127V19.8509H16.3997C18.3086 19.8509 20.3878 19.3144 20.9541 17.7718H21.0175V22.2534H20.9541C20.463 20.9279 18.2373 20.5925 16.3997 20.5925H11.9127V28.9915C11.9127 30.1948 12.8909 31.1692 14.0988 31.1692H17.9284C21.5719 31.1692 24.0352 30.3092 25.1283 28.1434H25.2669V31.9109H5.98801V31.8478C7.54838 31.2008 7.84145 29.9028 7.84145 27.7646V13.3771C7.84145 11.2389 7.54838 9.94094 5.98801 9.29395V9.23083H21.8333C22.4194 9.23083 23.6036 9.12037 24.4709 8.79688V12.5762H24.3639Z" fill="#231F20"/>
<path d="M48.019 13.9658C46.5576 11.3029 43.7854 9.55128 40.2765 9.55128C35.041 9.55128 32.4549 14.2853 32.4549 20.5698C32.4549 26.9844 35.8845 30.7756 40.3082 30.7756C44.0507 30.7756 46.7834 29.2844 48.4071 25.363L48.6011 25.4301C47.821 29.5763 44.5656 32.2353 39.8171 32.2353C33.2905 32.2353 28.4906 28.0693 28.4906 20.5698C28.4906 13.3938 33.6786 8.9043 40.2726 8.9043C42.8745 8.9043 44.6329 10.0365 45.6388 10.0365C46.7121 10.0365 47.5913 9.38954 48.015 8.9043V13.9658H48.019Z" fill="#231F20"/>
<path d="M54.4347 13.3767C54.4347 11.3924 54.3951 9.78672 53.203 9.29359V9.23047H59.2505V9.29359C58.0584 9.78672 57.9515 11.3924 57.9515 13.3767V19.9531H68.7671C69.7176 19.9531 70.4899 19.1838 70.4899 18.237V13.3767C70.4899 11.3924 70.383 9.78672 69.1909 9.29359V9.23047H75.2383V9.29359C73.9433 9.90902 74.0066 12.1261 74.0066 13.3767V27.7643C74.0066 29.8275 73.8601 31.2754 75.2383 31.8474V31.9105H69.1909V31.8474C70.383 31.3543 70.4899 29.7486 70.4899 27.7643V20.6987H59.6742C58.7237 20.6987 57.9515 21.468 57.9515 22.4148V27.7643C57.9515 29.8275 57.8762 31.2754 59.2505 31.8474V31.9105H53.203V31.8474C54.3951 31.3543 54.4347 29.7486 54.4347 27.7643V13.3767Z" fill="#231F20"/>
<path d="M90.6321 32.2392C84.5807 32.2392 79.3729 27.513 79.3729 20.5737C79.3729 13.6344 84.5807 8.9082 90.6321 8.9082C96.6835 8.9082 101.959 13.6344 101.959 20.5737C101.959 27.5091 96.6795 32.2392 90.6321 32.2392ZM90.6321 9.55124C85.5233 9.55124 83.1273 14.3484 83.1273 20.5697C83.1273 26.7911 85.5233 31.5882 90.6321 31.5882C95.7409 31.5882 98.1369 26.7911 98.1369 20.5697C98.1369 14.3524 95.737 9.55124 90.6321 9.55124Z" fill="#231F20"/>
<mask id="mask0_1390_3193" style="mask-type:luminance" maskUnits="userSpaceOnUse" x="102" y="8" width="9" height="8">
<path d="M106.117 12.6386C106.018 15.2147 103.468 15.4002 103.468 15.4002C103.836 12.7649 106.117 12.6386 106.117 12.6386ZM107.428 12.6386C107.428 12.6386 109.709 12.7649 110.077 15.4002C110.081 15.4041 107.527 15.2147 107.428 12.6386ZM103.468 9.24984C103.468 9.24984 106.018 9.43525 106.117 12.0114C106.117 12.0114 103.836 11.8851 103.468 9.24984ZM110.081 9.24984C109.713 11.8851 107.432 12.0114 107.432 12.0114C107.527 9.43525 110.081 9.24984 110.081 9.24984ZM106.905 12.035H106.644C106.561 8.53578 102.992 8.81588 102.992 8.81588C102.992 8.81588 102.806 11.4551 105.036 12.327C102.806 13.1949 102.992 15.8381 102.992 15.8381C102.992 15.8381 106.561 16.1182 106.644 12.6189H106.905C106.988 16.1182 110.557 15.8381 110.557 15.8381C110.557 15.8381 110.743 13.1988 108.513 12.327C110.747 11.4591 110.557 8.81588 110.557 8.81588C110.557 8.81588 110.489 8.81194 110.37 8.81194C109.638 8.81194 106.976 9.01708 106.905 12.035Z" fill="white"/>
</mask>
<g mask="url(#mask0_1390_3193)">
<path d="M107.523 4.65039L114.481 13.0415L106.026 20.0005L99.0676 11.6094L107.523 4.65039Z" fill="url(#paint0_linear_1390_3193)"/>
</g>
<defs>
<linearGradient id="paint0_linear_1390_3193" x1="102.467" y1="7.13868" x2="114.594" y2="21.8756" gradientUnits="userSpaceOnUse">
<stop stop-color="#B69B7C"/>
<stop offset="0.9977" stop-color="#7D716A"/>
<stop offset="1" stop-color="#7D716A"/>
</linearGradient>
</defs>
</svg>
