<svg width="390" height="14" viewBox="0 0 390 14" fill="none" xmlns="http://www.w3.org/2000/svg">
<path d="M0.5 8.5L177.483 5.51714C178.042 5.50772 178.5 5.95812 178.5 6.517V7.5C178.5 8.05228 178.052 8.5 177.5 8.5H0.5Z" fill="white"/>
<path d="M189.692 8.228C189.692 7.696 189.818 7.21067 190.07 6.772C190.331 6.33333 190.681 5.988 191.12 5.736C191.568 5.47467 192.067 5.344 192.618 5.344C193.178 5.344 193.677 5.47467 194.116 5.736C194.554 5.988 194.9 6.33333 195.152 6.772C195.404 7.21067 195.53 7.696 195.53 8.228C195.53 8.76 195.404 9.24533 195.152 9.684C194.9 10.1227 194.55 10.4727 194.102 10.734C193.663 10.986 193.168 11.112 192.618 11.112C192.058 11.112 191.558 10.9907 191.12 10.748C190.681 10.496 190.331 10.1553 190.07 9.726C189.818 9.28733 189.692 8.788 189.692 8.228ZM190.35 8.242C190.35 8.67133 190.448 9.06333 190.644 9.418C190.849 9.76333 191.12 10.0387 191.456 10.244C191.801 10.4493 192.184 10.552 192.604 10.552C193.024 10.552 193.402 10.4493 193.738 10.244C194.083 10.0387 194.354 9.76333 194.55 9.418C194.755 9.06333 194.858 8.67133 194.858 8.242C194.858 7.81267 194.755 7.42533 194.55 7.08C194.354 6.72533 194.083 6.44533 193.738 6.24C193.402 6.02533 193.024 5.918 192.604 5.918C192.174 5.918 191.787 6.03 191.442 6.254C191.106 6.46867 190.84 6.75333 190.644 7.108C190.448 7.46267 190.35 7.84067 190.35 8.242ZM198.057 5.526L198.127 7.206L198.043 6.996C198.165 6.66 198.356 6.37067 198.617 6.128C198.879 5.88533 199.168 5.69867 199.485 5.568C199.812 5.43733 200.125 5.372 200.423 5.372L200.395 6.016C199.975 6.016 199.593 6.10933 199.247 6.296C198.911 6.48267 198.641 6.73467 198.435 7.052C198.239 7.36 198.141 7.71 198.141 8.102V11H197.483V5.526H198.057Z" fill="white"/>
<path d="M389.5 8.5L212.517 5.51714C211.958 5.50772 211.5 5.95812 211.5 6.517V7.5C211.5 8.05228 211.948 8.5 212.5 8.5H389.5Z" fill="white"/>
</svg>
