<svg width="115" height="50" viewBox="0 0 115 50" fill="none" xmlns="http://www.w3.org/2000/svg">
<path d="M36.7029 43.0049L33.6535 39.9199L33.804 39.9594L33.8158 42.8787H33.2852V38.8271H33.3129L36.3306 41.9201L36.2079 41.8924L36.196 38.9455H36.7188V43.0049H36.7029Z" fill="white"/>
<path d="M39.4252 41.4869C39.4252 41.6644 39.4687 41.8222 39.5519 41.9642C39.639 42.1023 39.7499 42.2128 39.8925 42.2917C40.0351 42.3706 40.1935 42.41 40.3717 42.41C40.5578 42.41 40.7241 42.3706 40.8707 42.2917C41.0172 42.2128 41.1321 42.1023 41.2152 41.9642C41.2984 41.8262 41.342 41.6644 41.342 41.4869V38.9463H41.8608V41.5027C41.8608 41.7867 41.7934 42.0392 41.6627 42.2522C41.5281 42.4653 41.3499 42.631 41.1281 42.7493C40.9024 42.8637 40.6529 42.9229 40.3756 42.9229C40.0984 42.9229 39.8489 42.8637 39.6271 42.7493C39.4054 42.6349 39.2271 42.4692 39.0965 42.2522C38.9658 42.0392 38.8984 41.7867 38.8984 41.5027V38.9463H39.4212V41.4869H39.4252Z" fill="white"/>
<path d="M46.0711 39.6477C45.9364 39.5806 45.7899 39.5175 45.6275 39.4702C45.4691 39.4189 45.3107 39.3952 45.1562 39.3952C44.9463 39.3952 44.776 39.4465 44.6533 39.5412C44.5265 39.6398 44.4632 39.77 44.4632 39.9317C44.4632 40.054 44.5028 40.1605 44.582 40.2434C44.6612 40.3302 44.7681 40.4012 44.8988 40.4643C45.0295 40.5274 45.1681 40.5827 45.3107 40.6379C45.4335 40.6852 45.5562 40.7365 45.675 40.7957C45.7939 40.8549 45.9047 40.9259 45.9998 41.0127C46.0948 41.0995 46.174 41.206 46.2295 41.3322C46.2849 41.4585 46.3127 41.6163 46.3127 41.8056C46.3127 42.0108 46.2612 42.2001 46.1582 42.3698C46.0552 42.5394 45.9047 42.6735 45.7146 42.7722C45.5206 42.8708 45.2909 42.9181 45.0255 42.9181C44.8513 42.9181 44.685 42.8984 44.5265 42.8589C44.3681 42.8195 44.2216 42.7682 44.087 42.7051C43.9523 42.642 43.8335 42.5749 43.7266 42.5078L43.9602 42.0936C44.0473 42.1567 44.1464 42.212 44.2612 42.2711C44.3721 42.3264 44.4909 42.3737 44.6137 42.4092C44.7364 42.4447 44.8592 42.4605 44.9741 42.4605C45.0968 42.4605 45.2196 42.4368 45.3424 42.3934C45.4651 42.3461 45.5642 42.279 45.6473 42.1843C45.7265 42.0897 45.7661 41.9634 45.7661 41.8096C45.7661 41.6754 45.7305 41.565 45.6592 41.4742C45.5879 41.3874 45.4929 41.3085 45.378 41.2454C45.2632 41.1823 45.1364 41.1231 45.0057 41.0758C44.883 41.0285 44.7562 40.9772 44.6295 40.9219C44.5028 40.8667 44.384 40.7957 44.277 40.7168C44.1662 40.6339 44.079 40.5353 44.0157 40.413C43.9523 40.2947 43.9167 40.1487 43.9167 39.9791C43.9167 39.7739 43.9681 39.5925 44.0671 39.4386C44.1662 39.2847 44.3048 39.1624 44.479 39.0757C44.6533 38.9849 44.8553 38.9376 45.081 38.9297C45.3345 38.9297 45.5602 38.9612 45.7542 39.0204C45.9483 39.0835 46.1226 39.1585 46.2691 39.2492L46.0711 39.6477Z" fill="white"/>
<path d="M47.9062 42.8791L49.633 38.7842H49.6646L51.3834 42.8791H50.7775L49.4904 39.6126L49.8666 39.368L48.4251 42.8791H47.9062ZM48.9161 41.3879H50.3854L50.5597 41.8455H48.7656L48.9161 41.3879Z" fill="white"/>
<path d="M56.6326 43.0049L53.5831 39.9199L53.7376 39.9594L53.7455 42.8787H53.2188V38.8271H53.2425L56.2642 41.9201L56.1375 41.8924L56.1256 38.9455H56.6484V43.0049H56.6326Z" fill="white"/>
<path d="M58.5898 38.9463H61.2076V39.4513H60.1502V42.8795H59.6195V39.4513H58.5898V38.9463Z" fill="white"/>
<path d="M62.4414 42.8791L64.1681 38.7842H64.1998L65.9186 42.8791H65.3126L64.0255 39.6126L64.4018 39.368L62.9602 42.8791H62.4414ZM63.4513 41.3879H64.9206L65.0948 41.8455H63.3008L63.4513 41.3879Z" fill="white"/>
<path d="M68.8034 38.9463C69.0014 38.9463 69.1875 38.9739 69.3578 39.0252C69.5281 39.0765 69.6747 39.1554 69.8014 39.2579C69.9281 39.3605 70.0232 39.4868 70.0945 39.6367C70.1657 39.7866 70.2014 39.9602 70.2014 40.1614C70.2014 40.3152 70.1776 40.4691 70.1341 40.619C70.0905 40.7689 70.0153 40.903 69.9083 41.0253C69.8014 41.1476 69.6667 41.2462 69.4964 41.3173C69.3262 41.3922 69.1202 41.4277 68.8707 41.4277H68.2846V42.8755H67.7539V38.9463H68.8034ZM68.8549 40.9267C69.0093 40.9267 69.14 40.903 69.243 40.8557C69.346 40.8083 69.4291 40.7492 69.4846 40.6742C69.544 40.5993 69.5836 40.5204 69.6113 40.4336C69.6351 40.3468 69.6509 40.2639 69.6509 40.189C69.6509 40.1101 69.6351 40.0272 69.6113 39.9404C69.5836 39.8536 69.54 39.7747 69.4806 39.7037C69.4212 39.6327 69.342 39.5736 69.247 39.5262C69.1519 39.4789 69.0331 39.4552 68.8945 39.4552H68.2846V40.9306H68.8549V40.9267ZM69.5044 41.2265L70.538 42.8795H69.9281L68.8786 41.2423L69.5044 41.2265Z" fill="white"/>
<path d="M72.0508 42.8791L73.7775 38.7842H73.8092L75.528 42.8791H74.922L73.6349 39.6126L74.0111 39.368L72.5696 42.8791H72.0508ZM73.0607 41.3879H74.53L74.7042 41.8455H72.9102L73.0607 41.3879Z" fill="white"/>
<path d="M24.3642 12.5772C23.0613 10.3561 21.0494 9.97347 17.2435 9.97347H11.9129V19.8519H16.4C18.3089 19.8519 20.388 19.3153 20.9544 17.7728H21.0177V22.2544H20.9544C20.4633 20.9289 18.2376 20.5935 16.4 20.5935H11.9129V28.9925C11.9129 30.1958 12.8911 31.1702 14.099 31.1702H17.9287C21.5722 31.1702 24.0355 30.3102 25.1285 28.1443H25.2672V31.9118H5.98828V31.8487C7.54865 31.2017 7.84171 29.9038 7.84171 27.7656V13.378C7.84171 11.2398 7.54865 9.94191 5.98828 9.29493V9.23181H21.8336C22.4197 9.23181 23.6038 9.12134 24.4711 8.79785V12.5772H24.3642Z" fill="white"/>
<path d="M48.0206 13.9658C46.5592 11.3029 43.787 9.55128 40.2781 9.55128C35.0426 9.55128 32.4565 14.2853 32.4565 20.5698C32.4565 26.9844 35.8861 30.7756 40.3098 30.7756C44.0523 30.7756 46.7849 29.2844 48.4087 25.363L48.6027 25.4301C47.8225 29.5763 44.5672 32.2353 39.8187 32.2353C33.2921 32.2353 28.4922 28.0693 28.4922 20.5698C28.4922 13.3938 33.6802 8.9043 40.2742 8.9043C42.8761 8.9043 44.6345 10.0365 45.6404 10.0365C46.7137 10.0365 47.5928 9.38954 48.0166 8.9043V13.9658H48.0206Z" fill="white"/>
<path d="M54.4348 13.3777C54.4348 11.3933 54.3952 9.7877 53.2031 9.29457V9.23145H59.2505V9.29457C58.0585 9.7877 57.9516 11.3933 57.9516 13.3777V19.9541H68.7672C69.7177 19.9541 70.49 19.1848 70.49 18.238V13.3777C70.49 11.3933 70.383 9.7877 69.191 9.29457V9.23145H75.2384V9.29457C73.9434 9.90999 74.0067 12.1271 74.0067 13.3777V27.7652C74.0067 29.8285 73.8602 31.2763 75.2384 31.8484V31.9115H69.191V31.8484C70.383 31.3552 70.49 29.7496 70.49 27.7652V20.6997H59.6743C58.7238 20.6997 57.9516 21.469 57.9516 22.4158V27.7652C57.9516 29.8285 57.8763 31.2763 59.2505 31.8484V31.9115H53.2031V31.8484C54.3952 31.3552 54.4348 29.7496 54.4348 27.7652V13.3777Z" fill="white"/>
<path d="M90.6342 32.2392C84.5828 32.2392 79.375 27.513 79.375 20.5737C79.375 13.6344 84.5828 8.9082 90.6342 8.9082C96.6856 8.9082 101.961 13.6344 101.961 20.5737C101.961 27.5091 96.6816 32.2392 90.6342 32.2392ZM90.6342 9.55124C85.5254 9.55124 83.1294 14.3484 83.1294 20.5697C83.1294 26.7911 85.5254 31.5882 90.6342 31.5882C95.743 31.5882 98.139 26.7911 98.139 20.5697C98.139 14.3524 95.7391 9.55124 90.6342 9.55124Z" fill="white"/>
<mask id="mask0_2362_1338" style="mask-type:luminance" maskUnits="userSpaceOnUse" x="102" y="8" width="9" height="8">
<path d="M106.117 12.6406C106.018 15.2167 103.467 15.4021 103.467 15.4021C103.836 12.7668 106.117 12.6406 106.117 12.6406ZM107.428 12.6406C107.428 12.6406 109.709 12.7668 110.077 15.4021C110.081 15.4061 107.527 15.2167 107.428 12.6406ZM103.467 9.25179C103.467 9.25179 106.018 9.43721 106.117 12.0133C106.117 12.0133 103.836 11.8871 103.467 9.25179ZM110.081 9.25179C109.713 11.8871 107.432 12.0133 107.432 12.0133C107.527 9.43721 110.081 9.25179 110.081 9.25179ZM106.905 12.037H106.644C106.56 8.53774 102.992 8.81783 102.992 8.81783C102.992 8.81783 102.806 11.4571 105.036 12.3289C102.806 13.1968 102.992 15.84 102.992 15.84C102.992 15.84 106.56 16.1201 106.644 12.6209H106.905C106.988 16.1201 110.556 15.84 110.556 15.84C110.556 15.84 110.742 13.2008 108.513 12.3289C110.746 11.461 110.556 8.81783 110.556 8.81783C110.556 8.81783 110.489 8.81389 110.37 8.81389C109.638 8.81389 106.976 9.01903 106.905 12.037Z" fill="white"/>
</mask>
<g mask="url(#mask0_2362_1338)">
<path d="M107.522 4.65234L114.48 13.0434L106.025 20.0025L99.0664 11.6114L107.522 4.65234Z" fill="url(#paint0_linear_2362_1338)"/>
</g>
<defs>
<linearGradient id="paint0_linear_2362_1338" x1="102.466" y1="7.14063" x2="114.593" y2="21.8775" gradientUnits="userSpaceOnUse">
<stop stop-color="#B69B7C"/>
<stop offset="0.9977" stop-color="#7D716A"/>
<stop offset="1" stop-color="#7D716A"/>
</linearGradient>
</defs>
</svg>
