<svg width="32" height="32" viewBox="0 0 32 32" fill="none" xmlns="http://www.w3.org/2000/svg">
<g clip-path="url(#clip0_228_400)">
<path fill-rule="evenodd" clip-rule="evenodd" d="M19.069 20.3129H20.2274V8.1812C21.1508 9.64732 22.0383 11.1337 22.8277 12.6777C23.4028 13.8037 23.6021 14.722 23.4519 15.9798C23.3664 16.7024 23.0791 17.3623 22.6599 17.9507C22.5062 18.1644 22.3382 18.3674 22.1571 18.558C22.0314 18.6942 21.8799 18.8284 21.7623 18.9709C21.4711 19.3333 21.3154 19.7872 21.3224 20.2534L21.3136 22.0716C21.3136 22.5827 21.1395 22.7892 20.6222 22.7892H17.7755V2.33319L17.3091 1.65745L16.6177 2.65175V22.7911H11.03C10.5158 22.7911 10.3442 22.5846 10.3417 22.0735V21.8835H9.18267V22.0799C9.18832 23.2198 9.85584 23.9589 11.0293 23.9589H20.6259C21.7994 23.9589 22.4669 23.2211 22.4726 22.0799L22.4814 20.2433C22.4792 20.0552 22.5384 19.8716 22.6498 19.7208C22.8309 19.5023 24.3469 18.2414 24.5983 16.1217C24.7712 14.6682 24.555 13.52 23.8535 12.1464C22.438 9.37309 20.7334 6.81768 19.069 4.2439V20.3129ZM13.859 6.9589L15.0174 5.18563V20.3129H13.859V6.9589ZM11.3511 6.15396C12.5152 4.35092 13.6284 2.61248 15.1299 0.424389C15.5699 -0.138626 15.8628 -0.145592 16.4662 0.424389C15.1268 2.42819 13.8263 4.42186 12.5064 6.48962V20.3129H10.5893C10.1984 20.3129 9.70938 20.4326 9.00604 19.7195C8.82502 19.5017 7.30897 18.2401 7.05756 16.1204C6.88471 14.6669 7.10093 13.5188 7.80238 12.1451C8.53715 10.7075 9.34923 9.32813 10.1908 7.9741V10.2103C9.71504 11.0203 9.25809 11.8411 8.83005 12.6802C8.25431 13.8063 8.05569 14.7246 8.20528 15.9823C8.29076 16.7049 8.578 17.3649 8.99724 17.9532C9.31717 18.4022 9.63019 18.7258 10.0369 19.1464H11.3455C11.3474 14.8164 11.3511 10.4782 11.3511 6.15396Z" fill="#C1AE94"/>
<path fill-rule="evenodd" clip-rule="evenodd" d="M8.32018 25.8581V25.8828C8.24057 25.9672 8.18819 26.1027 8.16305 26.2893C8.13659 26.5023 8.1242 26.7169 8.12596 26.9315V27.3881L9.24603 27.2475V26.9309C9.24747 26.7162 9.23509 26.5017 9.20894 26.2887C9.1838 26.1012 9.13142 25.9657 9.05181 25.8821V25.8574H10.3366V25.8821C10.2565 25.9666 10.2041 26.1021 10.1794 26.2887C10.1533 26.5017 10.1409 26.7162 10.1423 26.9309V28.2963C10.1409 28.511 10.1533 28.7255 10.1794 28.9385C10.2046 29.1285 10.2567 29.2608 10.3366 29.3444V29.3698H9.05055V29.3444C9.13037 29.2608 9.18254 29.1259 9.20768 28.9385C9.23383 28.7255 9.24622 28.511 9.24477 28.2963V27.8948L8.1247 28.0354V28.2963C8.12294 28.511 8.13533 28.7255 8.16179 28.9385C8.18693 29.1285 8.2391 29.2608 8.31892 29.3444V29.3698H7.03418V29.3444C7.114 29.2608 7.16617 29.1259 7.19069 28.9385C7.21738 28.7255 7.22998 28.511 7.2284 28.2963V26.9315C7.22998 26.7169 7.21738 26.5023 7.19069 26.2893C7.16596 26.1019 7.1138 25.9664 7.03418 25.8828V25.8581H8.32018ZM12.5371 27.0873L12.1486 28.0905L12.896 27.9955L12.5371 27.0873ZM11.874 28.7776C11.8512 28.8417 11.8321 28.907 11.8168 28.9733C11.8056 29.0211 11.7997 29.0699 11.7992 29.119C11.7973 29.1677 11.8049 29.2164 11.8218 29.2621C11.8332 29.2919 11.8491 29.3196 11.8689 29.3444V29.3698H10.5591V29.3444C10.6736 29.2155 10.7685 29.0702 10.8406 28.9132C10.9217 28.7428 10.9909 28.5819 11.0474 28.4318L11.8539 26.3748C11.8797 26.3122 11.9007 26.2476 11.9167 26.1817C11.9229 26.1544 11.9271 26.1266 11.9293 26.0987C11.9312 26.0524 11.9235 26.0063 11.9067 25.9632C11.8944 25.9345 11.8785 25.9074 11.8595 25.8828V25.8581H13.0248L14.0305 28.4318C14.0871 28.5819 14.1562 28.7428 14.2373 28.9132C14.3092 29.0702 14.4039 29.2155 14.5183 29.3444V29.3698H13.2084V29.3444C13.2278 29.3193 13.2436 29.2916 13.2555 29.2621C13.2724 29.2164 13.2801 29.1677 13.2781 29.119C13.2772 29.0691 13.2713 29.0195 13.2605 28.9708C13.2448 28.9058 13.2238 28.8423 13.1977 28.7808L13.1348 28.6155L11.8777 28.7707L11.8727 28.7808L11.874 28.7776ZM16.0016 25.8581V25.8828C15.922 25.9672 15.8696 26.1027 15.8445 26.2893C15.8183 26.5024 15.8059 26.7169 15.8074 26.9315V28.6022H16.4246C16.534 28.6022 16.6377 28.6022 16.7358 28.6022C16.8293 28.6008 16.9226 28.5924 17.0148 28.5769C17.1012 28.5629 17.1856 28.5387 17.2662 28.5047C17.3479 28.4688 17.4241 28.4215 17.4925 28.3641L17.5177 28.3691L17.331 29.4363L17.3058 29.4464C17.2564 29.4267 17.2046 29.4133 17.1519 29.4065C17.089 29.3964 17.0173 29.3888 16.9375 29.3837C16.8577 29.3786 16.7722 29.3729 16.6798 29.3729C16.5874 29.3729 16.495 29.3729 16.3989 29.3729H14.7169V29.3476C14.7967 29.264 14.8489 29.1291 14.874 28.9417C14.9002 28.7286 14.9125 28.5141 14.9111 28.2995V26.9315C14.9125 26.7169 14.9002 26.5024 14.874 26.2893C14.8489 26.1019 14.7965 25.9664 14.7169 25.8828V25.8581H16.0016ZM19.6415 27.0873L19.2531 28.0905L19.9998 27.9955L19.6415 27.0873ZM18.979 28.7776C18.9562 28.8417 18.9371 28.907 18.9218 28.9733C18.9107 29.0211 18.9048 29.0699 18.9042 29.119C18.9023 29.1677 18.91 29.2164 18.9269 29.2621C18.9387 29.2916 18.9546 29.3193 18.974 29.3444V29.3698H17.6647V29.3444C17.7791 29.2155 17.8738 29.0702 17.9457 28.9132C18.0274 28.7428 18.0959 28.5819 18.1525 28.4318L18.9589 26.3748C18.9847 26.3122 19.0058 26.2476 19.0218 26.1817C19.0283 26.1544 19.0325 26.1267 19.0343 26.0987C19.0392 26.0204 19.0142 25.9432 18.9646 25.8828V25.8581H20.1299L21.1356 28.4318C21.1921 28.5819 21.2613 28.7428 21.3424 28.9132C21.4143 29.0702 21.509 29.2155 21.6233 29.3444V29.3698H20.3134V29.3444C20.3331 29.3195 20.3489 29.2917 20.3606 29.2621C20.3774 29.2164 20.3851 29.1677 20.3832 29.119C20.3826 29.0691 20.3767 29.0194 20.3656 28.9708C20.3504 28.9057 20.3294 28.8421 20.3027 28.7808L20.2399 28.6155L18.9828 28.7707L18.9778 28.7808L18.979 28.7776ZM23.1067 25.8581V25.8828C23.0271 25.9672 22.9749 26.1027 22.9502 26.2893C22.9235 26.5023 22.9109 26.7169 22.9125 26.9315V28.6022H23.5309C23.6409 28.6022 23.7447 28.6022 23.8452 28.6022C23.9385 28.6008 24.0316 28.5923 24.1237 28.5769C24.21 28.5629 24.2944 28.5387 24.3751 28.5047C24.4569 28.4689 24.5333 28.4215 24.602 28.3641L24.6265 28.3691L24.436 29.4363L24.4115 29.4464C24.3618 29.4268 24.3099 29.4134 24.2569 29.4065C24.1941 29.3964 24.1224 29.3888 24.0426 29.3837C23.9628 29.3786 23.8779 29.3755 23.7861 29.3736C23.6944 29.3717 23.6013 29.3736 23.5052 29.3736H21.8219V29.3482C21.9018 29.2646 21.9539 29.1297 21.9791 28.9423C22.0054 28.728 22.0178 28.5122 22.0162 28.2963V26.9315C22.0176 26.7169 22.0052 26.5024 21.9791 26.2893C21.9539 26.1019 21.9015 25.9664 21.8219 25.8828V25.8581H23.1067Z" fill="#C1AE94"/>
<path fill-rule="evenodd" clip-rule="evenodd" d="M7.39855 31.9321C7.39938 31.9372 7.39902 31.9423 7.3975 31.9473C7.39598 31.9522 7.39334 31.9566 7.3898 31.9603C7.38626 31.964 7.38191 31.9668 7.3771 31.9685C7.37229 31.9702 7.36715 31.9708 7.3621 31.9701H7.08679C7.08175 31.9703 7.07671 31.9695 7.07196 31.9678C7.06722 31.9661 7.06286 31.9634 7.05914 31.96C7.0556 31.9563 7.05287 31.9519 7.05114 31.9471C7.0494 31.9423 7.0487 31.9372 7.04908 31.9321V30.5882C7.04845 30.5831 7.049 30.5779 7.05068 30.573C7.05237 30.5682 7.05514 30.5638 7.05878 30.5601C7.06243 30.5565 7.06685 30.5538 7.07171 30.5522C7.07657 30.5506 7.08173 30.5501 7.08679 30.5508H7.3621C7.36709 30.5502 7.37216 30.5507 7.37692 30.5524C7.38167 30.5541 7.38598 30.5568 7.38951 30.5604C7.39304 30.564 7.39569 30.5684 7.39726 30.5732C7.39883 30.5781 7.39927 30.5832 7.39855 30.5882V31.9321ZM9.70342 30.5502C9.70843 30.5499 9.71345 30.5505 9.7182 30.5521C9.72295 30.5538 9.72733 30.5563 9.73108 30.5597C9.73779 30.5676 9.74117 30.5778 9.74051 30.5882V31.9327C9.7411 31.9378 9.74055 31.943 9.7389 31.9478C9.73725 31.9526 9.73455 31.957 9.73099 31.9607C9.72744 31.9643 9.72311 31.9671 9.71834 31.9689C9.71357 31.9706 9.70847 31.9712 9.70342 31.9707H9.44069C9.42576 31.9707 9.41111 31.9667 9.39827 31.959C9.38544 31.9513 9.37491 31.9402 9.36778 31.927L8.82346 31.0961V31.9327C8.82405 31.9378 8.8235 31.943 8.82186 31.9478C8.82021 31.9526 8.81751 31.957 8.81395 31.9607C8.81039 31.9643 8.80607 31.9671 8.8013 31.9689C8.79652 31.9706 8.79143 31.9712 8.78638 31.9707H8.51107C8.50598 31.9713 8.50081 31.9708 8.49595 31.9691C8.4911 31.9674 8.4867 31.9646 8.48307 31.9609C8.47943 31.9573 8.47668 31.9528 8.47499 31.948C8.47331 31.9431 8.47275 31.9379 8.47336 31.9327V30.5882C8.47275 30.5831 8.47331 30.5779 8.47499 30.573C8.47668 30.5681 8.47943 30.5636 8.48307 30.56C8.4867 30.5563 8.4911 30.5535 8.49595 30.5518C8.50081 30.5502 8.50598 30.5496 8.51107 30.5502H8.7958C8.8107 30.551 8.82515 30.5556 8.83779 30.5636C8.85044 30.5716 8.86086 30.5827 8.86809 30.5958L9.38978 31.3773V30.5882C9.38939 30.583 9.39009 30.5778 9.39182 30.5729C9.39355 30.568 9.39628 30.5635 9.39984 30.5597C9.40333 30.5564 9.40749 30.5538 9.41204 30.5521C9.41658 30.5505 9.42142 30.5498 9.42623 30.5502H9.70342ZM10.8172 30.6015C10.8173 30.5877 10.8227 30.5746 10.8323 30.5648C10.8421 30.5553 10.8552 30.5501 10.8687 30.5502H11.3087C11.4368 30.5481 11.5632 30.5793 11.6758 30.6408C11.7812 30.7002 11.8683 30.7878 11.9272 30.8941C11.9867 31.0073 12.0177 31.1334 12.0177 31.2614C12.0177 31.3895 11.9867 31.5156 11.9272 31.6287C11.8684 31.7351 11.7813 31.8228 11.6758 31.8821C11.5621 31.9428 11.4348 31.973 11.3062 31.9695H10.8662C10.8594 31.9695 10.8527 31.9682 10.8465 31.9656C10.8402 31.963 10.8345 31.9591 10.8298 31.9543C10.8202 31.9445 10.8147 31.9313 10.8147 31.9175V30.6015H10.8172ZM11.3068 31.6357C11.3711 31.6367 11.4343 31.6199 11.4897 31.5872C11.5451 31.5544 11.5906 31.5071 11.6211 31.4501C11.6528 31.392 11.6688 31.3265 11.6676 31.2601C11.6687 31.1924 11.6527 31.1255 11.6211 31.0657C11.5925 31.0092 11.549 30.9616 11.4954 30.9283C11.4397 30.8945 11.3756 30.8772 11.3106 30.8783H11.1717V31.6332L11.3068 31.6357ZM12.9637 31.2633C12.9624 31.1322 12.9961 31.0032 13.0611 30.8897C13.1246 30.7782 13.2164 30.6857 13.327 30.6218C13.44 30.5576 13.5675 30.5239 13.6972 30.5239C13.8269 30.5239 13.9544 30.5576 14.0674 30.6218C14.178 30.6857 14.2698 30.7782 14.3333 30.8897C14.3971 31.0033 14.4307 31.1317 14.4307 31.2624C14.4307 31.393 14.3971 31.5214 14.3333 31.6351C14.27 31.7461 14.1784 31.8382 14.068 31.9017C13.955 31.966 13.8273 31.9997 13.6975 31.9997C13.5677 31.9997 13.4401 31.966 13.327 31.9017C13.2163 31.8384 13.1245 31.7463 13.0611 31.6351C12.9962 31.5222 12.9625 31.3938 12.9637 31.2633ZM13.3132 31.2633C13.3121 31.3314 13.3297 31.3985 13.3641 31.4571C13.3982 31.5155 13.4469 31.564 13.5053 31.5977C13.5638 31.6313 13.6299 31.649 13.6972 31.649C13.7645 31.649 13.8306 31.6313 13.8891 31.5977C13.9475 31.564 13.9962 31.5155 14.0303 31.4571C14.0646 31.3984 14.0824 31.3314 14.0819 31.2633C14.0823 31.1946 14.0645 31.1271 14.0303 31.0676C13.9972 31.0089 13.949 30.9604 13.8908 30.927C13.8322 30.8928 13.7655 30.8751 13.6978 30.8757C13.6295 30.875 13.5622 30.8927 13.503 30.927C13.4449 30.9614 13.3969 31.0106 13.3638 31.0696C13.3307 31.1287 13.3137 31.1955 13.3144 31.2633H13.3132ZM16.6689 30.5502C16.6741 30.5498 16.6792 30.5504 16.684 30.5521C16.6889 30.5537 16.6934 30.5563 16.6972 30.5597C16.7039 30.5676 16.7073 30.5778 16.7067 30.5882V31.9327C16.707 31.9379 16.7064 31.9431 16.7046 31.948C16.7029 31.953 16.7002 31.9574 16.6966 31.9612C16.689 31.9679 16.679 31.9713 16.6689 31.9707H16.4068C16.3918 31.9706 16.3771 31.9666 16.3642 31.9589C16.3513 31.9512 16.3406 31.9402 16.3333 31.927L15.7915 31.0961V31.9327C15.7919 31.9379 15.7912 31.9431 15.7895 31.948C15.7877 31.953 15.785 31.9574 15.7814 31.9612C15.7738 31.9679 15.7639 31.9713 15.7538 31.9707H15.4791C15.474 31.9713 15.4688 31.9708 15.464 31.9691C15.4591 31.9674 15.4547 31.9646 15.4511 31.9609C15.4475 31.9573 15.4447 31.9528 15.443 31.948C15.4414 31.9431 15.4408 31.9379 15.4414 31.9327V30.5882C15.4408 30.5831 15.4414 30.5779 15.443 30.573C15.4447 30.5681 15.4475 30.5636 15.4511 30.56C15.4547 30.5563 15.4591 30.5535 15.464 30.5518C15.4688 30.5502 15.474 30.5496 15.4791 30.5502H15.7638C15.7787 30.551 15.7932 30.5556 15.8058 30.5636C15.8185 30.5716 15.8289 30.5827 15.8361 30.5958L16.3578 31.3773V30.5882C16.3572 30.5778 16.3605 30.5676 16.3672 30.5597C16.3709 30.5564 16.3752 30.5539 16.3798 30.5522C16.3845 30.5506 16.3894 30.5499 16.3943 30.5502H16.6689ZM17.7834 30.6015C17.7829 30.5945 17.7838 30.5876 17.7862 30.581C17.7886 30.5745 17.7923 30.5685 17.7972 30.5635C17.8023 30.5588 17.8082 30.5553 17.8147 30.553C17.8212 30.5507 17.828 30.5497 17.8349 30.5502H18.7419C18.7486 30.5498 18.7554 30.5508 18.7618 30.553C18.7681 30.5553 18.774 30.5589 18.779 30.5635C18.7838 30.5685 18.7875 30.5745 18.7899 30.581C18.7923 30.5876 18.7933 30.5945 18.7928 30.6015V30.8251C18.7936 30.832 18.7928 30.839 18.7906 30.8456C18.7883 30.8522 18.7846 30.8582 18.7797 30.8631C18.7748 30.8681 18.7688 30.8718 18.7623 30.8741C18.7557 30.8764 18.7488 30.8772 18.7419 30.8764H18.1291V31.112H18.5942C18.6091 31.1111 18.6237 31.1161 18.635 31.1259C18.6402 31.131 18.6442 31.1371 18.6468 31.1439C18.6494 31.1506 18.6505 31.1579 18.6501 31.1652V31.3501C18.6505 31.357 18.6493 31.364 18.6467 31.3705C18.6441 31.3769 18.6401 31.3827 18.635 31.3874C18.6235 31.3968 18.609 31.4017 18.5942 31.4014H18.1291V31.6433H18.7419C18.7605 31.6424 18.7787 31.6487 18.7928 31.661C18.7991 31.6673 18.8041 31.6748 18.8073 31.6831C18.8106 31.6914 18.8121 31.7003 18.8117 31.7092V31.9194C18.8121 31.9262 18.8111 31.933 18.8087 31.9393C18.8063 31.9456 18.8026 31.9514 18.7978 31.9562C18.7928 31.9609 18.7868 31.9645 18.7804 31.9669C18.7739 31.9693 18.767 31.9704 18.7601 31.9701H17.8343C17.8274 31.9706 17.8205 31.9696 17.8141 31.9673C17.8076 31.965 17.8016 31.9615 17.7966 31.9568C17.7918 31.9519 17.7881 31.946 17.7857 31.9396C17.7833 31.9332 17.7823 31.9263 17.7827 31.9194V30.6015H17.7834ZM19.823 31.8529C19.8156 31.849 19.8095 31.8432 19.8052 31.8361C19.8009 31.8289 19.7985 31.8208 19.7985 31.8124C19.7989 31.8001 19.8024 31.7882 19.8085 31.7776L19.9229 31.5717C19.9268 31.5635 19.9329 31.5565 19.9406 31.5517C19.9483 31.5469 19.9572 31.5444 19.9663 31.5445C19.9773 31.545 19.9882 31.5476 19.9983 31.5521C20.0576 31.5797 20.119 31.6026 20.1819 31.6205C20.2433 31.6373 20.3068 31.6456 20.3704 31.6452C20.4141 31.6469 20.4574 31.637 20.4962 31.6167C20.511 31.6099 20.5236 31.5991 20.5326 31.5854C20.5416 31.5718 20.5466 31.5558 20.5471 31.5394C20.5475 31.5273 20.5451 31.5153 20.5401 31.5043C20.5351 31.4933 20.5276 31.4836 20.5182 31.4761C20.4939 31.4564 20.4665 31.4409 20.4371 31.4305C20.4025 31.4172 20.3528 31.4007 20.2894 31.3817C20.2053 31.3582 20.1238 31.3261 20.0461 31.2861C19.9885 31.2568 19.9392 31.2132 19.9028 31.1595C19.8679 31.0995 19.8507 31.0307 19.8532 30.9612C19.8511 30.8773 19.8763 30.7951 19.9248 30.7269C19.973 30.6611 20.0383 30.6098 20.1134 30.5787C20.1952 30.5451 20.2827 30.5281 20.3711 30.5287C20.4308 30.5288 20.4902 30.5358 20.5483 30.5496C20.6038 30.5617 20.6581 30.5789 20.7105 30.6009C20.7522 30.6181 20.7922 30.6394 20.8299 30.6642C20.8381 30.6684 20.8451 30.6746 20.8502 30.6822C20.8554 30.6899 20.8586 30.6987 20.8594 30.7079C20.8583 30.7212 20.854 30.734 20.8469 30.7453L20.7319 30.9549C20.7284 30.9625 20.7228 30.9689 20.7157 30.9734C20.7087 30.9779 20.7006 30.9803 20.6923 30.9802C20.6773 30.9791 20.6627 30.9748 20.6495 30.9676C20.6017 30.9423 20.5519 30.9211 20.5006 30.9042C20.4509 30.8886 20.3992 30.8811 20.3472 30.8821C20.3103 30.8812 20.2739 30.8902 20.2416 30.908C20.2293 30.9137 20.2188 30.9226 20.2111 30.9337C20.2034 30.9448 20.1987 30.9578 20.1976 30.9714C20.1976 30.9999 20.2164 31.0239 20.2542 31.0442C20.313 31.0727 20.3745 31.0954 20.4377 31.112C20.5238 31.1366 20.6079 31.1679 20.6891 31.2057C20.7505 31.2343 20.8038 31.2778 20.8444 31.3323C20.8859 31.3943 20.9066 31.468 20.9034 31.5426C20.905 31.6281 20.8797 31.7119 20.8312 31.782C20.7811 31.8518 20.7128 31.9061 20.6338 31.9391C20.5469 31.9761 20.4534 31.9946 20.3591 31.9935C20.2641 31.9935 20.1695 31.9811 20.0775 31.9568C19.9891 31.9337 19.9044 31.8979 19.8261 31.8504L19.823 31.8529ZM22.2617 31.9321C22.2617 31.9574 22.2498 31.9701 22.2253 31.9701H21.9506C21.9455 31.9704 21.9403 31.9697 21.9354 31.9679C21.9306 31.9662 21.9261 31.9635 21.9223 31.96C21.9189 31.9562 21.9163 31.9518 21.9145 31.947C21.9128 31.9423 21.912 31.9372 21.9123 31.9321V30.5882C21.9116 30.583 21.9122 30.5778 21.9139 30.5729C21.9156 30.5679 21.9184 30.5635 21.9221 30.5599C21.9259 30.5562 21.9304 30.5535 21.9353 30.552C21.9403 30.5504 21.9455 30.55 21.9506 30.5508H22.2253C22.2303 30.5502 22.2353 30.5507 22.2401 30.5524C22.2449 30.5541 22.2492 30.5568 22.2527 30.5604C22.2562 30.564 22.2589 30.5684 22.2604 30.5732C22.262 30.5781 22.2624 30.5832 22.2617 30.5882V31.9321ZM24.6024 31.9144C24.6054 31.9214 24.6071 31.9289 24.6075 31.9365C24.6077 31.9413 24.6067 31.9461 24.6048 31.9505C24.6028 31.9549 24.5999 31.9588 24.5961 31.9619C24.5873 31.969 24.5761 31.9727 24.5647 31.972H24.2913C24.2776 31.9718 24.2644 31.9671 24.2536 31.9587C24.2429 31.9498 24.2346 31.9382 24.2297 31.9251L24.1668 31.7383H23.6778L23.615 31.9239C23.6118 31.9375 23.6037 31.9494 23.5924 31.9574C23.581 31.9663 23.5671 31.971 23.5528 31.9707H23.28C23.2687 31.9716 23.2575 31.9682 23.2485 31.9612C23.2448 31.9582 23.2419 31.9543 23.2399 31.9499C23.238 31.9455 23.237 31.9407 23.2372 31.9359C23.2376 31.9283 23.2393 31.9207 23.2423 31.9137L23.757 30.5964C23.7628 30.5826 23.7721 30.5706 23.7841 30.5616C23.7953 30.5537 23.8087 30.5493 23.8224 30.5489H24.0261C24.0399 30.549 24.0534 30.5537 24.0644 30.5622C24.076 30.571 24.085 30.5828 24.0902 30.5964L24.5999 31.9144H24.6024ZM24.0663 31.4451L23.9205 31.0144L23.7753 31.4451H24.0663Z" fill="#C1AE94"/>
</g>
<defs>
<clipPath id="clip0_228_400">
<rect width="17.6552" height="32" fill="white" transform="translate(7)"/>
</clipPath>
</defs>
</svg>
