<svg width="426" height="24" viewBox="0 0 426 24" fill="none" xmlns="http://www.w3.org/2000/svg">
<path d="M204.661 14.0537C204.661 12.8994 205.068 11.9092 205.882 11.083C206.703 10.251 207.684 9.83496 208.827 9.83496C209.969 9.83496 210.962 10.2393 211.806 11.0479C212.65 11.8506 213.072 12.8438 213.072 14.0273C213.072 15.2109 212.67 16.21 211.868 17.0244C211.071 17.833 210.069 18.2373 208.862 18.2373C207.655 18.2373 206.653 17.8271 205.856 17.0068C205.059 16.1865 204.661 15.2021 204.661 14.0537ZM206.849 16.3125C207.423 17.2793 208.206 17.7627 209.196 17.7627C209.963 17.7627 210.549 17.4551 210.954 16.8398C211.364 16.2246 211.569 15.4688 211.569 14.5723C211.569 13.6758 211.282 12.7559 210.707 11.8125C210.139 10.8691 209.372 10.3975 208.405 10.3975C207.696 10.3975 207.136 10.7051 206.726 11.3203C206.322 11.9297 206.12 12.7061 206.12 13.6494C206.12 14.5869 206.363 15.4746 206.849 16.3125ZM219.699 11.6982C219.628 11.6865 219.526 11.6484 219.391 11.584C218.905 11.3613 218.524 11.25 218.249 11.25C217.973 11.25 217.683 11.4229 217.378 11.7686C217.08 12.1084 216.93 12.416 216.93 12.6914V16.6641C216.93 17.1035 217.185 17.3965 217.695 17.543C217.917 17.6016 218.125 17.6455 218.319 17.6748C218.512 17.6982 218.635 17.7217 218.688 17.7451C218.747 17.7686 218.776 17.8154 218.776 17.8857C218.776 17.9502 218.747 17.9883 218.688 18H214.285C214.226 17.9883 214.197 17.9473 214.197 17.877C214.197 17.7715 214.334 17.7012 214.61 17.666C215.243 17.5723 215.559 17.2383 215.559 16.6641V12.0146C215.559 11.7686 215.424 11.5986 215.155 11.5049C215.038 11.4639 214.912 11.4316 214.777 11.4082C214.642 11.3789 214.534 11.3525 214.452 11.3291C214.375 11.3057 214.326 11.2852 214.302 11.2676C214.285 11.2441 214.276 11.2002 214.276 11.1357C214.276 11.0654 214.32 11.0068 214.408 10.96L216.649 9.90527C216.719 9.87012 216.763 9.85254 216.781 9.85254C216.88 9.85254 216.93 9.92285 216.93 10.0635V11.4873C216.93 11.5576 216.948 11.5928 216.983 11.5928C217.03 11.5928 217.15 11.4551 217.343 11.1797C217.9 10.4004 218.36 10.0107 218.723 10.0107C218.928 10.0107 219.242 10.0928 219.664 10.2568C220.091 10.4209 220.305 10.5586 220.305 10.6699C220.305 10.8047 220.238 11.0098 220.103 11.2852C219.968 11.5605 219.833 11.6982 219.699 11.6982Z" fill="white"/>
<path d="M237.551 15H425.999" stroke="url(#paint0_linear_2174_4947)"/>
<path d="M0 15H188.449" stroke="url(#paint1_linear_2174_4947)"/>
<defs>
<linearGradient id="paint0_linear_2174_4947" x1="237.551" y1="15.5" x2="425.999" y2="15.5" gradientUnits="userSpaceOnUse">
<stop offset="0.321" stop-color="#829AA4"/>
<stop offset="1" stop-color="#EEF6FA"/>
</linearGradient>
<linearGradient id="paint1_linear_2174_4947" x1="0" y1="15.5" x2="188.449" y2="15.5" gradientUnits="userSpaceOnUse">
<stop offset="0.679" stop-color="#829AA4"/>
<stop stop-color="#EEF6FA"/>
</linearGradient>
</defs>
</svg>
