<svg width="15" height="14" viewBox="0 0 15 14" fill="none" xmlns="http://www.w3.org/2000/svg">
<path d="M8.17206 6.13217H7.68729C7.52946 -0.30306 0.866574 0.216623 0.866574 0.216623C0.866574 0.216623 0.51708 5.07069 4.68842 6.67397C0.51708 8.26619 0.866574 13.1313 0.866574 13.1313C0.866574 13.1313 7.52946 13.6399 7.68729 7.20471H8.17206C8.3299 13.6399 14.9928 13.1313 14.9928 13.1313C14.9928 13.1313 15.3423 8.26619 11.1822 6.67397C15.3423 5.07069 14.9928 0.216623 14.9928 0.216623C14.9928 0.216623 14.8688 0.205566 14.6546 0.205566C13.2791 0.205566 8.30735 0.581508 8.17206 6.13217ZM14.1021 1.01273C13.4144 5.85574 9.1529 6.08794 9.1529 6.08794C9.34456 1.3555 14.1021 1.01273 14.1021 1.01273ZM1.75722 1.01273C1.75722 1.01273 6.51481 1.3555 6.70646 6.08794C6.70646 6.08794 2.44493 5.85574 1.75722 1.01273ZM9.1529 7.24894C9.1529 7.24894 13.4144 7.48114 14.1021 12.3241C14.1021 12.3241 9.34456 11.9814 9.1529 7.24894ZM6.70646 7.24894C6.51481 11.9814 1.75722 12.3241 1.75722 12.3241C2.44493 7.48114 6.70646 7.24894 6.70646 7.24894Z" fill="url(#paint0_radial_2080_4936)"/>
<defs>
<radialGradient id="paint0_radial_2080_4936" cx="0" cy="0" r="1" gradientUnits="userSpaceOnUse" gradientTransform="translate(4.47873 3.49228) rotate(41.7712) scale(18.5909 18.5538)">
<stop stop-color="#D6BEA0"/>
<stop offset="1" stop-color="#857056"/>
</radialGradient>
</defs>
</svg>
