<svg width="86" height="9" viewBox="0 0 86 9" fill="none" xmlns="http://www.w3.org/2000/svg">
<path d="M7.15191 9.00046L0.981577 2.77753L1.28609 2.85711L1.31012 8.74581H0.236328V0.573242H0.292422L6.39865 6.81209L6.15024 6.75638L6.1262 0.811976H7.18397V9.00046H7.15191Z" fill="#FCFCFC"/>
<path d="M12.6576 5.93824C12.6576 6.29634 12.7457 6.61465 12.914 6.90112C13.0903 7.17964 13.3147 7.40245 13.6032 7.56161C13.8917 7.72076 14.2122 7.80034 14.5728 7.80034C14.9494 7.80034 15.286 7.72076 15.5825 7.56161C15.879 7.40245 16.1114 7.17964 16.2797 6.90112C16.4479 6.6226 16.5361 6.29634 16.5361 5.93824V0.813477H17.5858V5.97007C17.5858 6.54302 17.4496 7.05232 17.1852 7.48203C16.9127 7.91175 16.5521 8.24597 16.1034 8.48471C15.6466 8.71548 15.1417 8.83485 14.5808 8.83485C14.0199 8.83485 13.515 8.71548 13.0663 8.48471C12.6175 8.25393 12.2569 7.91971 11.9925 7.48203C11.728 7.05232 11.5918 6.54302 11.5918 5.97007V0.813477H12.6496V5.93824H12.6576Z" fill="#FCFCFC"/>
<path d="M26.1043 2.22858C25.8318 2.09329 25.5353 1.96597 25.2068 1.87048C24.8863 1.76703 24.5657 1.71928 24.2532 1.71928C23.8285 1.71928 23.4839 1.82274 23.2355 2.01372C22.9791 2.21266 22.8508 2.47527 22.8508 2.80153C22.8508 3.04822 22.931 3.26308 23.0912 3.43019C23.2515 3.60526 23.4679 3.7485 23.7323 3.87582C23.9968 4.00314 24.2772 4.11455 24.5657 4.22596C24.8141 4.32145 25.0626 4.42491 25.303 4.54427C25.5434 4.66364 25.7677 4.80687 25.9601 4.98194C26.1524 5.15701 26.3127 5.37187 26.4248 5.62651C26.537 5.88116 26.5931 6.19947 26.5931 6.58144C26.5931 6.99524 26.4889 7.37721 26.2806 7.71939C26.0722 8.06158 25.7677 8.33213 25.3831 8.53108C24.9904 8.73002 24.5257 8.82551 23.9888 8.82551C23.6362 8.82551 23.2996 8.78572 22.9791 8.70615C22.6585 8.62657 22.362 8.52312 22.0896 8.3958C21.8171 8.26847 21.5767 8.13319 21.3604 7.99791L21.8331 7.16235C22.0094 7.28967 22.2098 7.40109 22.4422 7.52045C22.6665 7.63186 22.9069 7.72735 23.1554 7.79897C23.4038 7.87059 23.6522 7.90242 23.8846 7.90242C24.133 7.90242 24.3814 7.85467 24.6298 7.76714C24.8782 7.67165 25.0786 7.53637 25.2469 7.34538C25.4071 7.1544 25.4873 6.89975 25.4873 6.5894C25.4873 6.31884 25.4151 6.09602 25.2709 5.91299C25.1267 5.73792 24.9343 5.57877 24.702 5.45145C24.4696 5.32413 24.2131 5.20476 23.9487 5.10927C23.7003 5.01377 23.4438 4.91033 23.1874 4.79892C22.931 4.68751 22.6906 4.54427 22.4742 4.38511C22.2498 4.218 22.0735 4.01906 21.9453 3.77237C21.8171 3.53364 21.745 3.2392 21.745 2.89702C21.745 2.48322 21.8492 2.11717 22.0495 1.80682C22.2498 1.49647 22.5303 1.24978 22.8829 1.07471C23.2355 0.891684 23.6442 0.796189 24.1009 0.780273C24.6138 0.780273 25.0706 0.843938 25.4632 0.963303C25.8559 1.09063 26.2085 1.24182 26.505 1.42485L26.1043 2.22858Z" fill="#FCFCFC"/>
<path d="M29.8145 8.74545L33.3083 0.485352H33.3724L36.8503 8.74545H35.6242L33.0198 2.15647L33.7811 1.66309L30.8642 8.74545H29.8145ZM31.8579 5.73744H34.8309L35.1835 6.66053H31.5534L31.8579 5.73744Z" fill="#FCFCFC"/>
<path d="M47.4759 9.00046L41.3056 2.77753L41.6181 2.85711L41.6341 8.74581H40.5684V0.573242H40.6164L46.7307 6.81209L46.4743 6.75638L46.4502 0.811976H47.508V9.00046H47.4759Z" fill="#FCFCFC"/>
<path d="M51.4346 0.813477H56.7314V1.83206H54.5919V8.74731H53.5181V1.83206H51.4346V0.813477Z" fill="#FCFCFC"/>
<path d="M59.2314 8.74545L62.7253 0.485352H62.7894L66.2672 8.74545H65.0412L62.4368 2.15647L63.1981 1.66309L60.2812 8.74545H59.2314ZM61.2749 5.73744H64.2478L64.6004 6.66053H60.9704L61.2749 5.73744Z" fill="#FCFCFC"/>
<path d="M72.1011 0.813477C72.5018 0.813477 72.8784 0.869178 73.223 0.972628C73.5676 1.07608 73.8641 1.23524 74.1205 1.44214C74.3769 1.64904 74.5692 1.90368 74.7135 2.20608C74.8577 2.50847 74.9298 2.85861 74.9298 3.26445C74.9298 3.5748 74.8818 3.88515 74.7936 4.18754C74.7055 4.48994 74.5532 4.7605 74.3368 5.00719C74.1205 5.25387 73.848 5.45282 73.5034 5.59606C73.1589 5.74726 72.7422 5.81888 72.2373 5.81888H71.0513V8.73935H69.9775V0.813477H72.1011ZM72.2053 4.80824C72.5178 4.80824 72.7822 4.7605 72.9906 4.665C73.1989 4.56951 73.3672 4.45015 73.4794 4.29895C73.5996 4.14775 73.6797 3.9886 73.7358 3.81353C73.7839 3.63846 73.816 3.47135 73.816 3.32016C73.816 3.161 73.7839 2.99389 73.7358 2.81882C73.6797 2.64375 73.5916 2.48459 73.4714 2.34135C73.3512 2.19812 73.1909 2.07875 72.9986 1.98326C72.8063 1.88777 72.5659 1.84002 72.2854 1.84002H71.0513V4.8162H72.2053V4.80824ZM73.5195 5.41303L75.611 8.74731H74.3769L72.2534 5.44486L73.5195 5.41303Z" fill="#FCFCFC"/>
<path d="M78.6719 8.74545L82.1657 0.485352H82.2298L85.7077 8.74545H84.4816L81.8772 2.15647L82.6385 1.66309L79.7216 8.74545H78.6719ZM80.7153 5.73744H83.6883L84.0409 6.66053H80.4108L80.7153 5.73744Z" fill="#FCFCFC"/>
</svg>
