<svg width="480" height="35" viewBox="0 0 480 35" fill="none" xmlns="http://www.w3.org/2000/svg">
<mask id="mask0_2080_5055" style="mask-type:alpha" maskUnits="userSpaceOnUse" x="0" y="0" width="480" height="35">
<rect width="479.39" height="34.99" fill="#D9D9D9"/>
</mask>
<g mask="url(#mask0_2080_5055)">
<path d="M2.84423 10.7361C2.84423 13.8625 5.42157 14.8919 8.37255 15.7154C12.2538 16.783 16.7146 17.7742 16.7146 23.0585C16.7146 27.7938 12.6274 29.8527 8.5098 29.8527C5.76471 29.8527 3.87364 28.5869 2.53922 28.5869C1.57843 28.5869 1.02941 29.1664 0.373638 29.8527L0 22.3036H0.0610022C1.95207 26.6272 5.0403 29.0673 8.50218 29.0673C11.5218 29.0673 13.9619 27.2448 13.9619 23.9202C13.9619 20.5956 10.805 19.6272 7.51089 18.6664C3.97277 17.6294 0.266885 16.4627 0.266885 11.7655C0.266885 7.7165 3.69826 5.13916 7.74728 5.13916C10.4924 5.13916 12.2767 6.34395 13.3442 6.34395C14.4728 6.34395 14.9227 5.65768 15.3649 5.13916L15.5022 12.1087H15.4335C13.8932 8.70779 11.4532 5.93219 7.74728 5.93219C5.20806 5.93219 2.8366 7.47249 2.8366 10.7361H2.84423Z" fill="white"/>
<path d="M43.6571 9.29506C44.0002 8.70791 44.1756 8.12839 44.1756 7.60987C44.1756 6.71772 43.6952 5.96281 42.8717 5.55105V5.48242H48.0569V5.55105C46.6538 6.41271 45.7617 7.60987 44.8314 9.11968L38.3804 19.5205V25.392C38.3804 27.6567 38.8608 28.7548 40.5079 29.441V29.5097H33.2639V29.441C34.9109 28.7548 35.3913 27.6567 35.3913 25.392V19.5205L28.7345 8.81467C27.8118 7.30486 27.0493 6.44321 25.7148 5.55105V5.48242H32.9589V5.55105C32.204 5.96281 31.7236 6.51183 31.7236 7.40399C31.7236 7.81575 31.8303 8.33427 32.2421 8.98242L38.0754 18.3539L43.6724 9.29506H43.6571Z" fill="white"/>
<path d="M63.1645 29.254V29.3226H57.0566V29.254C58.7037 28.5677 59.634 27.0274 59.634 24.412V9.68757C59.634 7.42286 59.3213 6.05031 57.6743 5.36404V5.29541H63.0959L71.7124 24.7551L79.7418 5.29541H84.8203V5.36404C83.1732 6.05031 82.8682 7.42286 82.8682 9.68757V24.8237C82.8682 27.0884 83.524 28.5677 85.171 29.254V29.3226H77.5839V29.254C79.2309 28.5677 79.8791 27.0961 79.8791 24.8237V7.28561L70.6449 29.6963H70.5076L60.5871 7.28561V24.412C60.5871 27.0198 61.5098 28.5677 63.1569 29.254H63.1645Z" fill="white"/>
<path d="M99.2198 19.5587V25.392C99.2198 27.5576 99.6316 28.6175 102.034 29.441V29.5097H94.1719V29.441C95.8189 28.7548 96.1316 27.3822 96.1316 25.1175V9.87458C96.1316 7.60987 95.8189 6.23732 94.1719 5.55105V5.48242H104.367C109.583 5.48242 113.395 7.81575 113.395 12.5205C113.395 17.2253 109.583 19.5587 104.367 19.5587H99.2198ZM103.787 18.6665C108.218 18.6665 110.071 16.1959 110.071 12.5205C110.071 8.84517 108.218 6.37458 103.787 6.37458H99.2198V18.6589H103.787V18.6665Z" fill="white"/>
<path d="M124.354 9.87458C124.354 7.60987 124.042 6.23732 122.395 5.55105V5.48242H129.395V5.55105C127.747 6.23732 127.435 7.60987 127.435 9.87458V16.8441H141.404V9.87458C141.404 7.60987 141.099 6.23732 139.452 5.55105V5.48242H146.452V5.55105C144.805 6.23732 144.493 7.60987 144.493 9.87458V25.1175C144.493 27.3822 144.805 28.7548 146.452 29.441V29.5097H139.452V29.441C141.099 28.7548 141.404 27.3822 141.404 25.1175V17.7362H127.435V25.1175C127.435 27.3822 127.747 28.7548 129.395 29.441V29.5097H122.395V29.441C124.042 28.7548 124.354 27.3822 124.354 25.1175V9.87458Z" fill="white"/>
<path d="M167.225 29.8489C160.842 29.8489 155.451 24.7019 155.451 17.496C155.451 10.2901 160.842 5.14307 167.225 5.14307C173.607 5.14307 178.998 10.2901 178.998 17.496C178.998 24.7019 173.607 29.8489 167.225 29.8489ZM167.225 5.92847C161.834 5.92847 159.02 10.9078 159.02 17.496C159.02 24.0842 161.834 29.0635 167.225 29.0635C172.616 29.0635 175.429 24.0842 175.429 17.496C175.429 10.9078 172.616 5.92847 167.225 5.92847Z" fill="white"/>
<path d="M208.937 10.2368V29.666H208.868L191.536 7.629V24.4427C191.536 27.0506 192.459 28.5985 194.106 29.2848V29.3534H187.998V29.2848C189.645 28.5985 190.575 27.0582 190.575 24.4427V9.71833C190.575 7.45362 190.263 6.08107 188.616 5.3948V5.32617H193.694L207.969 23.726V10.2368C207.969 7.629 207.046 6.08107 205.399 5.3948V5.32617H211.507V5.3948C209.86 6.08107 208.937 7.629 208.937 10.2368Z" fill="white"/>
<path d="M238.458 9.29506C238.801 8.70791 238.969 8.12839 238.969 7.60987C238.969 6.71772 238.488 5.96281 237.665 5.55105V5.48242H242.85V5.55105C241.439 6.41271 240.547 7.60987 239.624 9.11968L233.173 19.5205V25.392C233.173 27.6567 233.654 28.7548 235.301 29.441V29.5097H228.057V29.441C229.704 28.7548 230.184 27.6567 230.184 25.392V19.5205L223.527 8.81467C222.597 7.30486 221.85 6.44321 220.508 5.55105V5.48242H227.752V5.55105C226.997 5.96281 226.517 6.51183 226.517 7.40399C226.517 7.81576 226.616 8.33427 227.027 8.98242L232.861 18.3539L238.458 9.29506Z" fill="white"/>
<path d="M263.1 9.36279C264.923 9.36279 266.272 9.88131 267.157 10.9107C268.034 11.9401 268.43 13.3356 268.354 15.0894C268.293 16.4238 267.912 17.7811 267.233 19.1689C266.547 20.5491 265.685 21.7767 264.656 22.8519C263.619 23.9194 262.429 24.7963 261.08 25.4826C259.73 26.1613 258.388 26.5044 257.069 26.5044C255.246 26.5044 253.904 26.0088 253.035 25.0251C252.173 24.0414 251.777 22.6765 251.861 20.938C251.922 19.6035 252.295 18.2386 252.974 16.8356C253.653 15.4401 254.507 14.1972 255.544 13.1068C256.581 12.0164 257.77 11.1242 259.112 10.4227C260.454 9.72118 261.789 9.37042 263.108 9.37042L263.1 9.36279ZM262.505 10.2092C261.514 10.2092 260.561 10.5371 259.661 11.1929C258.761 11.8486 258.007 12.6874 257.404 13.7016C256.802 14.7157 256.314 15.7985 255.948 16.9576C255.574 18.1166 255.368 19.2223 255.315 20.2746C255.239 21.9292 255.422 23.2408 255.871 24.2092C256.321 25.17 257 25.658 257.892 25.658C258.868 25.658 259.799 25.3225 260.691 24.6591C261.575 23.9957 262.307 23.1493 262.887 22.1351C263.466 21.1133 263.931 20.0229 264.282 18.8715C264.633 17.7125 264.839 16.6068 264.885 15.5545C264.968 13.8693 264.808 12.5578 264.412 11.6199C264.015 10.682 263.382 10.2092 262.505 10.2092Z" fill="white"/>
<path d="M273.427 10.2168H276.637C277.583 7.44884 278.437 4.87912 280.137 2.63729C282.562 -0.557694 287.183 -0.672074 288.823 1.341C289.555 2.24078 289.417 4.04034 287.747 4.78762C287.885 3.93359 287.907 2.52292 287.061 1.72989C286.443 1.15037 285.689 0.997861 284.995 1.06649C284.118 1.15037 282.57 2.05015 281.929 3.36932C281.289 4.68849 280.694 6.90745 279.748 10.2168H285.216L284.697 11.597H279.375C278.017 16.9728 275.745 24.7963 274.746 28.0371C273.13 33.2528 270.423 35.5708 267.411 34.8693C266.153 34.5796 265.924 33.5196 265.924 33.5196C266.77 33.7408 267.228 33.756 267.868 33.7408C268.745 33.7255 269.813 33.0393 270.453 31.7201C271.094 30.4009 271.887 28.0905 272.832 24.7811L276.309 11.597H272.299L273.419 10.2168H273.427Z" fill="white"/>
<path d="M319.183 10.2368V29.666H319.115L301.782 7.629V24.4427C301.782 27.0506 302.705 28.5985 304.352 29.2848V29.3534H298.244V29.2848C299.891 28.5985 300.821 27.0582 300.821 24.4427V9.71833C300.821 7.45362 300.509 6.08107 298.862 5.3948V5.32617H303.94L318.215 23.726V10.2368C318.215 7.629 317.292 6.08107 315.645 5.3948V5.32617H321.753V5.3948C320.106 6.08107 319.183 7.629 319.183 10.2368Z" fill="white"/>
<path d="M336.174 29.6809H330.752V29.6123C332.086 28.926 332.979 27.3171 333.977 25.0448L342.594 5.31055H342.701L352.004 25.8378C353.033 28.072 353.445 28.926 354.787 29.6123V29.6809H347.65V29.6123C348.641 29.2005 349.228 28.621 349.228 27.7975C349.228 27.2485 349.022 26.5622 348.648 25.7387L346.834 21.6515H336.54L335.129 24.9456C334.816 25.67 334.542 26.4554 334.542 27.3171C334.542 28.3465 335.228 29.2005 336.189 29.6123V29.6809H336.174ZM337.272 20.7593H346.78L341.908 9.87808L337.272 20.7593Z" fill="white"/>
<path d="M384.391 5.60064C385.008 5.60064 385.664 5.57014 386.038 5.36426L387.204 12.3338H387.136C384.94 8.49062 383.735 6.4623 379.892 6.4623H377.04V25.5102C377.04 27.7749 377.52 28.873 379.167 29.5592V29.6279H371.824V29.5592C373.471 28.873 373.952 27.7749 373.952 25.5102V6.4623H371.1C367.257 6.4623 366.052 8.48299 363.856 12.3338H363.787L364.954 5.36426C365.327 5.57014 365.983 5.60064 366.601 5.60064H384.375H384.391Z" fill="white"/>
<path d="M416.969 20.1417C416.969 26.2877 413.057 29.6809 407.91 29.6809C401.665 29.6809 398.165 26.3487 398.165 20.0731V9.7027C398.165 7.438 397.852 6.06545 396.205 5.37917V5.31055H403.205V5.37917C401.558 6.06545 401.253 7.438 401.253 9.7027V19.7604C401.253 25.0447 403.38 28.2397 408.184 28.2397C412.714 28.2397 416.008 25.3193 416.008 19.9358V10.2212C416.008 7.61338 415.085 6.06545 413.438 5.37917V5.31055H419.546V5.37917C417.899 6.06545 416.976 7.61338 416.976 10.2212V20.1417H416.969Z" fill="white"/>
<path d="M438.816 5.48242C443.757 5.48242 447.776 7.12948 447.776 11.7961C447.776 16.1883 443.727 17.7667 439.884 17.904C443.384 18.1785 445.099 19.8942 445.923 22.3343L446.884 25.2166C447.776 27.8931 448.843 28.6861 450.933 29.441V29.5097H445.679C444.954 28.9301 444.306 27.4508 443.719 25.8038L442.659 22.7155C441.798 20.2831 440.738 18.2166 437.749 18.2166H433.593V25.1175C433.593 27.3822 433.898 28.7548 435.545 29.441V29.5097H428.545V29.441C430.192 28.7548 430.497 27.3822 430.497 25.1175V9.87458C430.497 7.60987 430.192 6.23732 428.545 5.55105V5.48242H438.809H438.816ZM434.012 17.3245H438.786C442.324 17.3245 444.794 16.0205 444.794 11.9715C444.794 8.15889 442.636 6.37458 438.786 6.37458H434.012V17.3245Z" fill="white"/>
<path d="M475.558 5.60064C476.175 5.60064 476.824 5.57014 477.205 5.36426L478.371 11.3043H478.303C476.519 8.04073 474.559 6.50042 470.716 6.50042H464.982V17.0004H469.824C472.599 17.0004 473.461 16.3828 474.628 13.1878H474.696V21.1867H474.628C473.461 18.0298 472.599 17.8926 469.824 17.8926H464.982V28.7357H471.433C475.276 28.7357 477.51 26.9514 479.325 23.3141H479.393L478.295 29.6279H459.934V29.5592C461.581 28.873 461.886 27.5004 461.886 25.2357V9.9928C461.886 7.72809 461.581 6.35554 459.934 5.66927V5.60064H475.55H475.558Z" fill="white"/>
</g>
</svg>
