<svg width="50" height="50" viewBox="0 0 50 50" fill="none" xmlns="http://www.w3.org/2000/svg">
<g clip-path="url(#clip0_2161_7067)">
<rect width="50" height="50" rx="25" fill="white"/>
<g clip-path="url(#clip1_2161_7067)">
<path d="M-17 -1H89.4V55H-17" fill="#B31942"/>
<path d="M-17 5.46167H89.4ZM89.4 14.0771H-17ZM-17 22.6924H89.4ZM89.4 31.3078H-17ZM-17 39.9232H89.4ZM89.4 48.5386H-17Z" fill="black"/>
<path d="M-17 5.46167H89.4M89.4 14.0771H-17M-17 22.6924H89.4M89.4 31.3078H-17M-17 39.9232H89.4M89.4 48.5386H-17" stroke="white" stroke-width="4.30769"/>
<path d="M-17 -1H25.56V29.1538H-17" fill="#0A3161"/>
<path d="M0.73347 0.292236L1.74627 3.40931L-0.905273 1.48285H2.37221L-0.279329 3.40931L0.73347 0.292236Z" fill="white"/>
<path d="M0.73347 6.323L1.74627 9.44007L-0.905273 7.51361H2.37221L-0.279329 9.44007L0.73347 6.323Z" fill="white"/>
<path d="M0.73347 12.3535L1.74627 15.4706L-0.905273 13.5441H2.37221L-0.279329 15.4706L0.73347 12.3535Z" fill="white"/>
<path d="M0.73347 18.3848L1.74627 21.5018L-0.905273 19.5754H2.37221L-0.279329 21.5018L0.73347 18.3848Z" fill="white"/>
<path d="M0.73347 24.4158L1.74627 27.5328L-0.905273 25.6064H2.37221L-0.279329 27.5328L0.73347 24.4158Z" fill="white"/>
<path d="M4.27986 3.30762L5.29266 6.42469L2.64111 4.49823H5.9186L3.26706 6.42469L4.27986 3.30762Z" fill="white"/>
<path d="M4.27986 9.33838L5.29266 12.4555L2.64111 10.529H5.9186L3.26706 12.4555L4.27986 9.33838Z" fill="white"/>
<path d="M4.27986 15.3694L5.29266 18.4865L2.64111 16.56H5.9186L3.26706 18.4865L4.27986 15.3694Z" fill="white"/>
<path d="M4.27986 21.3999L5.29266 24.517L2.64111 22.5905H5.9186L3.26706 24.517L4.27986 21.3999Z" fill="white"/>
<path d="M7.82624 0.292236L8.83904 3.40931L6.1875 1.48285H9.46499L6.81344 3.40931L7.82624 0.292236Z" fill="white"/>
<path d="M7.82624 6.323L8.83904 9.44007L6.1875 7.51361H9.46499L6.81344 9.44007L7.82624 6.323Z" fill="white"/>
<path d="M7.82624 12.3535L8.83904 15.4706L6.1875 13.5441H9.46499L6.81344 15.4706L7.82624 12.3535Z" fill="white"/>
<path d="M7.82624 18.3848L8.83904 21.5018L6.1875 19.5754H9.46499L6.81344 21.5018L7.82624 18.3848Z" fill="white"/>
<path d="M7.82624 24.4158L8.83904 27.5328L6.1875 25.6064H9.46499L6.81344 27.5328L7.82624 24.4158Z" fill="white"/>
<path d="M11.3726 3.30762L12.3854 6.42469L9.73389 4.49823H13.0114L10.3598 6.42469L11.3726 3.30762Z" fill="white"/>
<path d="M11.3726 9.33838L12.3854 12.4555L9.73389 10.529H13.0114L10.3598 12.4555L11.3726 9.33838Z" fill="white"/>
<path d="M11.3726 15.3694L12.3854 18.4865L9.73389 16.56H13.0114L10.3598 18.4865L11.3726 15.3694Z" fill="white"/>
<path d="M11.3726 21.3999L12.3854 24.517L9.73389 22.5905H13.0114L10.3598 24.517L11.3726 21.3999Z" fill="white"/>
<path d="M14.9205 0.292236L15.9333 3.40931L13.2817 1.48285H16.5592L13.9077 3.40931L14.9205 0.292236Z" fill="white"/>
<path d="M14.9205 6.323L15.9333 9.44007L13.2817 7.51361H16.5592L13.9077 9.44007L14.9205 6.323Z" fill="white"/>
<path d="M14.9205 12.3535L15.9333 15.4706L13.2817 13.5441H16.5592L13.9077 15.4706L14.9205 12.3535Z" fill="white"/>
<path d="M14.9205 18.3848L15.9333 21.5018L13.2817 19.5754H16.5592L13.9077 21.5018L14.9205 18.3848Z" fill="white"/>
<path d="M14.9205 24.4158L15.9333 27.5328L13.2817 25.6064H16.5592L13.9077 27.5328L14.9205 24.4158Z" fill="white"/>
<path d="M18.4669 3.30762L19.4797 6.42469L16.8281 4.49823H20.1056L17.4541 6.42469L18.4669 3.30762Z" fill="white"/>
<path d="M18.4669 9.33838L19.4797 12.4555L16.8281 10.529H20.1056L17.4541 12.4555L18.4669 9.33838Z" fill="white"/>
<path d="M18.4669 15.3694L19.4797 18.4865L16.8281 16.56H20.1056L17.4541 18.4865L18.4669 15.3694Z" fill="white"/>
<path d="M18.4669 21.3999L19.4797 24.517L16.8281 22.5905H20.1056L17.4541 24.517L18.4669 21.3999Z" fill="white"/>
<path d="M22.0137 0.292236L23.0265 3.40931L20.375 1.48285H23.6525L21.0009 3.40931L22.0137 0.292236Z" fill="white"/>
<path d="M22.0137 6.323L23.0265 9.44007L20.375 7.51361H23.6525L21.0009 9.44007L22.0137 6.323Z" fill="white"/>
<path d="M22.0137 12.3535L23.0265 15.4706L20.375 13.5441H23.6525L21.0009 15.4706L22.0137 12.3535Z" fill="white"/>
<path d="M22.0137 18.3848L23.0265 21.5018L20.375 19.5754H23.6525L21.0009 21.5018L22.0137 18.3848Z" fill="white"/>
<path d="M22.0137 24.4158L23.0265 27.5328L20.375 25.6064H23.6525L21.0009 27.5328L22.0137 24.4158Z" fill="white"/>
</g>
</g>
<defs>
<clipPath id="clip0_2161_7067">
<rect width="50" height="50" rx="25" fill="white"/>
</clipPath>
<clipPath id="clip1_2161_7067">
<rect width="106.4" height="56" fill="white" transform="translate(-17 -1)"/>
</clipPath>
</defs>
</svg>
