<svg width="100" height="100" viewBox="0 0 100 100" fill="none" xmlns="http://www.w3.org/2000/svg">
<path d="M51.714 45.7337H48.2858C47.1696 -0.667445 0.0509088 3.07973 0.0509088 3.07973C0.0509088 3.07973 -2.42065 38.0799 27.0784 49.6403C-2.42065 61.121 0.0509088 96.2009 0.0509088 96.2009C0.0509088 96.2009 47.1696 99.8684 48.2858 53.4672H51.714C52.8302 99.8684 99.9488 96.2009 99.9488 96.2009C99.9488 96.2009 102.42 61.121 73.0012 49.6403C102.42 38.0799 99.9488 3.07973 99.9488 3.07973C99.9488 3.07973 99.0719 3 97.5571 3C87.8304 3 52.6707 5.71072 51.714 45.7337ZM93.6505 8.82008C88.7872 43.7405 58.6503 45.4148 58.6503 45.4148C60.0057 11.2916 93.6505 8.82008 93.6505 8.82008ZM6.34938 8.82008C6.34938 8.82008 39.9942 11.2916 41.3496 45.4148C41.3496 45.4148 11.2127 43.7405 6.34938 8.82008ZM58.6503 53.7861C58.6503 53.7861 88.7872 55.4604 93.6505 90.3809C93.6505 90.3809 60.0057 87.9093 58.6503 53.7861ZM41.3496 53.7861C39.9942 87.9093 6.34938 90.3809 6.34938 90.3809C11.2127 55.4604 41.3496 53.7861 41.3496 53.7861Z" fill="url(#paint0_radial_2213_6999)"/>
<defs>
<radialGradient id="paint0_radial_2213_6999" cx="0" cy="0" r="1" gradientUnits="userSpaceOnUse" gradientTransform="translate(25.5954 26.6988) rotate(42.3246) scale(132.622 132.622)">
<stop stop-color="#D6BEA0"/>
<stop offset="1" stop-color="#857056"/>
</radialGradient>
</defs>
</svg>
